<svg xmlns="http://www.w3.org/2000/svg" xmlns:xlink="http://www.w3.org/1999/xlink" viewBox="0 0 2267.72 2267.72"><defs><style>.cls-1,.cls-32{fill:none;}.cls-2{clip-path:url(#clip-path);}.cls-3{fill:url(#linear-gradient);}.cls-4{fill:url(#linear-gradient-2);}.cls-5{fill:#47b599;}.cls-6{fill:#bee3db;}.cls-7{fill:#61c2a7;}.cls-8{fill:#9cd6c9;}.cls-9{fill:#7acbba;}.cls-10{fill:#4fa88f;}.cls-11{fill:url(#linear-gradient-3);}.cls-12{fill:url(#linear-gradient-4);}.cls-13{fill:#f69faa;}.cls-14{fill:#f7b4c6;}.cls-15{fill:#f7acb6;}.cls-16{fill:#f15d74;}.cls-17{fill:#f9c2d1;}.cls-18{fill:#f48f9f;}.cls-19{fill:#f9c0c7;}.cls-20{fill:#c9386b;}.cls-21{fill:#5eb58b;}.cls-21,.cls-31,.cls-32{stroke:#fff;stroke-miterlimit:10;}.cls-21,.cls-31{stroke-width:6px;}.cls-22,.cls-25,.cls-26,.cls-39,.cls-44{font-size:50px;}.cls-22,.cls-23,.cls-24,.cls-26,.cls-33,.cls-34,.cls-42,.cls-44{fill:#fff;}.cls-22,.cls-23,.cls-27,.cls-28,.cls-39{font-family:OpenSans-Bold, Open Sans;font-weight:700;}.cls-23{font-size:60px;}.cls-24{font-size:46px;}.cls-24,.cls-25,.cls-26,.cls-30{font-family:OpenSans-Semibold, Open Sans;font-weight:600;}.cls-25{fill:#e8e8e8;}.cls-27,.cls-29{fill:#fee900;}.cls-28{fill:#f7944e;}.cls-30{font-size:76px;fill:#f7921e;}.cls-31{fill:#009092;}.cls-32{stroke-width:7.54px;}.cls-34{font-size:35px;}.cls-34,.cls-42,.cls-43,.cls-44{font-family:OpenSans, Open Sans;}.cls-35{fill:#01af96;}.cls-36{fill:#c2d1eb;}.cls-37{fill:#5352a3;}.cls-38{fill:#2ea17c;}.cls-39{fill:#231f20;}.cls-40{fill:#8786c0;}.cls-41{fill:#e3e3e3;}.cls-42,.cls-43{font-size:24px;}.cls-43{fill:#e41e25;}</style><clipPath id="clip-path"><path class="cls-1" d="M479.51,1682.93c-34.59-29.61-123.17-105.42-151.58-229.17-17.77-77.41-7.65-145,3.91-191.35,28.3-113.7,87.29-158.91,106-290.86,7.2-50.88,1.49-108.85-20.9-207.16-53-232.65,365.28-519.64,739.26-574.19,92.22-13.45,370.57-54,617.67,120.45C2027.46,489.77,2075.69,773.72,2108.69,968c36,211.74,50.45,623.49-146.15,736.12-48.93,28-132.51,49.87-183.28,63.14-115.36,30.15-207.35,37.48-255.88,40.71C1006.76,1842.38,690.45,1863.45,479.51,1682.93Z"/></clipPath><linearGradient id="linear-gradient" x1="948.78" y1="442.12" x2="1369.47" y2="1563.12" gradientUnits="userSpaceOnUse"><stop offset="0.01" stop-color="#8d3370"/><stop offset="1" stop-color="#3d1a3e"/></linearGradient><linearGradient id="linear-gradient-2" x1="385.95" y1="1192.21" x2="2129.8" y2="1192.21" gradientUnits="userSpaceOnUse"><stop offset="0" stop-color="#755f96"/><stop offset="0.99" stop-color="#73275e"/></linearGradient><linearGradient id="linear-gradient-3" x1="540.03" y1="1007.02" x2="2098.9" y2="1007.02" gradientUnits="userSpaceOnUse"><stop offset="0" stop-color="#bf5467" stop-opacity="0.4"/><stop offset="0.99" stop-color="#f15c49"/></linearGradient><linearGradient id="linear-gradient-4" x1="799.62" y1="1133.86" x2="1407.73" y2="1133.86" xlink:href="#linear-gradient-3"/></defs><title>details</title><g id="Layer_2" data-name="Layer 2"><g class="cls-2"><path class="cls-3" d="M479.51,1682.79c-34.59-29.6-123.17-105.41-151.58-229.16-17.77-77.42-7.65-145,3.91-191.36,28.3-113.69,87.29-158.91,106-290.86,7.2-50.87,1.49-108.85-20.9-207.16-53-232.64,365.28-519.63,739.26-574.19,92.22-13.45,370.57-54.05,617.67,120.46,253.63,179.12,301.86,463.07,334.86,657.34,36,211.73,50.45,623.48-146.15,736.11-48.93,28-132.51,49.88-183.28,63.14-115.36,30.15-207.35,37.48-255.88,40.71C1006.76,1842.24,690.45,1863.31,479.51,1682.79Z"/><path class="cls-4" d="M386,1556.63c72.1-78.94,198.93-197.05,385.15-265.36,449.45-164.85,799.47,123.85,1042.61-42,101.36-69.13,211.13-235.67,173-695.59a1479.52,1479.52,0,0,1,139.48,571.74s15.9,150.21-18.9,345.49c-8.07,45.25-20.94,102.67-63.79,158.84a317,317,0,0,1-80.94,74.22,1318.57,1318.57,0,0,1-239.41,76.51c-75,16.27-142.86,21.86-275.59,32.37-85.52,6.77-196,15.33-345.85,17.44-168.6,2.39-243.89-5.41-299-13.56-78.08-11.53-132.32-26.19-186-49.53-38-16.48-86.74-38.16-137.1-84.41A420.25,420.25,0,0,1,386,1556.63Z"/><polygon class="cls-5" points="607.45 734.34 494.46 806.97 530.78 1103.54 579.2 1131.79 663.94 1113.63 706.3 821.45 607.45 734.34"/><polygon class="cls-6" points="607.45 734.34 494.46 806.97 579.2 891.71 621.57 891.71 706.3 821.45 607.45 734.34"/><polygon class="cls-7" points="579.2 891.71 579.2 996.62 621.57 891.71 579.2 891.71"/><polygon class="cls-8" points="706.3 821.45 655.87 1014.77 621.57 891.71 706.3 821.45"/><polygon class="cls-6" points="706.3 821.45 663.94 1113.63 655.87 1014.77 706.3 821.45"/><polygon class="cls-9" points="579.2 996.62 579.2 1131.79 663.94 1113.63 655.87 1014.77 621.57 891.71 579.2 996.62"/><polygon class="cls-8" points="494.46 806.97 530.78 1103.54 579.2 1131.79 579.2 891.71 494.46 806.97"/><polygon class="cls-7" points="520.33 1091.85 536.7 1040.98 623.71 1109.93 520.33 1091.85"/><polygon class="cls-9" points="536.7 1040.98 467.94 1062.31 520.33 1091.85 536.7 1040.98"/><polygon class="cls-9" points="467.94 1062.31 424.24 1117.45 470.81 1154.35 467.94 1062.31"/><polygon class="cls-8" points="520.33 1091.85 470.81 1154.35 467.94 1062.31 520.33 1091.85"/><polygon class="cls-8" points="623.71 1109.93 553.93 1175.33 520.33 1091.85 623.71 1109.93"/><polygon class="cls-7" points="623.71 1109.93 588.25 1202.53 553.93 1175.33 623.71 1109.93"/><polygon class="cls-9" points="553.93 1175.33 480.74 1216.09 588.25 1202.53 553.93 1175.33"/><polygon class="cls-7" points="470.81 1154.35 480.74 1216.09 424.24 1117.45 470.81 1154.35"/><polygon class="cls-8" points="470.81 1154.35 553.93 1175.33 480.74 1216.09 470.81 1154.35"/><polygon class="cls-6" points="520.33 1091.85 553.93 1175.33 470.81 1154.35 520.33 1091.85"/><polygon class="cls-7" points="597.09 1085.19 729.34 1145.63 738.24 1107.63 597.09 1085.19"/><polygon class="cls-9" points="738.24 1107.63 729.34 1145.63 815.51 1037.28 738.24 1107.63"/><polygon class="cls-9" points="704.47 1010.42 678.29 978.98 815.51 1037.28 704.47 1010.42"/><path class="cls-7" d="M678.29,979c-5.8,3.41-81.2,106.21-81.2,106.21l107.38-74.77Z"/><polygon class="cls-10" points="704.47 1010.42 597.09 1085.19 738.24 1107.63 704.47 1010.42"/><polygon class="cls-8" points="704.47 1010.42 738.24 1107.63 815.51 1037.28 704.47 1010.42"/><path class="cls-11" d="M540,626.5s87,224.08,324.14,261.88c111,17.7,222.95,44.39,321.81,99.69a621.67,621.67,0,0,1,121.38,88.76c102.48,96.06,224.61,165.47,357.51,209.89,115.24,38.51,238.21,73.87,360,82.29,20.52,1.42,56.33,6.87,74-7.57-14.74,12-53.06,13.47-70.71,16.42a716.73,716.73,0,0,1-184.69,6.52c-114.07-10.67-220.14-56.23-320.16-109.73-99.67-53.31-203.37-107.47-292-178.11-117.63-93.76-223.87-146.4-330.11-153.44S559.31,820.94,540,626.5Z"/><path class="cls-12" d="M799.62,984.43s214.1,4.12,315.82,119.12,292.29,179.73,292.29,179.73-230.1-37.56-343.75-131.45S799.62,984.43,799.62,984.43Z"/><polygon class="cls-13" points="1948.32 1332.28 1929.73 1582.68 2000.83 1358.66 1948.32 1332.28"/><polygon class="cls-14" points="1983.02 1300.3 1948.32 1332.28 2000.83 1358.66 1983.02 1300.3"/><polygon class="cls-15" points="1989.13 1208.97 1983.02 1300.3 2000.83 1358.66 2061.35 1342.6 1989.13 1208.97"/><polygon class="cls-16" points="1948.32 1332.28 1904.88 1324.07 1989.13 1208.97 1983.02 1300.3 1948.32 1332.28"/><polygon class="cls-17" points="1904.88 1324.07 1861.04 1304.74 1989.13 1208.97 1904.88 1324.07"/><polygon class="cls-18" points="1861.04 1304.74 1814.92 1680.95 1840.23 1705.74 1904.88 1324.07 1861.04 1304.74"/><polygon class="cls-18" points="2061.35 1342.6 1959.34 1763.24 1907.42 1773.43 1934.94 1566.27 2000.83 1358.66 2061.35 1342.6"/><polygon class="cls-16" points="1840.23 1705.74 1907.42 1773.43 1934.94 1566.27 1948.32 1332.28 1904.88 1324.07 1840.23 1705.74"/><path class="cls-17" d="M1879.61,1492.43c-2.83-7-104.45-106.89-104.45-106.89l65.47,130.8Z"/><polygon class="cls-19" points="1840.63 1516.35 1775.16 1385.55 1727.66 1538.09 1840.63 1516.35"/><polygon class="cls-18" points="1840.63 1516.35 1727.66 1538.09 1793.08 1634.88 1840.63 1516.35"/><polygon class="cls-15" points="1727.66 1538.09 1687.05 1522.14 1793.08 1634.88 1727.66 1538.09"/><polygon class="cls-15" points="1840.63 1516.35 1879.61 1492.43 1793.08 1634.88 1840.63 1516.35"/><polygon class="cls-17" points="1775.16 1385.55 1687.05 1522.14 1727.66 1538.09 1775.16 1385.55"/><polygon class="cls-20" points="1992 1731.68 2036.94 1556.76 2135.61 1588.21 1992 1731.68"/><polygon class="cls-16" points="2036.94 1556.76 2001.2 1462.36 1992 1731.68 2036.94 1556.76"/><polygon class="cls-18" points="2135.61 1588.21 2189.56 1337.05 2036.94 1556.76 2135.61 1588.21"/><polygon class="cls-19" points="2189.56 1337.05 2001.2 1462.36 2036.94 1556.76 2189.56 1337.05"/><path class="cls-1" d="M479.49,1684.9c-34.59-29.6-123.18-105.41-151.59-229.16-17.77-77.42-7.64-145,3.91-191.36,28.3-113.69,87.3-158.91,106-290.86,7.19-50.87,1.48-108.85-20.91-207.15-53-232.65,365.29-519.64,739.27-574.19,92.21-13.46,370.56-54.06,617.66,120.45C2027.44,491.75,2075.67,775.7,2108.67,970c36,211.73,50.44,623.48-146.16,736.11-48.93,28-132.5,49.88-183.27,63.15-115.36,30.14-207.35,37.47-255.88,40.7C1006.73,1844.35,690.43,1865.42,479.49,1684.9Z"/><rect class="cls-21" x="554.78" y="1187.06" width="1176.21" height="523.8" rx="102.73"/><text class="cls-22" transform="translate(666.15 1318.48)">Upto</text><text class="cls-22" transform="translate(1283.77 1303.5)">Your Odds</text><text class="cls-23" transform="translate(666.15 1398.85)">Rs 1,00,000</text><text class="cls-24" transform="translate(666.15 1455.36)">To Be Won</text><text class="cls-25" transform="translate(673.29 1553.86)">Next Draw on 28-02</text><text class="cls-26" transform="translate(673.29 1644.16)">Invest <tspan class="cls-27" x="159.55" y="0">Rs 10000</tspan><tspan class="cls-28" x="373.1" y="0"> </tspan><tspan x="386.08" y="0">to have 1+ odds</tspan></text><circle class="cls-29" cx="1409.15" cy="1439.27" r="106.24"/><text class="cls-30" transform="translate(1358.66 1467.92)">3.2</text><rect class="cls-31" x="629.43" y="476.55" width="980.03" height="386.58" rx="67.31"/><path class="cls-32" d="M728.43,574.07H856.18A22.92,22.92,0,0,1,879.1,597V751.45a36.62,36.62,0,0,1-36.62,36.62H742.13a36.62,36.62,0,0,1-36.62-36.62V597A22.92,22.92,0,0,1,728.43,574.07Z"/><rect class="cls-32" x="696.86" y="543.44" width="193.79" height="20.84" rx="10.03"/><path class="cls-32" d="M714.88,564.28a12.79,12.79,0,0,1,4.43,5.82,12.65,12.65,0,0,1,.62,6.58"/><path class="cls-32" d="M872.88,564.28a13.41,13.41,0,0,0-4.52,6.18,13.05,13.05,0,0,0-.66,5.67"/><path class="cls-33" d="M841.67,593.46a10.84,10.84,0,0,1,4.47-.82,15.8,15.8,0,0,1,2.27.19,22.58,22.58,0,0,1,2.23.54c.71.27,1.45.54,2.15.88s1.37.76,2,1.18,1.25,1,1.85,1.5a18.07,18.07,0,0,1,1.62,1.76,12,12,0,0,1,1.36,2,11.43,11.43,0,0,1,1.06,2.13c.28.73.54,1.47.76,2.22s.27,1.53.36,2.29c0,.38.08.76.11,1.13a10.75,10.75,0,0,1-.05,1.14c0,.76-.13,1.51-.23,2.24A12.84,12.84,0,0,1,861,614a12.32,12.32,0,0,1-.94,2.06,35,35,0,0,1-2.1-3.75c-.34-.59-.65-1.15-.94-1.71-.15-.28-.27-.56-.41-.83s-.34-.52-.49-.78c-.31-.51-.6-1-.85-1.52s-.66-.93-.95-1.4a10.7,10.7,0,0,0-.94-1.34,13.68,13.68,0,0,0-1-1.29,38.22,38.22,0,0,0-4.59-4.84C846.05,597,844.06,595.39,841.67,593.46Z"/><path class="cls-33" d="M705.51,751.45H879.1c0,2.37-.31,16.07-11.51,26.64a37.44,37.44,0,0,1-25.11,10H742.13a37.43,37.43,0,0,1-24.76-9.64C705.86,767.85,705.53,753.81,705.51,751.45Z"/><text class="cls-22" transform="translate(965.02 602.5)">Paris Trip</text><text class="cls-34" transform="translate(966.28 662.24)">Rs 500 Saved</text><text class="cls-34" transform="translate(967.77 723.26)">Save Rs 1000 by 07-05-2018</text><rect class="cls-33" x="919.39" y="777.89" width="1102.17" height="434.76" rx="75.7"/><polygon class="cls-8" points="1123.88 888.63 1118.56 939.17 1128.24 942.08 1131.14 888.63 1123.88 888.63"/><polygon class="cls-6" points="1128.24 942.08 1145.18 942.07 1141.8 888.63 1131.14 888.63 1128.24 942.08"/><polygon class="cls-8" points="1155.84 939.17 1149.06 891.99 1141.8 888.63 1145.18 942.07 1155.84 939.17"/><polygon class="cls-9" points="1136.71 870.21 1141.8 888.63 1149.06 891.99 1136.71 870.21"/><polyline class="cls-8" points="1136.71 870.21 1141.8 888.63 1131.14 888.63 1136.71 870.21"/><polygon class="cls-9" points="1136.47 871.01 1131.14 888.63 1123.88 888.63 1136.47 871.01"/><polygon class="cls-7" points="1118.56 939.17 1136.71 963.4 1128.24 942.08 1118.56 939.17"/><polygon class="cls-9" points="1145.18 942.07 1136.71 963.4 1128.24 942.08 1145.18 942.07"/><polygon class="cls-35" points="1155.84 939.17 1136.71 963.4 1145.18 942.07 1155.84 939.17"/><polygon class="cls-8" points="1128.43 948.3 1148.04 943.75 1148.71 967.35 1128.43 948.3"/><polygon class="cls-9" points="1148.04 943.75 1124.37 935.77 1128.43 948.3 1148.04 943.75"/><polygon class="cls-9" points="1124.37 935.77 1096.63 936.56 1096.99 949.19 1124.37 935.77"/><polygon class="cls-6" points="1128.43 948.3 1096.99 949.19 1124.37 935.77 1128.43 948.3"/><polygon class="cls-6" points="1148.71 967.35 1111.34 965.42 1128.43 948.3 1148.71 967.35"/><polygon class="cls-9" points="1148.71 967.35 1111.6 974.73 1111.34 965.42 1148.71 967.35"/><polygon class="cls-7" points="1111.34 965.42 1080.63 959.47 1111.6 974.73 1111.34 965.42"/><polygon class="cls-8" points="1096.99 949.19 1080.63 959.47 1096.63 936.56 1096.99 949.19"/><polygon class="cls-9" points="1096.99 949.19 1111.34 965.42 1080.63 959.47 1096.99 949.19"/><polygon class="cls-8" points="1128.43 948.3 1111.34 965.42 1096.99 949.19 1128.43 948.3"/><polygon class="cls-8" points="1169.61 882.08 1185.21 894.25 1181.11 906.15 1169.61 882.08"/><polygon class="cls-9" points="1169.61 882.08 1150.87 915.85 1181.11 906.15 1169.61 882.08"/><polygon class="cls-7" points="1150.87 915.85 1141.37 961.3 1153.53 976.25 1181.11 906.15 1150.87 915.85"/><polygon class="cls-8" points="1181.11 906.15 1170.58 972.49 1153.53 976.25 1181.11 906.15"/><polygon class="cls-9" points="1185.21 894.25 1170.58 972.49 1181.11 906.15 1185.21 894.25"/><path class="cls-36" d="M1163.89,826.38a106.79,106.79,0,0,0-91.81,190.89,17.52,17.52,0,0,1,10.13-28.66,77.58,77.58,0,0,1,71-135,17.52,17.52,0,0,1,10.73-27.25Zm-79.5,197.8a105.5,105.5,0,0,0,17.53,6.54Z"/><path class="cls-36" d="M1163.89,826.38a106.79,106.79,0,0,0-91.81,190.89,17.52,17.52,0,0,1,10.13-28.66,77.58,77.58,0,0,1,71-135,17.52,17.52,0,0,1,10.73-27.25Zm-79.5,197.8a105.5,105.5,0,0,0,17.53,6.54Z"/><path class="cls-37" d="M1237.07,927.76a106.87,106.87,0,0,1-135.15,103l-17.53-6.54a104.35,104.35,0,0,1-12.31-6.91,17.52,17.52,0,0,1,10.13-28.66,77.23,77.23,0,0,0,48.09,16.71c1.2,0,2.4,0,3.58-.09a77.55,77.55,0,0,0,43-139.5h0a77.47,77.47,0,0,0-23.7-12.1,17.52,17.52,0,0,1,10.73-27.25h0a107.13,107.13,0,0,1,64.21,58.45h0A106.42,106.42,0,0,1,1237.07,927.76Z"/><path class="cls-33" d="M1084.39,1024.18a104.35,104.35,0,0,1-12.31-6.91Z"/><rect class="cls-38" x="1123.88" y="1068.48" width="761.83" height="91.15" rx="44.1"/><text class="cls-39" transform="translate(1295.66 898.47)">Reach 25% of</text><rect class="cls-40" x="1304.6" y="930.45" width="272.42" height="45.79" rx="21"/><rect class="cls-41" x="1304.6" y="981.66" width="209.11" height="39.07" rx="19.53"/><text class="cls-42" transform="translate(1334.05 960.67)">Rainy day fund</text><text class="cls-43" transform="translate(1335.76 1008.73)">+100</text><text class="cls-44" transform="translate(1205.3 1125.17)">Deposit Rs 50 to complete</text></g></g></svg>