<svg id="Layer_1" data-name="Layer 1" xmlns="http://www.w3.org/2000/svg" viewBox="0 0 65 65"><defs><style>.cls-1,.cls-2,.cls-3,.cls-4,.cls-5,.cls-6,.cls-7,.cls-8{fill:none;stroke:#fff;}.cls-1,.cls-2,.cls-3,.cls-4,.cls-5,.cls-6,.cls-8{stroke-miterlimit:10;}.cls-1,.cls-6,.cls-7{stroke-width:1.67px;}.cls-3{stroke-width:1.26px;}.cls-4{stroke-width:1.44px;}.cls-5{stroke-width:1.17px;}.cls-6,.cls-7,.cls-8{stroke-linecap:round;}.cls-7{stroke-linejoin:round;}</style></defs><title>discipline</title><circle class="cls-1" cx="32.5" cy="37.52" r="24.98"/><circle class="cls-2" cx="32.5" cy="37.52" r="20.59"/><rect class="cls-3" x="28.99" y="7.4" width="7.21" height="4.58"/><rect class="cls-4" x="24.73" y="2.5" width="15.13" height="4.52" rx="1.13"/><rect class="cls-5" x="51.54" y="18.37" width="4.35" height="4.35" rx="0.69" transform="translate(38.12 -34.81) rotate(53.33)"/><polyline class="cls-6" points="22.17 26.99 22.17 48.04 43.03 48.04"/><line class="cls-6" x1="27.13" y1="47.5" x2="27.13" y2="42.95"/><line class="cls-6" x1="35.96" y1="47.5" x2="35.96" y2="42.95"/><line class="cls-6" x1="30.89" y1="47.5" x2="30.89" y2="36.99"/><line class="cls-6" x1="41.02" y1="47.5" x2="41.02" y2="35.01"/><polyline class="cls-7" points="22.64 36.99 30.89 30.44 35.96 34.25 41.02 29.32"/><polyline class="cls-7" points="38.17 28.46 41.93 28.91 41.55 32.17"/><line class="cls-8" x1="32.22" y1="16.93" x2="32.22" y2="18.37"/><line class="cls-8" x1="21.97" y1="19.83" x2="22.68" y2="21.07"/><line class="cls-8" x1="14.53" y1="27.46" x2="15.78" y2="28.18"/><line class="cls-8" x1="11.91" y1="37.79" x2="13.35" y2="37.79"/><line class="cls-8" x1="14.81" y1="48.05" x2="16.06" y2="47.33"/><line class="cls-8" x1="22.45" y1="55.48" x2="23.17" y2="54.24"/><line class="cls-8" x1="32.78" y1="58.1" x2="32.78" y2="56.66"/><line class="cls-8" x1="43.03" y1="55.2" x2="42.32" y2="53.96"/><line class="cls-8" x1="50.47" y1="47.57" x2="49.22" y2="46.85"/><line class="cls-8" x1="53.09" y1="37.24" x2="51.65" y2="37.24"/><line class="cls-8" x1="50.19" y1="26.98" x2="48.94" y2="27.7"/><line class="cls-8" x1="42.55" y1="19.55" x2="41.83" y2="20.79"/></svg>