<svg id="Layer_1" data-name="Layer 1" xmlns="http://www.w3.org/2000/svg" viewBox="0 0 32 32"><defs><style>.cls-1,.cls-4{fill:#6167af;}.cls-2{fill:#7a82c0;}.cls-3{fill:#6186af;}.cls-4{font-size:12px;font-family:MyriadPro-Regular, Myriad Pro;}</style></defs><title>personalise saving</title><path class="cls-1" d="M16,1A15,15,0,0,0,7,28a.77.77,0,0,1,0-.84v0a.77.77,0,0,1,.89-.35,13.5,13.5,0,0,1,16-21.74.8.8,0,0,1,0-1l0,0a.77.77,0,0,1,.76-.26A14.88,14.88,0,0,0,16,1Z"/><path class="cls-2" d="M31,16A15,15,0,0,1,16,31a14.74,14.74,0,0,1-4.52-.7l-2.12-.85-1.7-1,0,0c-.2-.14-.39-.27-.58-.42H7a.77.77,0,0,1,0-.84v0a.77.77,0,0,1,.89-.35,13.67,13.67,0,0,0,3,1.71A13.51,13.51,0,0,0,25.55,6.45a13.54,13.54,0,0,0-1.64-1.39.8.8,0,0,1,0-1l0,0a.77.77,0,0,1,.76-.26,15.1,15.1,0,0,1,3.65,3.7A14.94,14.94,0,0,1,31,16Z"/><path class="cls-3" d="M23.91,5.06a13.54,13.54,0,0,1,1.64,1.39L24,5.18A.68.68,0,0,1,23.91,5.06Z"/><text class="cls-4" transform="translate(4.57 19.47)">75%</text></svg>