<svg id="Layer_1" data-name="Layer 1" xmlns="http://www.w3.org/2000/svg" viewBox="0 0 32 32"><defs><style>.cls-1{fill:#6167af;}</style></defs><title>save and win</title><path class="cls-1" d="M31,11.5c0-.86-1.06-1.52-3.1-2A1.12,1.12,0,0,0,28,9V5.5h0c-.18-2.91-12.12-3-13.49-3S1.19,2.59,1,5.5H1v.07H1V9c0,.95,1.23,1.69,3.05,2.25a1,1,0,0,0,0,.25H4v.06H4V15c-2,.51-2.95,1.17-3,2H1v.07H1V20.5c0,.66.6,1.22,1.57,1.69a1.07,1.07,0,0,0-.06.31h0v.07h0V26c0,1.66,3.75,2.7,7.91,3.18l.09,0h0c.8.09,1.61.16,2.42.21H13c1,.06,2,.09,3,.09s1.95,0,3-.09h.08c.81,0,1.62-.12,2.42-.21h.12c4.16-.49,7.91-1.52,7.91-3.18V22.5h0c0-.61-.56-1.12-1.59-1.55a1,1,0,0,0,.1-.45V17.23c1.8-.55,3-1.29,3-2.23V11.5Zm-4,9.16-.17.15a4.73,4.73,0,0,1-1.28.69V19.12a7.83,7.83,0,0,0,1.5-.69V20.5A.37.37,0,0,1,27,20.66ZM15.76,23H15V20.5h.49l1.51,0v2.5h-.32C16.38,23,16.07,23,15.76,23Zm-2.18,0-.68,0h-.09l-.81,0v-2.5c.5,0,1,0,1.51,0H14V23h-.42Zm-9-1.14h0V19.42c.47.13,1,.24,1.5.35v2.44c-.46-.1-.88-.2-1.27-.31ZM15.09,26h.41v2.5c-.69,0-1.36,0-2-.06v-2.5c.5,0,1,0,1.51,0ZM17,26c.51,0,1,0,1.51,0v2.5c-.64,0-1.31,0-2,.06V26H17Zm4-.23v2.49l-1.5.13V25.89Zm1-.1,1.5-.22V27.9c-.47.08-1,.16-1.5.23Zm2.5-.39c.53-.11,1-.22,1.5-.35v2.42c-.45.13-.95.25-1.5.37Zm-17,0v2.44c-.55-.12-1-.24-1.5-.37V24.92C6.47,25.05,7,25.16,7.5,25.27Zm1,.18,1.5.21v2.47c-.53-.07-1-.15-1.5-.23Zm2.5.31,1.5.13v2.49L11,28.25Zm-1.24-3H9.5V20.26l1.5.13v2.49ZM8.5,20.16v2.47c-.53-.07-1-.15-1.5-.23V19.94Zm9.83,2.69-.33,0V20.39l1.5-.13v2.49l-.95.09Zm2.17-.22V20.16l1.5-.22V22.4C21.53,22.48,21,22.56,20.5,22.63ZM23,19.77c.53-.11,1-.22,1.5-.35v2.42c-.45.13-.95.25-1.5.37Zm-6.84-2.29-1.1,0H15v-2.5c.5,0,1,0,1.51.05H17v2.49h-.84ZM4.5,10.34V7.92c.47.13,1,.24,1.5.35v2.44l-.18,0L5,10.48ZM13.59,9H14v2.49c-.67,0-1.34,0-2-.05V8.94c.5,0,1,0,1.51.05Zm1.9,0L17,8.94v2.5h-.27l-1,0H15V9h.49Zm11.4.25h0l-.18.14A4.62,4.62,0,0,1,25.5,10V7.62A7.83,7.83,0,0,0,27,6.93V9A.42.42,0,0,1,26.89,9.24ZM20.5,11.13V8.66L22,8.45V10.9C21.53,11,21,11.06,20.5,11.13ZM23,10.7V8.27c.53-.11,1-.22,1.5-.35v2.41C24.05,10.46,23.55,10.59,23,10.7ZM19.5,8.76v2.48l-1.5.14V8.89Zm-10,2.48V8.76l1.5.13v2.48C10.49,11.34,10,11.3,9.5,11.24Zm-1-2.58v2.47l-.3,0-.19,0-.85-.13L7,10.9V8.45Zm5.38,8.71-.21,0-.93-.08-.2,0h0V14.76l1.5.13v2.49ZM10.57,17,10,16.9V14.45l1.5.21v2.47L10.61,17ZM9,14.27V16.7c-.55-.12-1-.24-1.5-.37V13.92C8,14.05,8.47,14.16,9,14.27Zm-2.5-.65V16A3.07,3.07,0,0,1,5,15.1l0,0A.43.43,0,0,0,5,15V12.93A7.83,7.83,0,0,0,6.5,13.62Zm12,1.37c.51,0,1,0,1.51-.05v2.5c-.66,0-1.33,0-2,0V15h.49ZM25,16.91l-.67.11-.39.06-.39.05V14.66l1.5-.22V16.9Zm-3.38.43-.57,0V14.89l1.5-.13v2.48c-.29,0-.58.07-.88.09Zm5.71-.94-.78.2-.38.08-.12,0V14.27c.53-.11,1-.22,1.5-.35v2.42ZM30,11.53c0,.34-.81.79-2.18,1.22h0a33.7,33.7,0,0,1-8,1.2l-.54,0h-.45L17.5,14l-1.27,0h-.45l-.54,0a34.22,34.22,0,0,1-8-1.2h0c-1.36-.42-2.13-.87-2.18-1.21a0,0,0,0,1,0,0l.1,0,.6.13c1,.21,2.1.39,3.27.52H9c.8.1,1.63.17,2.48.22h0c.61,0,1.23.06,1.86.08H15.3a38,38,0,0,0,9.35-1.16l.31-.09.19-.06c.18-.06.36-.11.53-.18l.08,0,.41-.16.11-.05.4-.2.15-.09.18-.1.1-.06C29.35,10.79,29.94,11.33,30,11.53ZM14.5,3.5c8.24,0,12.41,1.3,12.49,2-.06.34-.83.79-2.18,1.21h0a34.22,34.22,0,0,1-8,1.2l-.54,0h-.45L14.5,8,13.23,8h-.45l-.54,0a34.22,34.22,0,0,1-8-1.2h0C2.83,6.33,2.07,5.88,2,5.54,2.09,4.8,6.26,3.5,14.5,3.5ZM2,9V6.93a7.83,7.83,0,0,0,1.5.69V10C2.53,9.65,2,9.28,2,9Zm2.42,6.92,0,0a8.54,8.54,0,0,0,3.86,1.64l.13,0,.39.08a37.48,37.48,0,0,0,5.67.72h0c.68,0,1.37.07,2.08.08h2c.65,0,1.3,0,1.93-.08h0a39.47,39.47,0,0,0,5.77-.74,9,9,0,0,1-1.47.58h0a34.82,34.82,0,0,1-8.65,1.22H14.5l-1.27,0h-.45l-.54,0a34.22,34.22,0,0,1-8-1.2h0C2.82,17.82,2.05,17.37,2,17S2.57,16.37,4.42,15.92ZM2,20.5V18.43a7.83,7.83,0,0,0,1.5.69V21.5l-.29-.11h0C2.42,21.07,2,20.75,2,20.5ZM3.5,26V23.93a7.83,7.83,0,0,0,1.5.69V27C4,26.65,3.5,26.28,3.5,26ZM27,27V24.62a7.83,7.83,0,0,0,1.5-.69V26C28.5,26.28,28,26.64,27,27Zm1.49-4.47c0,.34-.82.79-2.18,1.21h0a33.7,33.7,0,0,1-8,1.2l-.54,0h-.45L16,25l-1.27,0h-.45l-.54,0a34.22,34.22,0,0,1-8-1.2h0c-1.32-.41-2.08-.85-2.18-1.18l.46.15,0,0,.42.12.16,0,.24.06a36.31,36.31,0,0,0,6.66.95h0c.78.05,1.57.07,2.37.08h1.47c.73,0,1.45,0,2.16-.08h0c.85-.05,1.68-.12,2.48-.22h0c.89-.1,1.73-.23,2.51-.38l.48-.09.1,0A13.28,13.28,0,0,0,26.76,22l.13-.08.16-.1.15-.09C28.19,22.1,28.46,22.41,28.49,22.54Zm0-6.53V13.62a7.83,7.83,0,0,0,1.5-.69V15C30,15.28,29.47,15.64,28.5,16Z"/></svg>