<svg xmlns="http://www.w3.org/2000/svg" xmlns:xlink="http://www.w3.org/1999/xlink" viewBox="0 0 4208.82 2640.05"><defs><style>.cls-1{fill:none;}.cls-2{isolation:isolate;}.cls-3{clip-path:url(#clip-path);}.cls-4{fill:url(#linear-gradient);}.cls-5{fill:url(#linear-gradient-2);}.cls-6{fill:url(#linear-gradient-3);}.cls-7{fill:url(#linear-gradient-4);}.cls-8{fill:url(#linear-gradient-5);}.cls-9{fill:url(#linear-gradient-6);}.cls-10{fill:url(#linear-gradient-7);}.cls-11{fill:url(#linear-gradient-8);}.cls-12{fill:#446267;}.cls-13{fill:#f8ad9c;opacity:0.49;}.cls-14{fill:#b8d4ce;opacity:0.39;}.cls-15{fill:#f69faa;}.cls-16{fill:#f7b4c6;}.cls-17{fill:#f7acb6;}.cls-18{fill:#f15d74;}.cls-19{fill:#f9c2d1;}.cls-20{fill:#f48f9f;}.cls-21{fill:#f9c0c7;}.cls-22{fill:#c9386b;}.cls-23{fill:#47b599;}.cls-24{fill:#bee3db;}.cls-25{fill:#61c2a7;}.cls-26{fill:#9cd6c9;}.cls-27{fill:#7acbba;}.cls-28{fill:#4fa88f;}.cls-29{fill:#f7a08b;}.cls-30{fill:#a25763;}.cls-31{fill:#90424f;}.cls-32{fill:#60787c;}.cls-134,.cls-33,.cls-76,.cls-78,.cls-79,.cls-81,.cls-82,.cls-83{mix-blend-mode:multiply;}.cls-34,.cls-81,.cls-82,.cls-83{fill:#fff;}.cls-34{opacity:0;}.cls-35{fill:#fafafb;opacity:0.05;}.cls-36{fill:#f7f7f8;opacity:0.1;}.cls-37{fill:#f4f5f5;opacity:0.14;}.cls-38{fill:#f2f2f3;opacity:0.19;}.cls-39{fill:#eff0f0;opacity:0.24;}.cls-40{fill:#ecedee;opacity:0.29;}.cls-41{fill:#eaebeb;opacity:0.33;}.cls-42{fill:#e7e8e9;opacity:0.38;}.cls-43{fill:#e5e6e7;opacity:0.43;}.cls-44{fill:#e2e3e4;opacity:0.48;}.cls-45{fill:#e0e1e2;opacity:0.52;}.cls-46{fill:#dddee0;opacity:0.57;}.cls-47{fill:#dbdcdd;opacity:0.62;}.cls-48{fill:#d8d9db;opacity:0.67;}.cls-49{fill:#d6d7d8;opacity:0.71;}.cls-50{fill:#d3d4d6;opacity:0.76;}.cls-51{fill:#d1d2d4;opacity:0.81;}.cls-52{fill:#ced0d1;opacity:0.86;}.cls-53{fill:#cbcdcf;opacity:0.9;}.cls-54{fill:#c9cbcc;opacity:0.95;}.cls-55{fill:#bfbfbf;}.cls-56{fill:url(#linear-gradient-9);}.cls-57{fill:url(#linear-gradient-10);}.cls-58{fill:url(#linear-gradient-11);}.cls-59{fill:url(#linear-gradient-12);}.cls-60{fill:url(#linear-gradient-13);}.cls-61{fill:url(#linear-gradient-14);}.cls-62{fill:url(#linear-gradient-15);}.cls-63{fill:url(#linear-gradient-16);}.cls-64{fill:url(#linear-gradient-17);}.cls-146,.cls-155,.cls-65,.cls-66,.cls-67,.cls-68,.cls-69{mix-blend-mode:overlay;}.cls-65{fill:url(#linear-gradient-18);}.cls-66{fill:url(#linear-gradient-19);}.cls-67{fill:url(#linear-gradient-20);}.cls-68{fill:url(#linear-gradient-21);}.cls-146,.cls-155,.cls-69{opacity:0.3;}.cls-69{fill:url(#radial-gradient);}.cls-70{fill:url(#linear-gradient-22);}.cls-71{fill:url(#linear-gradient-23);}.cls-72{fill:url(#linear-gradient-24);}.cls-73{fill:url(#linear-gradient-25);}.cls-74{fill:url(#linear-gradient-26);}.cls-75,.cls-77{mix-blend-mode:color-burn;}.cls-76,.cls-78,.cls-79{fill:#aca497;}.cls-76,.cls-81{opacity:0.44;}.cls-77{opacity:0.19;}.cls-78,.cls-82{opacity:0.74;}.cls-79,.cls-83{opacity:0.16;}.cls-80{mix-blend-mode:screen;}.cls-100,.cls-104,.cls-106,.cls-110,.cls-112,.cls-116,.cls-118,.cls-122,.cls-124,.cls-84,.cls-92,.cls-94,.cls-98{opacity:0.79;mix-blend-mode:hard-light;}.cls-84{fill:url(#linear-gradient-27);}.cls-85{fill:url(#linear-gradient-28);}.cls-86{fill:url(#linear-gradient-29);}.cls-87{fill:url(#linear-gradient-30);}.cls-88{fill:url(#linear-gradient-31);}.cls-89{fill:url(#linear-gradient-32);}.cls-90{fill:url(#linear-gradient-33);}.cls-91{fill:url(#linear-gradient-34);}.cls-92{fill:url(#linear-gradient-35);}.cls-93{fill:url(#linear-gradient-36);}.cls-94{fill:url(#linear-gradient-37);}.cls-95{fill:url(#linear-gradient-38);}.cls-96{fill:url(#linear-gradient-39);}.cls-97{fill:url(#linear-gradient-40);}.cls-98{fill:url(#linear-gradient-41);}.cls-99{fill:url(#linear-gradient-42);}.cls-100{fill:url(#linear-gradient-43);}.cls-101{fill:url(#linear-gradient-44);}.cls-102{fill:url(#linear-gradient-45);}.cls-103{fill:url(#linear-gradient-46);}.cls-104{fill:url(#linear-gradient-47);}.cls-105{fill:url(#linear-gradient-48);}.cls-106{fill:url(#linear-gradient-49);}.cls-107{fill:url(#linear-gradient-50);}.cls-108{fill:url(#linear-gradient-51);}.cls-109{fill:url(#linear-gradient-52);}.cls-110{fill:url(#linear-gradient-53);}.cls-111{fill:url(#linear-gradient-54);}.cls-112{fill:url(#linear-gradient-55);}.cls-113{fill:url(#linear-gradient-56);}.cls-114{fill:url(#linear-gradient-57);}.cls-115{fill:url(#linear-gradient-58);}.cls-116{fill:url(#linear-gradient-59);}.cls-117{fill:url(#linear-gradient-60);}.cls-118{fill:url(#linear-gradient-61);}.cls-119{fill:url(#linear-gradient-62);}.cls-120{fill:url(#linear-gradient-63);}.cls-121{fill:url(#linear-gradient-64);}.cls-122{fill:url(#linear-gradient-65);}.cls-123{fill:url(#linear-gradient-66);}.cls-124{fill:url(#linear-gradient-67);}.cls-125{fill:url(#linear-gradient-68);}.cls-126{fill:#8bc8ed;}.cls-127{fill:url(#linear-gradient-69);}.cls-128,.cls-129{mix-blend-mode:soft-light;}.cls-128{fill:url(#linear-gradient-70);}.cls-129{fill:url(#linear-gradient-71);}.cls-130{fill:url(#linear-gradient-72);}.cls-131{fill:url(#linear-gradient-73);}.cls-132{fill:url(#linear-gradient-74);}.cls-133{fill:url(#linear-gradient-75);}.cls-134{fill:#204ba0;opacity:0.14;}.cls-135{fill:url(#linear-gradient-76);}.cls-136{fill:url(#linear-gradient-77);}.cls-137{fill:#a1cfef;}.cls-138{fill:url(#linear-gradient-78);}.cls-139{fill:url(#linear-gradient-79);}.cls-140{fill:url(#linear-gradient-80);}.cls-141{fill:url(#linear-gradient-81);}.cls-142{fill:url(#linear-gradient-82);}.cls-143{fill:url(#linear-gradient-83);}.cls-144{fill:#63a9dd;}.cls-145{fill:url(#linear-gradient-84);}.cls-146{fill:url(#radial-gradient-2);}.cls-147{fill:url(#linear-gradient-85);}.cls-148{fill:url(#linear-gradient-86);}.cls-149{fill:url(#linear-gradient-87);}.cls-150{fill:url(#linear-gradient-88);}.cls-151{fill:#f37a7c;}.cls-152{fill:url(#linear-gradient-89);}.cls-153{fill:#ed1c24;}.cls-154{fill:url(#linear-gradient-90);}.cls-155{fill:url(#radial-gradient-3);}</style><clipPath id="clip-path"><path class="cls-1" d="M391.72,2491.2c-46.92-60.26-270.49-357.27-273.28-728.66C117,1571.32,174.32,1390,197.89,1326.69c27.79-74.65,63.32-139,63.32-139,33.78-61.12,65.2-102.6,72-111.51,0,0,45.94-60.1,103.14-111.93,125.36-113.58,405.11-211.9,460.32-232,239.11-87.19,246.24-158.87,484.5-281.14,172-88.27,584.71-304.17,1009.34-200.51,243.81,59.51,416.07,204.66,760.6,494.95C3292.45,864.63,3403.5,958.2,3498.42,1073,3851,1499.47,4061,2242.71,3800.25,2492.15c-96.13,91.94-188.38,51.91-1090.27,52.41-136.42.08-97.06,2.53-465,3.83C1877.7,2549.69,1299.82,2540.3,391.72,2491.2Z"/></clipPath><linearGradient id="linear-gradient" x1="2035.92" y1="2522.53" x2="1960.55" y2="103.69" gradientUnits="userSpaceOnUse"><stop offset="0" stop-color="#26848f"/><stop offset="1" stop-color="#431c5a"/></linearGradient><linearGradient id="linear-gradient-2" x1="998.74" y1="1799.46" x2="1015.58" y2="1311.25" gradientUnits="userSpaceOnUse"><stop offset="0" stop-color="#41486e"/><stop offset="1" stop-color="#26848f"/></linearGradient><linearGradient id="linear-gradient-3" x1="2892.2" y1="1289.28" x2="2909.04" y2="801.07" xlink:href="#linear-gradient-2"/><linearGradient id="linear-gradient-4" x1="2892.2" y1="1289.28" x2="2909.04" y2="801.07" gradientTransform="matrix(-1, 0, 0, 1, 5792.35, 0)" xlink:href="#linear-gradient-2"/><linearGradient id="linear-gradient-5" x1="4301.45" y1="791.79" x2="4327.1" y2="47.99" gradientTransform="matrix(-1, 0, 0, 1, 5792.35, 0)" xlink:href="#linear-gradient-2"/><linearGradient id="linear-gradient-6" x1="488.77" y1="1744.22" x2="2168.09" y2="1744.22" gradientUnits="userSpaceOnUse"><stop offset="0" stop-color="#26848f"/><stop offset="0.08" stop-color="#431c5a"/><stop offset="0.76" stop-color="#e2827b"/></linearGradient><linearGradient id="linear-gradient-7" x1="2204.72" y1="2659.75" x2="2939.19" y2="1585.34" gradientUnits="userSpaceOnUse"><stop offset="0" stop-color="#26848f"/><stop offset="0.76" stop-color="#e2827b"/></linearGradient><linearGradient id="linear-gradient-8" x1="488.77" y1="1744.22" x2="1983.56" y2="1744.22" gradientUnits="userSpaceOnUse"><stop offset="0" stop-color="#695b67"/><stop offset="1" stop-color="#e2827b"/></linearGradient><linearGradient id="linear-gradient-9" x1="-783.2" y1="-3014.35" x2="-700.06" y2="-3014.35" gradientTransform="translate(5212.24 1330.42) rotate(-90)" gradientUnits="userSpaceOnUse"><stop offset="0" stop-color="#fcf8cc"/><stop offset="0.99" stop-color="#a1ce5a"/></linearGradient><linearGradient id="linear-gradient-10" x1="-741.63" y1="-3062.55" x2="-741.63" y2="-3097.78" gradientTransform="translate(5212.24 1330.42) rotate(-90)" gradientUnits="userSpaceOnUse"><stop offset="0" stop-color="#92c83e"/><stop offset="0.99" stop-color="#118642"/></linearGradient><linearGradient id="linear-gradient-11" x1="1366.58" y1="-5567.45" x2="1366.58" y2="-5604.01" gradientTransform="translate(7066.11 -871.68) rotate(-135)" xlink:href="#linear-gradient-9"/><linearGradient id="linear-gradient-12" x1="4621.98" y1="-5853.51" x2="4621.98" y2="-5883.89" gradientTransform="translate(6819.87 -3739.88) rotate(180)" xlink:href="#linear-gradient-10"/><linearGradient id="linear-gradient-13" x1="7125.99" y1="-3752.98" x2="7125.99" y2="-3789.54" gradientTransform="translate(4617.77 -5593.76) rotate(135)" gradientUnits="userSpaceOnUse"><stop offset="0" stop-color="#bad978"/><stop offset="0.99" stop-color="#44b249"/></linearGradient><linearGradient id="linear-gradient-14" x1="7419.57" y1="-496.53" x2="7419.57" y2="-531.76" gradientTransform="translate(1749.56 -5347.51) rotate(90)" xlink:href="#linear-gradient-10"/><linearGradient id="linear-gradient-15" x1="5323" y1="2017.91" x2="5323" y2="1981.35" gradientTransform="translate(-104.31 -3145.41) rotate(45)" xlink:href="#linear-gradient-13"/><linearGradient id="linear-gradient-16" x1="2055.95" y1="2307.69" x2="2055.95" y2="2277.31" gradientTransform="translate(141.94 -277.21)" xlink:href="#linear-gradient-9"/><linearGradient id="linear-gradient-17" x1="-459.38" y1="203.44" x2="-459.38" y2="166.88" gradientTransform="translate(2344.03 1576.67) rotate(-45)" xlink:href="#linear-gradient-13"/><linearGradient id="linear-gradient-18" x1="1228.52" y1="-5542.55" x2="1262.61" y2="-5576.63" gradientTransform="translate(6985.71 -978.39) rotate(-135)" xlink:href="#linear-gradient-9"/><linearGradient id="linear-gradient-19" x1="6937.62" y1="-3967.1" x2="6967.02" y2="-3996.49" gradientTransform="translate(4298.35 -5638.67) rotate(135)" xlink:href="#linear-gradient-9"/><linearGradient id="linear-gradient-20" x1="5362.18" y1="1742" x2="5396.26" y2="1707.91" gradientTransform="translate(-361.94 -2951.31) rotate(45)" xlink:href="#linear-gradient-9"/><linearGradient id="linear-gradient-21" x1="-346.92" y1="166.55" x2="-317.53" y2="137.16" gradientTransform="translate(2325.43 1708.98) rotate(-45)" xlink:href="#linear-gradient-9"/><radialGradient id="radial-gradient" cx="-583.32" cy="-2921.85" r="83.93" gradientTransform="translate(4971.3 1594.59) rotate(-90) scale(0.82 0.95)" gradientUnits="userSpaceOnUse"><stop offset="0" stop-color="#fff"/><stop offset="0.09" stop-color="#e7e7e7"/><stop offset="0.54" stop-color="#6d6d6d"/><stop offset="0.86" stop-color="#1f1f1f"/><stop offset="1" stop-color="#010101"/></radialGradient><linearGradient id="linear-gradient-22" x1="1895.39" y1="1731.91" x2="1907.94" y2="1719.36" gradientUnits="userSpaceOnUse"><stop offset="0" stop-color="#f47622"/><stop offset="1" stop-color="#fdf38e"/></linearGradient><linearGradient id="linear-gradient-23" x1="1864.72" y1="1839.81" x2="1985.86" y2="1769.87" gradientUnits="userSpaceOnUse"><stop offset="0.02" stop-color="#e4ae24"/><stop offset="0.39" stop-color="#fede40"/><stop offset="0.5" stop-color="#f6c635"/><stop offset="0.66" stop-color="#eda828"/><stop offset="0.76" stop-color="#e99c23"/><stop offset="0.86" stop-color="#f2ac38"/><stop offset="1" stop-color="#febf51"/></linearGradient><linearGradient id="linear-gradient-24" x1="1916.87" y1="1728.91" x2="1923.41" y2="1722.37" gradientUnits="userSpaceOnUse"><stop offset="0" stop-color="#fdb515"/><stop offset="0.51" stop-color="#ffd32d"/><stop offset="1" stop-color="#fdf38e"/></linearGradient><linearGradient id="linear-gradient-25" x1="1948.15" y1="1732.2" x2="1957.88" y2="1722.47" xlink:href="#linear-gradient-24"/><linearGradient id="linear-gradient-26" x1="1884.52" y1="1752.75" x2="1894.25" y2="1743.02" xlink:href="#linear-gradient-22"/><linearGradient id="linear-gradient-27" x1="1867.01" y1="1791.83" x2="1957.18" y2="1739.77" gradientUnits="userSpaceOnUse"><stop offset="0.01" stop-color="#f69581"/><stop offset="0.4" stop-color="#f9bdb0"/><stop offset="1" stop-color="#fff"/></linearGradient><linearGradient id="linear-gradient-28" x1="2221.9" y1="1623.18" x2="2233.71" y2="1611.37" xlink:href="#linear-gradient-24"/><linearGradient id="linear-gradient-29" x1="2175.06" y1="1615.84" x2="2181.21" y2="1609.69" xlink:href="#linear-gradient-24"/><linearGradient id="linear-gradient-30" x1="2240.33" y1="1642.13" x2="2246.48" y2="1635.98" xlink:href="#linear-gradient-24"/><linearGradient id="linear-gradient-31" x1="2153.73" y1="1627.91" x2="2162.89" y2="1618.75" xlink:href="#linear-gradient-24"/><linearGradient id="linear-gradient-32" x1="2388.82" y1="1751.58" x2="2467.29" y2="1751.58" gradientTransform="translate(-119.82 -270.16) rotate(4.92)" gradientUnits="userSpaceOnUse"><stop offset="0" stop-color="#c46128"/><stop offset="1" stop-color="#ef9921"/></linearGradient><linearGradient id="linear-gradient-33" x1="2422.61" y1="1757.52" x2="2468.72" y2="1747.58" gradientTransform="translate(-119.82 -270.16) rotate(4.92)" gradientUnits="userSpaceOnUse"><stop offset="0" stop-color="#febf51"/><stop offset="0.07" stop-color="#fab848"/><stop offset="0.19" stop-color="#efa630"/><stop offset="0.24" stop-color="#e99c23"/><stop offset="0.33" stop-color="#eeac2a"/><stop offset="0.61" stop-color="#fede40"/><stop offset="0.86" stop-color="#e4ae24"/><stop offset="1" stop-color="#e9da50"/></linearGradient><linearGradient id="linear-gradient-34" x1="3879.08" y1="1780.73" x2="3908.13" y2="1751.68" gradientTransform="matrix(-1, -0.09, -0.09, 1, 6157.95, 271)" xlink:href="#linear-gradient-33"/><linearGradient id="linear-gradient-35" x1="3877.77" y1="1759.11" x2="3909.1" y2="1759.11" gradientTransform="matrix(-1, -0.09, -0.09, 1, 6157.95, 271)" gradientUnits="userSpaceOnUse"><stop offset="0.01" stop-color="#ffd480"/><stop offset="0.22" stop-color="#ffdfa2"/><stop offset="0.58" stop-color="#fff0d4"/><stop offset="0.85" stop-color="#fffbf3"/><stop offset="1" stop-color="#fff"/></linearGradient><linearGradient id="linear-gradient-36" x1="2396.33" y1="1738.89" x2="2457.99" y2="1738.89" gradientTransform="translate(-119.82 -270.16) rotate(4.92)" gradientUnits="userSpaceOnUse"><stop offset="0" stop-color="#f9f17e"/><stop offset="0.14" stop-color="#fee01f"/><stop offset="0.39" stop-color="#f9f06d"/><stop offset="0.64" stop-color="#fdd83b"/><stop offset="0.76" stop-color="#fc2"/><stop offset="0.79" stop-color="#ffd435"/><stop offset="0.88" stop-color="#fee45c"/><stop offset="0.96" stop-color="#fdee75"/><stop offset="1" stop-color="#fdf27e"/></linearGradient><linearGradient id="linear-gradient-37" x1="2443.29" y1="1748.4" x2="2431.02" y2="1749.59" gradientTransform="translate(-119.82 -270.16) rotate(4.92)" gradientUnits="userSpaceOnUse"><stop offset="0.01" stop-color="#fdf59f"/><stop offset="0.38" stop-color="#e8c675"/><stop offset="1" stop-color="#c27029"/></linearGradient><linearGradient id="linear-gradient-38" x1="2426.93" y1="1755.66" x2="2508.07" y2="1755.66" xlink:href="#linear-gradient-32"/><linearGradient id="linear-gradient-39" x1="2461.65" y1="1761.64" x2="2509.59" y2="1751.31" xlink:href="#linear-gradient-33"/><linearGradient id="linear-gradient-40" x1="3840.32" y1="1784.88" x2="3869.67" y2="1755.53" gradientTransform="matrix(-1, -0.09, -0.09, 1, 6157.95, 271)" xlink:href="#linear-gradient-33"/><linearGradient id="linear-gradient-41" x1="3838.42" y1="1763.1" x2="3871.05" y2="1763.1" xlink:href="#linear-gradient-35"/><linearGradient id="linear-gradient-42" x1="2434.33" y1="1743.37" x2="2497.99" y2="1743.37" xlink:href="#linear-gradient-36"/><linearGradient id="linear-gradient-43" x1="2482.93" y1="1752.51" x2="2470.3" y2="1753.72" xlink:href="#linear-gradient-37"/><linearGradient id="linear-gradient-44" x1="2466.69" y1="1759.51" x2="2550.69" y2="1759.51" xlink:href="#linear-gradient-32"/><linearGradient id="linear-gradient-45" x1="2502.39" y1="1765.54" x2="2552.3" y2="1754.77" xlink:href="#linear-gradient-33"/><linearGradient id="linear-gradient-46" x1="3799.87" y1="1788.81" x2="3829.52" y2="1759.16" gradientTransform="matrix(-1, -0.09, -0.09, 1, 6157.95, 271)" xlink:href="#linear-gradient-33"/><linearGradient id="linear-gradient-47" x1="3797.34" y1="1766.88" x2="3831.36" y2="1766.88" xlink:href="#linear-gradient-35"/><linearGradient id="linear-gradient-48" x1="2473.97" y1="1747.66" x2="2539.77" y2="1747.66" xlink:href="#linear-gradient-36"/><linearGradient id="linear-gradient-49" x1="2524.31" y1="1756.38" x2="2511.32" y2="1757.64" gradientTransform="translate(-119.82 -270.16) rotate(4.92)" gradientUnits="userSpaceOnUse"><stop offset="0.01" stop-color="#fdf59f"/><stop offset="0.51" stop-color="#feface"/><stop offset="1" stop-color="#fff"/></linearGradient><linearGradient id="linear-gradient-50" x1="2408.21" y1="1729.53" x2="2487.09" y2="1729.53" xlink:href="#linear-gradient-32"/><linearGradient id="linear-gradient-51" x1="2442.14" y1="1735.68" x2="2488.43" y2="1725.7" xlink:href="#linear-gradient-33"/><linearGradient id="linear-gradient-52" x1="3859.49" y1="1758.2" x2="3888.78" y2="1728.91" gradientTransform="matrix(-1, -0.09, -0.09, 1, 6157.95, 271)" xlink:href="#linear-gradient-33"/><linearGradient id="linear-gradient-53" x1="3858.15" y1="1736.5" x2="3889.8" y2="1736.5" xlink:href="#linear-gradient-35"/><linearGradient id="linear-gradient-54" x1="2415.53" y1="1717.05" x2="2477.44" y2="1717.05" xlink:href="#linear-gradient-36"/><linearGradient id="linear-gradient-55" x1="2462.76" y1="1726.63" x2="2450.49" y2="1727.82" xlink:href="#linear-gradient-37"/><linearGradient id="linear-gradient-56" x1="2446.68" y1="1734.17" x2="2528.25" y2="1734.17" xlink:href="#linear-gradient-32"/><linearGradient id="linear-gradient-57" x1="2481.54" y1="1740.39" x2="2529.67" y2="1730.02" xlink:href="#linear-gradient-33"/><linearGradient id="linear-gradient-58" x1="3820.35" y1="1762.88" x2="3849.96" y2="1733.28" gradientTransform="matrix(-1, -0.09, -0.09, 1, 6157.95, 271)" xlink:href="#linear-gradient-33"/><linearGradient id="linear-gradient-59" x1="3818.43" y1="1741.01" x2="3851.4" y2="1741.01" xlink:href="#linear-gradient-35"/><linearGradient id="linear-gradient-60" x1="2453.88" y1="1722.11" x2="2517.79" y2="1722.11" xlink:href="#linear-gradient-36"/><linearGradient id="linear-gradient-61" x1="2502.76" y1="1731.33" x2="2490.14" y2="1732.55" xlink:href="#linear-gradient-49"/><linearGradient id="linear-gradient-62" x1="2427.38" y1="1709.96" x2="2506.63" y2="1709.96" xlink:href="#linear-gradient-32"/><linearGradient id="linear-gradient-63" x1="2461.43" y1="1714.69" x2="2507.87" y2="1704.68" xlink:href="#linear-gradient-33"/><linearGradient id="linear-gradient-64" x1="3840.12" y1="1736.46" x2="3869.66" y2="1706.91" gradientTransform="matrix(-1, -0.09, -0.09, 1, 6157.95, 271)" xlink:href="#linear-gradient-33"/><linearGradient id="linear-gradient-65" x1="3838.77" y1="1714.66" x2="3870.73" y2="1714.66" xlink:href="#linear-gradient-35"/><linearGradient id="linear-gradient-66" x1="2434.5" y1="1697.7" x2="2496.62" y2="1697.7" xlink:href="#linear-gradient-36"/><linearGradient id="linear-gradient-67" x1="2481.98" y1="1705.71" x2="2469.72" y2="1706.9" xlink:href="#linear-gradient-49"/><linearGradient id="linear-gradient-68" x1="2043.29" y1="1472.72" x2="1961.05" y2="1390.48" gradientUnits="userSpaceOnUse"><stop offset="0" stop-color="#2c60ad"/><stop offset="1" stop-color="#6bbfeb"/></linearGradient><linearGradient id="linear-gradient-69" x1="2002.17" y1="1381.71" x2="2002.17" y2="1356.34" xlink:href="#linear-gradient-68"/><linearGradient id="linear-gradient-70" x1="2002.17" y1="1381.71" x2="2002.17" y2="1356.34" gradientUnits="userSpaceOnUse"><stop offset="0" stop-color="#fff"/><stop offset="1" stop-color="#55a5db"/></linearGradient><linearGradient id="linear-gradient-71" x1="2002.17" y1="-4668.05" x2="2002.17" y2="-4712.79" gradientTransform="matrix(1, 0, 0, -1, 0, -3286.34)" xlink:href="#linear-gradient-70"/><linearGradient id="linear-gradient-72" x1="2014.06" y1="1398.52" x2="2031.68" y2="1382.6" xlink:href="#linear-gradient-70"/><linearGradient id="linear-gradient-73" x1="2032.72" y1="1426.28" x2="2055.84" y2="1418.23" xlink:href="#linear-gradient-68"/><linearGradient id="linear-gradient-74" x1="2014.36" y1="1453.43" x2="2021.48" y2="1470.45" xlink:href="#linear-gradient-70"/><linearGradient id="linear-gradient-75" x1="2002.17" y1="1484.78" x2="2002.17" y2="1459.41" xlink:href="#linear-gradient-68"/><linearGradient id="linear-gradient-76" x1="2034.42" y1="1445.71" x2="2048.02" y2="1469.27" xlink:href="#linear-gradient-68"/><linearGradient id="linear-gradient-77" x1="2029.17" y1="1390.45" x2="2038.19" y2="1383.06" xlink:href="#linear-gradient-68"/><linearGradient id="linear-gradient-78" x1="2030.1" y1="1439.82" x2="2043.92" y2="1446.82" gradientUnits="userSpaceOnUse"><stop offset="0" stop-color="#457abd"/><stop offset="1" stop-color="#81d1f5"/></linearGradient><linearGradient id="linear-gradient-79" x1="4867.33" y1="1398.52" x2="4884.94" y2="1382.6" gradientTransform="matrix(-1, 0, 0, 1, 6857.6, 0)" xlink:href="#linear-gradient-78"/><linearGradient id="linear-gradient-80" x1="4885.98" y1="1426.28" x2="4909.1" y2="1418.23" gradientTransform="matrix(-1, 0, 0, 1, 6857.6, 0)" xlink:href="#linear-gradient-70"/><linearGradient id="linear-gradient-81" x1="4867.62" y1="1453.43" x2="4874.75" y2="1470.45" gradientTransform="matrix(-1, 0, 0, 1, 6857.6, 0)" gradientUnits="userSpaceOnUse"><stop offset="0" stop-color="#5dade0"/><stop offset="1" stop-color="#1b449c"/></linearGradient><linearGradient id="linear-gradient-82" x1="4887.68" y1="1445.71" x2="4901.28" y2="1469.27" gradientTransform="matrix(-1, 0, 0, 1, 6857.6, 0)" xlink:href="#linear-gradient-70"/><linearGradient id="linear-gradient-83" x1="4882.43" y1="1390.45" x2="4891.46" y2="1383.06" gradientTransform="matrix(-1, 0, 0, 1, 6857.6, 0)" xlink:href="#linear-gradient-70"/><linearGradient id="linear-gradient-84" x1="4883.36" y1="1439.82" x2="4897.18" y2="1446.82" gradientTransform="matrix(-1, 0, 0, 1, 6857.6, 0)" gradientUnits="userSpaceOnUse"><stop offset="0" stop-color="#55a5db"/><stop offset="1" stop-color="#fff"/></linearGradient><radialGradient id="radial-gradient-2" cx="2086.38" cy="1272.45" r="83.94" gradientTransform="translate(23.86 412.74) scale(0.95 0.76)" gradientUnits="userSpaceOnUse"><stop offset="0" stop-color="#fff"/><stop offset="0.09" stop-color="#e4e6ea"/><stop offset="0.34" stop-color="#9da3b2"/><stop offset="0.56" stop-color="#646e85"/><stop offset="0.76" stop-color="#3b4765"/><stop offset="0.91" stop-color="#223051"/><stop offset="1" stop-color="#19274a"/></radialGradient><linearGradient id="linear-gradient-85" x1="1977.77" y1="985.69" x2="1977.77" y2="940.78" gradientUnits="userSpaceOnUse"><stop offset="0.01" stop-color="#a11d21"/><stop offset="1" stop-color="#ed2224"/></linearGradient><linearGradient id="linear-gradient-86" x1="1977.77" y1="1108.89" x2="1977.77" y2="985.69" gradientUnits="userSpaceOnUse"><stop offset="0" stop-color="#ed1c24"/><stop offset="0.99" stop-color="#981b1e"/></linearGradient><linearGradient id="linear-gradient-87" x1="1977.77" y1="1047.29" x2="2094.47" y2="1047.29" gradientUnits="userSpaceOnUse"><stop offset="0" stop-color="#ed2224"/><stop offset="0.99" stop-color="#f69c9e"/></linearGradient><linearGradient id="linear-gradient-88" x1="1861.08" y1="1047.29" x2="1977.77" y2="1047.29" gradientUnits="userSpaceOnUse"><stop offset="0" stop-color="#ed2224"/><stop offset="0.99" stop-color="#fff"/></linearGradient><linearGradient id="linear-gradient-89" x1="2016.62" y1="985.69" x2="2016.62" y2="940.78" gradientUnits="userSpaceOnUse"><stop offset="0" stop-color="#ed2224"/><stop offset="0.99" stop-color="#fde2e2"/></linearGradient><linearGradient id="linear-gradient-90" x1="1938.93" y1="985.69" x2="1938.93" y2="940.78" xlink:href="#linear-gradient-87"/><radialGradient id="radial-gradient-3" cx="2063.5" cy="589.1" r="108.36" gradientTransform="translate(23.86 505.59) scale(0.95 0.82)" gradientUnits="userSpaceOnUse"><stop offset="0" stop-color="#fff"/><stop offset="0.07" stop-color="#f8ebec"/><stop offset="0.32" stop-color="#e0a4a5"/><stop offset="0.55" stop-color="#cd6b6e"/><stop offset="0.75" stop-color="#c04246"/><stop offset="0.91" stop-color="#b7292d"/><stop offset="1" stop-color="#b42024"/></radialGradient></defs><title>Artboard 4 copy</title><g class="cls-2"><g id="Layer_2" data-name="Layer 2"><g class="cls-3"><path class="cls-4" d="M392.25,2483.3c-52.74-61.12-296-356.24-272.26-792.89,3.09-56.74,35-522.37,368-767.94,135-99.54,196.89-72.55,520-248C1218.2,560.3,1253.24,515.6,1381.71,443.21c98.49-55.49,547.34-313.28,1009.35-200.51,243.81,59.51,416.07,204.66,760.6,495C3293,856.73,3404,950.3,3499,1065.13c352.54,426.45,562.61,1169.68,301.82,1419.12-96.12,91.95-188.38,51.91-1090.26,52.42-136.43.07-97.06,2.53-465,3.83C1878.24,2541.79,1300.35,2532.41,392.25,2483.3Z"/><path class="cls-5" d="M1600.29,1679.33c-5.28,42.11-272,43.09-347.15,43.09-78.33,0-150.6-3.22-208.69-8.65,7.5-1.45,14.32-3,20.41-4.52q-13.65,2-28.22,3.76l7.81.76c-61.75,11.91-169.56,19.81-292.24,19.81-151.1,0-346.69-19.49-347.14-43.08-.12-6.3,13.64-15.07,72.07-26.28a225.41,225.41,0,0,1,26.17-60.17c90.18-144.23,320.31-133.73,349.53-132.4,127.12,5.8,223,59.1,275.34,94.86a895.91,895.91,0,0,1,233,15.37C1458.52,1601.34,1604.26,1647.59,1600.29,1679.33Z"/><path class="cls-6" d="M3493.75,1169.15c-5.28,42.11-272.05,43.08-347.15,43.08-78.33,0-150.61-3.22-208.69-8.65,7.5-1.45,14.32-3,20.41-4.51q-13.65,2-28.23,3.76c2.58.26,5.18.51,7.82.75-61.75,11.92-169.56,19.82-292.24,19.82-151.1,0-346.69-19.49-347.14-43.08-.12-6.3,13.64-15.07,72.07-26.28a225.41,225.41,0,0,1,26.17-60.17c90.18-144.24,320.31-133.74,349.53-132.4,127.12,5.8,223,59.1,275.34,94.85a896,896,0,0,1,233,15.38C3352,1091.16,3497.72,1137.41,3493.75,1169.15Z"/><path class="cls-7" d="M2298.61,1169.15c5.27,42.11,272,43.08,347.14,43.08,78.34,0,150.61-3.22,208.69-8.65-7.5-1.45-14.32-3-20.41-4.51q13.65,2,28.23,3.76c-2.58.26-5.18.51-7.82.75,61.75,11.92,169.56,19.82,292.24,19.82,151.1,0,346.69-19.49,347.14-43.08.12-6.3-13.64-15.07-72.07-26.28a225.41,225.41,0,0,0-26.17-60.17c-90.18-144.24-320.31-133.74-349.53-132.4-127.12,5.8-223,59.1-275.33,94.85a896.06,896.06,0,0,0-233,15.38C2440.38,1091.16,2294.63,1137.41,2298.61,1169.15Z"/><path class="cls-8" d="M912.31,501.86C907.68,557,1071.68,612.12,1146.2,637.17c61.23,20.58,251.44,79.43,548.7,61.27,168-10.26,315.64-21,349.53-105.92,14.49-36.33,4-75.78-9-105.77a225.16,225.16,0,0,0-26.18-60.17c-90.17-144.23-320.31-133.73-349.53-132.4-127.11,5.8-223,59.1-275.33,94.86a895.88,895.88,0,0,0-233,15.37C1082.34,418.22,916.86,447.7,912.31,501.86Z"/><polygon class="cls-9" points="2168.09 2454.37 488.77 2454.37 968.58 2036.63 1190.02 1702.44 1517.59 1471.69 1720.58 1185.25 1983.56 1034.07 1986.47 1056.46 2006.76 1212.61 2006.76 1212.62 2009.8 1236.01 2027.9 1375.36 2028.02 1376.28 2028.52 1380.09 2029.09 1384.48 2031.72 1404.73 2031.9 1406.14 2032.09 1407.61 2032.09 1407.62 2033.84 1421.1 2033.97 1422.08 2033.97 1422.1 2035.81 1436.27 2035.81 1436.28 2036.98 1445.22 2038.04 1453.39 2039.48 1464.51 2040.09 1469.18 2040.59 1473.05 2047.86 1528.99 2049.61 1542.43 2074.77 1736.09 2082.05 1792.13 2082.34 1794.4 2082.44 1795.15 2083.15 1800.6 2105.62 1973.56 2108.39 1994.9 2114.54 2042.18 2114.55 2042.28 2118.23 2070.6 2121.13 2092.94 2121.94 2099.19 2122.61 2104.28 2122.61 2104.29 2123.28 2109.47 2124.04 2115.29 2124.04 2115.3 2131.39 2171.86 2131.39 2171.87 2134.03 2192.2 2139.86 2237.09 2140.92 2245.28 2140.92 2245.29 2143.65 2266.28 2149.05 2307.82 2153.45 2341.66 2168.09 2454.37"/><path class="cls-10" d="M3724.38,2454.37H2168.08c-87.65-39.78-138.4-147.19-138.4-147.19s4.61-99.47-36.91-135.29-13.83-83.53-13.83-83.53l-92.27-270.53L2002,1766.1l-115.34-226.77,32.28-39.78c-50.73-51.73-78.42-131.29-69.2-151.18s36.92-75.6,36.92-75.6v-75.59l-36.92-35.8,133.81-127.31c64.58,47.74,332.16,230.75,332.16,230.75s8.19,25.9,20.39,56.88c19.48,49.54,49.17,112,71.88,102.26,11.68-5,28-6.88,44.78-7.06,36.36-.38,75.18,7.06,75.18,7.06l53.72,98.09,24.7,45.12c66.54,36.89,155.4,102.88,243.38,173.61l.26.21,53.73,43.84.06.05.12.1c147.78,122.23,279.15,243.7,279.15,243.7L3275.34,2164c115.34,39.78,189.14,103.44,216.83,143.23,27.47,39.46,229,145.52,232.17,147.18Z"/><path class="cls-11" d="M1983.56,1034.07l-9.79,8.31-201.89,171.37L1574.1,1494.21l-145,170.55,105.48,107.6-285.68,150.81q5.42,163.15,10.82,326.3,3.39,101.81,6.76,203.62l-522.21.86-255.47.42,479.81-417.74L1190,1702.44l327.57-230.75,203-286.44Z"/><polygon class="cls-12" points="1783 2454.37 2114.48 2325.95 2083.75 2262 2168.08 2144.91 1933.63 1885.45 1910.57 1817.83 2029.13 1778.99 2098.53 1796.21 2168.08 1680.41 2147.62 1599.42 1975.54 1477.94 2117.24 1339.78 1911.33 1102.79 1983.56 1034.07 2244.3 1323.11 2070.28 1468.41 2219.44 1580.37 2244.3 1668.5 2112.4 1804.23 2076.43 1793.33 1983.56 1825.72 2013.65 1875.74 2244.3 2121.09 2132.01 2283.07 2168.08 2335.48 1871.39 2460.67 1783 2454.37"/><polygon class="cls-13" points="2219.44 1580.37 2399.74 1655.98 2455.28 1772.36 2364.4 1676.36 2244.3 1668.5 2219.44 1580.37"/><path class="cls-13" d="M2244.3,1323.1l97.62,13,55,87.49,58.35,56.08v100.7L2337.36,1466.6l-267.08,1.81Z"/><polygon class="cls-14" points="1958.26 1477.94 1918.95 1499.55 1886.67 1539.33 1946.83 1657.61 2028.67 1714.76 2108.09 1751.52 2150.8 1680.41 2130.34 1599.42 1958.26 1477.94"/><path class="cls-13" d="M2282.36,1867.13h83.3l207,84.9,75.73,93.6-1.26,84.9-122.71-110.59h-112a178.19,178.19,0,0,0-87.93-53,195.84,195.84,0,0,0-58.63-5.91q-15.71-31.71-31.4-63.44Z"/><path class="cls-13" d="M2700.16,1627.16c6.05,4.26,213.46,164.61,275.33,218s105.8,120,105.8,120l-133.78-98L2861.68,1841s-5-39.29-12.62-44.68-128.74-24-128.74-24l-103.49-43.3L2528,1424l78.42,143.21Z"/><polygon class="cls-13" points="2711.06 2231.59 2866.73 2258.96 2944.98 2313.38 2995.47 2356.91 3081.29 2460.67 2985.37 2369.97 2896.18 2298.14 2833.91 2274.2 2730.96 2264.32 2711.06 2231.59"/><polygon class="cls-15" points="1493.31 1897.01 1481.58 2055.7 1526.45 1913.72 1493.31 1897.01"/><polygon class="cls-16" points="1515.21 1876.74 1493.31 1897.01 1526.45 1913.72 1515.21 1876.74"/><polygon class="cls-17" points="1519.07 1818.86 1515.21 1876.74 1526.45 1913.72 1564.65 1903.55 1519.07 1818.86"/><polygon class="cls-18" points="1493.31 1897.01 1465.9 1891.8 1519.07 1818.86 1515.21 1876.74 1493.31 1897.01"/><polygon class="cls-19" points="1465.9 1891.8 1438.23 1879.55 1519.07 1818.86 1465.9 1891.8"/><polygon class="cls-20" points="1438.23 1879.55 1409.12 2117.99 1425.1 2133.69 1465.9 1891.8 1438.23 1879.55"/><polygon class="cls-20" points="1564.65 1903.55 1500.27 2170.14 1467.5 2176.6 1484.87 2045.3 1526.45 1913.72 1564.65 1903.55"/><polygon class="cls-18" points="1425.1 2133.69 1467.5 2176.6 1484.87 2045.3 1493.31 1897.01 1465.9 1891.8 1425.1 2133.69"/><path class="cls-19" d="M1450,1998.5c-1.79-4.41-65.92-67.74-65.92-67.74l41.32,82.9Z"/><polygon class="cls-21" points="1425.35 2013.66 1384.03 1930.76 1354.05 2027.44 1425.35 2013.66"/><polygon class="cls-20" points="1425.35 2013.66 1354.05 2027.44 1395.34 2088.79 1425.35 2013.66"/><polygon class="cls-17" points="1354.05 2027.44 1328.42 2017.34 1395.34 2088.79 1354.05 2027.44"/><polygon class="cls-17" points="1425.35 2013.66 1449.95 1998.51 1395.34 2088.79 1425.35 2013.66"/><polygon class="cls-19" points="1384.03 1930.76 1328.42 2017.34 1354.05 2027.44 1384.03 1930.76"/><polygon class="cls-22" points="1520.88 2150.13 1549.24 2039.28 1611.51 2059.21 1520.88 2150.13"/><polygon class="cls-18" points="1549.24 2039.28 1526.69 1979.45 1520.88 2150.13 1549.24 2039.28"/><polygon class="cls-20" points="1611.51 2059.21 1645.56 1900.03 1549.24 2039.28 1611.51 2059.21"/><polygon class="cls-21" points="1645.56 1900.03 1526.69 1979.45 1549.24 2039.28 1645.56 1900.03"/><polygon class="cls-23" points="2822.83 2113.62 2733.95 2162.9 2762.52 2364.08 2800.61 2383.24 2867.27 2370.93 2900.6 2172.72 2822.83 2113.62"/><polygon class="cls-24" points="2822.83 2113.62 2733.95 2162.9 2800.61 2220.38 2833.94 2220.38 2900.6 2172.72 2822.83 2113.62"/><polygon class="cls-25" points="2800.61 2220.38 2800.61 2291.55 2833.94 2220.38 2800.61 2220.38"/><polygon class="cls-26" points="2900.6 2172.72 2860.92 2303.86 2833.94 2220.38 2900.6 2172.72"/><polygon class="cls-24" points="2900.6 2172.72 2867.27 2370.93 2860.92 2303.86 2900.6 2172.72"/><polygon class="cls-27" points="2800.61 2291.55 2800.61 2383.24 2867.27 2370.93 2860.92 2303.86 2833.94 2220.38 2800.61 2291.55"/><polygon class="cls-26" points="2733.95 2162.9 2762.52 2364.08 2800.61 2383.24 2800.61 2220.38 2733.95 2162.9"/><polygon class="cls-25" points="2754.3 2356.15 2767.18 2321.64 2835.62 2368.41 2754.3 2356.15"/><polygon class="cls-27" points="2767.18 2321.64 2713.08 2336.11 2754.3 2356.15 2767.18 2321.64"/><polygon class="cls-27" points="2713.08 2336.11 2678.71 2373.52 2715.34 2398.55 2713.08 2336.11"/><polygon class="cls-26" points="2754.3 2356.15 2715.34 2398.55 2713.08 2336.11 2754.3 2356.15"/><polygon class="cls-26" points="2835.62 2368.41 2780.73 2412.78 2754.3 2356.15 2835.62 2368.41"/><polygon class="cls-25" points="2835.62 2368.41 2807.72 2431.23 2780.73 2412.78 2835.62 2368.41"/><polygon class="cls-27" points="2780.73 2412.78 2723.16 2440.43 2807.72 2431.23 2780.73 2412.78"/><polygon class="cls-25" points="2715.34 2398.55 2723.16 2440.43 2678.71 2373.52 2715.34 2398.55"/><polygon class="cls-26" points="2715.34 2398.55 2780.73 2412.78 2723.16 2440.43 2715.34 2398.55"/><polygon class="cls-24" points="2754.3 2356.15 2780.73 2412.78 2715.34 2398.55 2754.3 2356.15"/><polygon class="cls-25" points="2814.69 2351.63 2918.72 2392.63 2925.72 2366.85 2814.69 2351.63"/><polygon class="cls-27" points="2925.72 2366.85 2918.72 2392.63 2986.51 2319.13 2925.72 2366.85"/><polygon class="cls-27" points="2899.16 2300.91 2878.56 2279.59 2986.51 2319.13 2899.16 2300.91"/><path class="cls-25" d="M2878.56,2279.59c-4.57,2.31-63.87,72-63.87,72l84.47-50.72Z"/><polygon class="cls-28" points="2899.16 2300.91 2814.69 2351.63 2925.72 2366.85 2899.16 2300.91"/><polygon class="cls-26" points="2899.16 2300.91 2925.72 2366.85 2986.51 2319.13 2899.16 2300.91"/><path class="cls-29" d="M3050.11,2454.37H743.34l.9-.42,271.3-126.88,203-23.88,41.16-53.71h0l128.76-168,.79-1,.36-.15,10.88-4.34,3.48-1.39,11-4.39,22.36-8.93,45.19-18,2.54-1,.92-.37h0l39.12-15.62,11-4.39,4.62-1.84,1.07-.43,29.19-11.65,56.33-22.49,11.06-4.42,226.06-251.89,45.2,13.7,1.28.39,5.22,1.58.83.26,1,.3.79.24,14.08,4.27,3.52,1.07,9,2.72,1.47.44,13.28,4,18.81,5.7,16.91,5.13,33.33,10.1,47.31,14.34L2082,1795l.46.14,16.61,5,13.35,4,84.2,25.53,69.2,131.3s23.4-5.51,58.63,5.9h0c16.65,5.4,36,14.57,56.67,29.89,64.59,47.73,124.58,147.2,124.58,147.2l205.34,87.53,19.9,32.73,22.69,37.32,5.79,9.52,41.17,20.28,22,10.87,4.15,2,25.14,12.39,14.66,7.22,1.69.83,51.14,25.2,1.18.58Z"/><path class="cls-30" d="M2473.41,2454.37H743.34l.9-.42,271.3-126.88,203-23.88,41.16-53.71h0l128.76-168,.79-1,.36-.15,10.88-4.34,3.48-1.39,11-4.39,22.36-8.93,45.19-18,2.54-1,.92-.37h0l39.12-15.62,11-4.39,4.62-1.84,1.07-.43,29.19-11.65,56.33-22.49,11.06-4.42,226.06-251.89,24.89,9.86.14,0,16.89,6.69,1.26.5,10,3.93,3.36,1.34,1.65.65,1.78.7,17.92,7.1,3.56,1.41,8.11,3.21,4.61,1.83,4.16,1.64,12.45,4.93-14.74,10.25-3.35,2.33-.25.18-1.57,1.09-1.3.91-5.54,3.85-2.17,1.51-.15.1-2.19,1.53-3.5,2.43-1.61,1.12-12.84,8.93-9.76,6.79-.59.41-5,3.5,9.63,28.22,13.44,39.4,83,107.43-3.38-.15-68-3.09-16.25-.74v67.64l42.3,9.49,114.56,25.69c-5,4.3-53.79,48-41.14,107.76,4.94,23.31,17.52,41,28.74,52.78a132.52,132.52,0,0,0,10.28,9.74c2.66,2.28,5,4.08,6.73,5.39q20.76,37.8,41.52,75.59v-99.46a36.45,36.45,0,0,1,7.85-6.43,41.49,41.49,0,0,1,28.22-6c12.84,1.77,28.71,9.46,47,29.22,50.75,54.87,69.2,94.64,156.86,86.69Z"/><polygon class="cls-31" points="1798.25 2388.66 1517.52 2454.37 743.34 2454.37 744.24 2453.95 1015.54 2327.07 1218.53 2303.19 1259.69 2249.48 1259.69 2249.47 1388.45 2081.44 1389.24 2080.41 1389.6 2080.26 1400.48 2075.92 1403.96 2074.53 1414.96 2070.14 1437.32 2061.21 1482.51 2043.18 1485.05 2042.16 1485.97 2041.79 1485.98 2041.79 1525.1 2026.18 1525.1 2026.17 1536.1 2021.79 1536.1 2021.78 1540.72 2019.94 1533.64 2031.95 1524.37 2047.69 1473.03 2134.83 1468.62 2142.31 1471.89 2143.42 1504.07 2154.4 1657.61 2206.74 1608.38 2286.33 1798.25 2388.66"/><polygon class="cls-32" points="1765.72 2454.37 2097.19 2325.95 2066.47 2262 2150.8 2144.91 1916.35 1885.45 1893.28 1817.83 2011.84 1778.99 2081.25 1796.21 2150.8 1680.41 2130.34 1599.42 1958.26 1477.94 2099.96 1339.78 1901.87 1111.79 1973.77 1042.38 2227.02 1323.11 2053 1468.41 2202.16 1580.37 2227.02 1668.5 2095.11 1804.23 2059.15 1793.33 1966.28 1825.72 1996.37 1875.74 2227.02 2121.09 2114.73 2283.07 2150.8 2335.48 1854.11 2460.67 1765.72 2454.37"/><g class="cls-33"><path class="cls-34" d="M2320.14,2144c0,12.1-111.78,15.83-185.95,11.79-44-2.4-58.55-7.34-58.55-11.79s14.53-9.4,58.55-11.8C2208.36,2128.17,2320.14,2131.9,2320.14,2144Z"/><path class="cls-35" d="M2315.56,2144c0,11.58-107,15.16-178.34,11.32-42.6-2.29-57-7-57-11.32s14.4-9,57-11.32C2208.55,2128.84,2315.56,2132.43,2315.56,2144Z"/><path class="cls-36" d="M2311,2144c0,11-102.25,14.5-170.74,10.84-41.19-2.17-55.45-6.72-55.45-10.84s14.26-8.68,55.45-10.85C2208.74,2129.5,2311,2133,2311,2144Z"/><path class="cls-37" d="M2306.41,2144c0,10.52-97.48,13.83-163.12,10.37-39.79-2.06-53.92-6.41-53.92-10.37s14.13-8.32,53.92-10.38C2208.93,2130.17,2306.41,2133.48,2306.41,2144Z"/><path class="cls-38" d="M2301.83,2144c0,10-92.71,13.17-155.51,9.89-38.38-1.94-52.37-6.09-52.37-9.89s14-8,52.37-9.9C2209.12,2130.84,2301.83,2134,2301.83,2144Z"/><path class="cls-39" d="M2297.26,2144c0,9.46-88,12.5-147.91,9.42-37-1.83-50.83-5.79-50.83-9.42s13.86-7.6,50.83-9.43C2209.31,2131.5,2297.26,2134.54,2297.26,2144Z"/><path class="cls-40" d="M2292.68,2144c0,8.94-83.19,11.83-140.29,8.95-35.57-1.72-49.29-5.48-49.29-8.95s13.72-7.24,49.29-9C2209.49,2132.17,2292.68,2135.07,2292.68,2144Z"/><path class="cls-41" d="M2288.11,2144c0,8.41-78.43,11.17-132.69,8.47-34.15-1.6-47.74-5.17-47.74-8.47s13.59-6.88,47.74-8.48C2209.68,2132.83,2288.11,2135.59,2288.11,2144Z"/><path class="cls-42" d="M2283.53,2144c0,7.88-73.66,10.5-125.08,8-32.74-1.49-46.2-4.86-46.2-8s13.46-6.52,46.2-8C2209.87,2133.5,2283.53,2136.12,2283.53,2144Z"/><path class="cls-43" d="M2279,2144c0,7.35-68.89,9.83-117.46,7.52-31.34-1.37-44.66-4.54-44.66-7.52s13.32-6.16,44.66-7.53C2210.06,2134.17,2279,2136.65,2279,2144Z"/><path class="cls-44" d="M2274.38,2144c0,6.82-64.12,9.07-109.86,7-29.93-1.32-43.12-4.24-43.12-7s13.19-5.8,43.12-7.06C2210.25,2134.83,2274.38,2137.18,2274.38,2144Z"/><path class="cls-45" d="M2269.8,2144c0,6.29-59.36,8.4-102.24,6.58-28.52-1.21-41.58-3.93-41.58-6.58s13.05-5.44,41.58-6.59C2210.44,2135.5,2269.8,2137.71,2269.8,2144Z"/><path class="cls-46" d="M2265.22,2144c0,5.77-54.59,7.73-94.63,6.1-27.11-1.1-40-3.61-40-6.1s12.91-5.09,40-6.11C2210.63,2136.17,2265.22,2138.23,2265.22,2144Z"/><path class="cls-47" d="M2260.65,2144c0,5.24-49.83,7.06-87,5.63-25.7-1-38.49-3.31-38.49-5.63s12.79-4.73,38.49-5.64C2210.82,2136.83,2260.65,2138.76,2260.65,2144Z"/><path class="cls-48" d="M2256.07,2144c0,4.71-45.06,6.39-79.41,5.16-24.3-.88-36.95-3-36.95-5.16s12.65-4.37,36.95-5.17C2211,2137.5,2256.07,2139.29,2256.07,2144Z"/><path class="cls-49" d="M2251.5,2144c0,4.18-40.3,5.73-71.81,4.68-22.89-.76-35.4-2.68-35.4-4.68s12.51-4,35.4-4.69C2211.2,2138.16,2251.5,2139.82,2251.5,2144Z"/><path class="cls-50" d="M2246.92,2144c0,3.65-35.53,5.07-64.2,4.21-21.48-.65-33.86-2.38-33.86-4.21s12.38-3.65,33.86-4.22C2211.39,2138.83,2246.92,2140.35,2246.92,2144Z"/><path class="cls-51" d="M2242.34,2144c0,3.13-30.76,4.41-56.58,3.73-20.08-.52-32.32-2.06-32.32-3.73s12.24-3.29,32.32-3.74C2211.58,2139.5,2242.34,2140.87,2242.34,2144Z"/><path class="cls-52" d="M2237.77,2144c0,2.6-26,3.76-49,3.26-18.66-.4-30.78-1.76-30.78-3.26s12.11-2.93,30.78-3.27C2211.76,2140.16,2237.77,2141.4,2237.77,2144Z"/><path class="cls-53" d="M2233.19,2144c0,2.07-21.23,3.11-41.37,2.79-17.25-.28-29.23-1.45-29.23-2.79s12-2.57,29.23-2.8C2212,2140.83,2233.19,2141.93,2233.19,2144Z"/><path class="cls-54" d="M2228.62,2144c0,1.54-16.48,2.51-33.76,2.31-15.85-.11-27.69-1.13-27.69-2.31s11.84-2.21,27.69-2.32C2212.14,2141.5,2228.62,2142.46,2228.62,2144Z"/><ellipse class="cls-55" cx="2197.89" cy="2144.01" rx="26.15" ry="1.84"/></g><polygon class="cls-56" points="2246.1 2089.27 2217.86 2113.62 2177.92 2113.62 2149.69 2089.27 2149.69 2054.84 2177.92 2030.49 2217.86 2030.49 2246.1 2054.84 2246.1 2089.27"/><polygon class="cls-57" points="2114.45 2101.86 2149.69 2089.27 2149.69 2054.84 2114.45 2042.25 2114.45 2101.86"/><polygon class="cls-58" points="2163.33 2144.01 2177.92 2113.62 2149.69 2089.27 2114.45 2101.86 2163.33 2144.01"/><polygon class="cls-59" points="2232.45 2144.01 2217.86 2113.62 2177.92 2113.62 2163.33 2144.01 2232.45 2144.01"/><polygon class="cls-60" points="2281.33 2101.86 2246.1 2089.27 2217.86 2113.62 2232.45 2144.01 2281.33 2101.86"/><polygon class="cls-61" points="2281.33 2042.25 2246.1 2054.84 2246.1 2089.27 2281.33 2101.86 2281.33 2042.25"/><polygon class="cls-62" points="2232.45 2000.11 2217.86 2030.49 2246.1 2054.84 2281.33 2042.25 2232.45 2000.11"/><polygon class="cls-63" points="2163.33 2000.11 2177.92 2030.49 2217.86 2030.49 2232.45 2000.11 2163.33 2000.11"/><polygon class="cls-64" points="2114.45 2042.25 2149.69 2054.84 2177.92 2030.49 2163.33 2000.11 2114.45 2042.25"/><polygon class="cls-65" points="2197.89 2072.05 2149.69 2089.27 2149.69 2054.84 2197.89 2072.05"/><polygon class="cls-66" points="2197.89 2072.05 2217.86 2113.62 2177.92 2113.62 2197.89 2072.05"/><polygon class="cls-67" points="2197.89 2072.05 2246.1 2054.84 2246.1 2089.27 2197.89 2072.05"/><polygon class="cls-68" points="2197.89 2072.05 2177.92 2030.49 2217.86 2030.49 2197.89 2072.05"/><polygon class="cls-69" points="2277.55 2100.51 2230.89 2140.75 2164.89 2140.75 2118.23 2100.51 2118.23 2043.6 2164.89 2003.36 2230.89 2003.36 2277.55 2043.6 2277.55 2100.51"/><g class="cls-33"><path class="cls-34" d="M2037.85,1847.61c0,10.3-95.09,13.47-158.19,10-37.44-2-49.8-6.25-49.8-10s12.36-8,49.8-10C1942.76,1834.14,2037.85,1837.31,2037.85,1847.61Z"/><path class="cls-35" d="M2034,1847.61c0,9.86-91,12.91-151.72,9.63-36.24-1.94-48.49-6-48.49-9.63s12.25-7.68,48.49-9.63C1942.92,1834.71,2034,1837.76,2034,1847.61Z"/><path class="cls-36" d="M2030.07,1847.61c0,9.41-87,12.34-145.25,9.23-35-1.84-47.18-5.71-47.18-9.23s12.14-7.38,47.18-9.22C1943.08,1835.28,2030.07,1838.21,2030.07,1847.61Z"/><path class="cls-37" d="M2026.17,1847.61c0,9-82.93,11.77-138.77,8.83-33.85-1.75-45.86-5.45-45.86-8.83s12-7.07,45.86-8.82C1943.24,1835.84,2026.17,1838.66,2026.17,1847.61Z"/><path class="cls-38" d="M2022.28,1847.61c0,8.51-78.87,11.21-132.3,8.42-32.65-1.65-44.55-5.18-44.55-8.42s11.9-6.77,44.55-8.42C1943.41,1836.41,2022.28,1839.11,2022.28,1847.61Z"/><path class="cls-39" d="M2018.39,1847.61c0,8.06-74.82,10.64-125.83,8-31.45-1.55-43.24-4.92-43.24-8s11.79-6.46,43.24-8C1943.57,1837,2018.39,1839.56,2018.39,1847.61Z"/><path class="cls-40" d="M2014.5,1847.61c0,7.61-70.77,10.07-119.35,7.62-30.26-1.46-41.93-4.66-41.93-7.62s11.67-6.15,41.93-7.61C1943.73,1837.54,2014.5,1840,2014.5,1847.61Z"/><path class="cls-41" d="M2010.6,1847.61c0,7.16-66.71,9.51-112.87,7.22-29.06-1.36-40.62-4.4-40.62-7.22s11.56-5.85,40.62-7.21C1943.89,1838.11,2010.6,1840.46,2010.6,1847.61Z"/><path class="cls-42" d="M2006.71,1847.61c0,6.71-62.66,8.94-106.4,6.81-27.86-1.26-39.31-4.13-39.31-6.81s11.45-5.54,39.31-6.81C1944.05,1838.68,2006.71,1840.91,2006.71,1847.61Z"/><path class="cls-43" d="M2002.82,1847.61c0,6.26-58.61,8.37-99.93,6.41-26.66-1.17-38-3.87-38-6.41s11.34-5.24,38-6.4C1944.21,1839.24,2002.82,1841.36,2002.82,1847.61Z"/><path class="cls-44" d="M1998.92,1847.61c0,5.81-54.55,7.72-93.45,6-25.46-1.13-36.68-3.61-36.68-6s11.21-4.93,36.68-6C1944.37,1839.81,1998.92,1841.81,1998.92,1847.61Z"/><path class="cls-45" d="M1995,1847.61c0,5.36-50.49,7.15-87,5.6-24.26-1-35.37-3.34-35.37-5.6s11.1-4.62,35.37-5.6C1944.53,1840.38,1995,1842.25,1995,1847.61Z"/><path class="cls-46" d="M1991.14,1847.61c0,4.91-46.44,6.58-80.51,5.2-23.07-.94-34.06-3.08-34.06-5.2s11-4.32,34.06-5.19C1944.69,1840.94,1991.14,1842.7,1991.14,1847.61Z"/><path class="cls-47" d="M1987.24,1847.61c0,4.46-42.38,6-74,4.8-21.87-.84-32.74-2.82-32.74-4.8s10.87-4,32.74-4.79C1944.85,1841.51,1987.24,1843.15,1987.24,1847.61Z"/><path class="cls-48" d="M1983.35,1847.61c0,4-38.33,5.45-67.56,4.39-20.67-.74-31.43-2.55-31.43-4.39s10.76-3.71,31.43-4.39C1945,1842.08,1983.35,1843.6,1983.35,1847.61Z"/><path class="cls-49" d="M1979.46,1847.61c0,3.57-34.28,4.88-61.09,4-19.47-.65-30.12-2.28-30.12-4s10.65-3.4,30.12-4C1945.18,1842.64,1979.46,1844.05,1979.46,1847.61Z"/><path class="cls-50" d="M1975.57,1847.61c0,3.12-30.23,4.32-54.62,3.59-18.27-.55-28.81-2-28.81-3.59s10.54-3.09,28.81-3.58C1945.34,1843.21,1975.57,1844.5,1975.57,1847.61Z"/><path class="cls-51" d="M1971.67,1847.61c0,2.67-26.17,3.76-48.14,3.18-17.07-.44-27.49-1.75-27.49-3.18s10.42-2.79,27.49-3.18C1945.5,1843.78,1971.67,1845,1971.67,1847.61Z"/><path class="cls-52" d="M1967.78,1847.61c0,2.22-22.12,3.21-41.67,2.78-15.88-.34-26.18-1.49-26.18-2.78s10.3-2.48,26.18-2.77C1945.66,1844.34,1967.78,1845.4,1967.78,1847.61Z"/><path class="cls-53" d="M1963.89,1847.61c0,1.77-18.07,2.66-35.2,2.38-14.68-.24-24.87-1.23-24.87-2.38s10.19-2.18,24.87-2.37C1945.82,1844.91,1963.89,1845.85,1963.89,1847.61Z"/><path class="cls-54" d="M1960,1847.61c0,1.32-14,2.14-28.72,2-13.48-.1-23.55-1-23.55-2s10.07-1.87,23.55-2C1946,1845.48,1960,1846.3,1960,1847.61Z"/><ellipse class="cls-55" cx="1933.86" cy="1847.61" rx="22.25" ry="1.57"/></g><path class="cls-70" d="M1901.66,1713.09c-.64,7.22-.78,10.91-6.58,12.55,5.8,1.63,5.94,5.33,6.58,12.55.65-7.22.79-10.92,6.59-12.55C1902.45,1724,1902.31,1720.31,1901.66,1713.09Z"/><path class="cls-71" d="M2011.17,1821.85h0c0-.12-.07-.23-.1-.35s-.14-.48-.22-.71c-16.17-55-68.54-93.45-77-93.45s-60.83,38.45-77,93.44c-.09.24-.16.48-.23.72s-.07.23-.1.35h0a7.5,7.5,0,0,0-.18,1.5c0,12.74,34.7,23.06,77.5,23.06s77.49-10.32,77.49-23.06A7.5,7.5,0,0,0,2011.17,1821.85Z"/><path class="cls-72" d="M1920.14,1719.1c-.33,3.76-.41,5.69-3.43,6.54,3,.85,3.1,2.77,3.43,6.53.33-3.76.41-5.68,3.43-6.53C1920.55,1724.79,1920.47,1722.86,1920.14,1719.1Z"/><ellipse class="cls-73" cx="1953.01" cy="1727.33" rx="5.11" ry="9.73"/><ellipse class="cls-74" cx="1889.38" cy="1747.88" rx="5.11" ry="9.73"/><g class="cls-75"><path class="cls-76" d="M1919.73,1770.83a1.5,1.5,0,1,1-1.46-1.15A1.33,1.33,0,0,1,1919.73,1770.83Z"/></g><g class="cls-75"><ellipse class="cls-76" cx="1917.8" cy="1753.57" rx="1.07" ry="0.77"/></g><g class="cls-75"><path class="cls-76" d="M1901.68,1769.51a1.55,1.55,0,1,1-1.51-1.19A1.38,1.38,0,0,1,1901.68,1769.51Z"/></g><g class="cls-75"><ellipse class="cls-76" cx="1924.42" cy="1744.07" rx="1.29" ry="0.99"/></g><g class="cls-75"><path class="cls-76" d="M1922.18,1739.35a1.39,1.39,0,1,1-1.34-1A1.21,1.21,0,0,1,1922.18,1739.35Z"/></g><g class="cls-75"><path class="cls-76" d="M1936.83,1731.62a2.33,2.33,0,1,1-2.3-2A2.15,2.15,0,0,1,1936.83,1731.62Z"/></g><g class="cls-75"><path class="cls-76" d="M1975.31,1775.83a1.51,1.51,0,1,1-1.47-1.16A1.34,1.34,0,0,1,1975.31,1775.83Z"/></g><g class="cls-75"><ellipse class="cls-76" cx="1980.21" cy="1790.21" rx="1.89" ry="1.57"/></g><g class="cls-75"><path class="cls-76" d="M1945.83,1761.08a2.1,2.1,0,1,1-2.06-1.74A1.92,1.92,0,0,1,1945.83,1761.08Z"/></g><g class="cls-75"><path class="cls-76" d="M1950,1745.76c0,.47-.51.84-1.14.84s-1.14-.37-1.14-.84.51-.83,1.14-.83S1950,1745.3,1950,1745.76Z"/></g><g class="cls-77"><ellipse class="cls-78" cx="1924.29" cy="1759.15" rx="1.91" ry="1.6"/></g><g class="cls-75"><path class="cls-78" d="M1896.2,1779.9a1.64,1.64,0,1,1-1.6-1.28A1.47,1.47,0,0,1,1896.2,1779.9Z"/></g><g class="cls-75"><path class="cls-78" d="M1933.09,1763.24a1.44,1.44,0,1,1-1.4-1.09A1.28,1.28,0,0,1,1933.09,1763.24Z"/></g><g class="cls-75"><path class="cls-78" d="M1904.4,1782.14a1.46,1.46,0,1,1-1.42-1.1A1.29,1.29,0,0,1,1904.4,1782.14Z"/></g><g class="cls-77"><ellipse class="cls-78" cx="1919.49" cy="1750.3" rx="1.96" ry="1.64"/></g><g class="cls-75"><path class="cls-78" d="M1940,1740a2.1,2.1,0,1,1-2.07-1.75A1.93,1.93,0,0,1,1940,1740Z"/></g><g class="cls-75"><path class="cls-78" d="M1948.4,1770.31c0,.36-.43.66-1,.66s-1-.3-1-.66.43-.66,1-.66S1948.4,1770,1948.4,1770.31Z"/></g><g class="cls-77"><ellipse class="cls-78" cx="1946.44" cy="1791.51" rx="1.96" ry="1.64"/></g><g class="cls-75"><path class="cls-78" d="M1980.05,1785.68c0,.49-.53.89-1.19.89s-1.2-.4-1.2-.89.54-.89,1.2-.89S1980.05,1785.19,1980.05,1785.68Z"/></g><g class="cls-75"><path class="cls-78" d="M1963.13,1766.82a2.35,2.35,0,1,1-2.32-2A2.18,2.18,0,0,1,1963.13,1766.82Z"/></g><g class="cls-75"><path class="cls-76" d="M1922.09,1783.9a2.4,2.4,0,1,1-2.37-2.05A2.23,2.23,0,0,1,1922.09,1783.9Z"/></g><g class="cls-75"><path class="cls-76" d="M1905.24,1785.09c0,.48-.53.88-1.18.88s-1.18-.4-1.18-.88.53-.88,1.18-.88S1905.24,1784.61,1905.24,1785.09Z"/></g><g class="cls-75"><path class="cls-76" d="M1936.42,1751.23a2.22,2.22,0,1,1-2.19-1.86A2,2,0,0,1,1936.42,1751.23Z"/></g><g class="cls-75"><path class="cls-76" d="M1909.44,1786.85a1.88,1.88,0,1,1-1.85-1.52A1.71,1.71,0,0,1,1909.44,1786.85Z"/></g><g class="cls-75"><path class="cls-76" d="M1920.18,1777.23a2.4,2.4,0,1,1-2.38-2A2.24,2.24,0,0,1,1920.18,1777.23Z"/></g><g class="cls-75"><path class="cls-76" d="M1952.34,1757.77c0,.42-.47.76-1.06.76s-1.06-.34-1.06-.76.47-.76,1.06-.76S1952.34,1757.35,1952.34,1757.77Z"/></g><g class="cls-75"><path class="cls-76" d="M1968,1775.34c0,.38-.45.7-1,.7s-1-.32-1-.7.45-.7,1-.7S1968,1775,1968,1775.34Z"/></g><g class="cls-75"><ellipse class="cls-76" cx="1946.87" cy="1766.82" rx="1.96" ry="1.64"/></g><g class="cls-75"><path class="cls-76" d="M1960.81,1784.21a2.2,2.2,0,1,1-2.18-1.85A2,2,0,0,1,1960.81,1784.21Z"/></g><g class="cls-75"><path class="cls-76" d="M1996.53,1806.17a2.22,2.22,0,1,1-2.18-1.85A2,2,0,0,1,1996.53,1806.17Z"/></g><g class="cls-75"><path class="cls-79" d="M1914.07,1808.63a2,2,0,1,1-2-1.67A1.85,1.85,0,0,1,1914.07,1808.63Z"/></g><g class="cls-75"><path class="cls-79" d="M1908,1764.33a2.3,2.3,0,1,1-2.27-1.95A2.13,2.13,0,0,1,1908,1764.33Z"/></g><g class="cls-75"><path class="cls-79" d="M1947.25,1755a1.76,1.76,0,1,1-1.72-1.4A1.59,1.59,0,0,1,1947.25,1755Z"/></g><g class="cls-75"><ellipse class="cls-79" cx="1921.28" cy="1806.17" rx="1" ry="0.7"/></g><g class="cls-75"><path class="cls-79" d="M1933.67,1784.23c0,.4-.46.73-1,.73s-1-.33-1-.73.46-.73,1-.73S1933.67,1783.82,1933.67,1784.23Z"/></g><g class="cls-75"><path class="cls-79" d="M1928.56,1760.19a2.07,2.07,0,1,1-2-1.72A1.9,1.9,0,0,1,1928.56,1760.19Z"/></g><g class="cls-75"><path class="cls-79" d="M1928.08,1774.92a2.09,2.09,0,1,1-2.06-1.73A1.92,1.92,0,0,1,1928.08,1774.92Z"/></g><g class="cls-75"><path class="cls-79" d="M1963.57,1785.63a1.61,1.61,0,1,1-1.57-1.26A1.44,1.44,0,0,1,1963.57,1785.63Z"/></g><g class="cls-75"><path class="cls-79" d="M1937.89,1788.2a1.81,1.81,0,1,1-1.78-1.47A1.65,1.65,0,0,1,1937.89,1788.2Z"/></g><g class="cls-75"><ellipse class="cls-79" cx="1957.11" cy="1790.9" rx="1.91" ry="1.59"/></g><g class="cls-75"><ellipse class="cls-76" cx="1879.87" cy="1809.98" rx="1.97" ry="1.65"/></g><g class="cls-75"><ellipse class="cls-76" cx="1937.78" cy="1811.82" rx="2.37" ry="2.04"/></g><g class="cls-75"><ellipse class="cls-76" cx="1908.04" cy="1816.08" rx="1.21" ry="0.91"/></g><g class="cls-75"><path class="cls-76" d="M1942.36,1805.88a1.65,1.65,0,1,1-1.61-1.3A1.48,1.48,0,0,1,1942.36,1805.88Z"/></g><g class="cls-75"><path class="cls-76" d="M1904.2,1791.54a1.46,1.46,0,1,1-1.41-1.1A1.3,1.3,0,0,1,1904.2,1791.54Z"/></g><g class="cls-75"><path class="cls-76" d="M1926.4,1804.16a2,2,0,1,1-2-1.68A1.85,1.85,0,0,1,1926.4,1804.16Z"/></g><g class="cls-75"><path class="cls-76" d="M1949.91,1774.85c0,.54-.58,1-1.28,1s-1.28-.43-1.28-1,.57-1,1.28-1S1949.91,1774.31,1949.91,1774.85Z"/></g><g class="cls-75"><path class="cls-76" d="M1947,1794.13a1.66,1.66,0,1,1-1.63-1.32A1.5,1.5,0,0,1,1947,1794.13Z"/></g><g class="cls-75"><path class="cls-76" d="M1940.13,1816.08c0,.33-.4.6-.9.6s-.9-.27-.9-.6.4-.6.9-.6S1940.13,1815.75,1940.13,1816.08Z"/></g><g class="cls-75"><path class="cls-76" d="M1956.25,1815.61a1.82,1.82,0,1,1-1.78-1.46A1.65,1.65,0,0,1,1956.25,1815.61Z"/></g><g class="cls-75"><path class="cls-79" d="M1890,1815.06a1.73,1.73,0,1,1-1.7-1.38A1.57,1.57,0,0,1,1890,1815.06Z"/></g><g class="cls-75"><ellipse class="cls-79" cx="1900.08" cy="1824.97" rx="1.37" ry="1.06"/></g><g class="cls-75"><ellipse class="cls-79" cx="1929.71" cy="1809.45" rx="1.34" ry="1.03"/></g><g class="cls-75"><path class="cls-79" d="M1928.15,1789a1.78,1.78,0,1,1-1.74-1.42A1.61,1.61,0,0,1,1928.15,1789Z"/></g><g class="cls-75"><path class="cls-79" d="M1955.38,1801.83c0,.29-.37.52-.82.52s-.82-.23-.82-.52.37-.53.82-.53S1955.38,1801.54,1955.38,1801.83Z"/></g><g class="cls-75"><path class="cls-79" d="M1959.63,1806.93a1.78,1.78,0,1,1-1.74-1.43A1.61,1.61,0,0,1,1959.63,1806.93Z"/></g><g class="cls-75"><path class="cls-79" d="M1940.48,1808.87a1.63,1.63,0,1,1-1.59-1.28A1.46,1.46,0,0,1,1940.48,1808.87Z"/></g><g class="cls-75"><path class="cls-79" d="M1946.18,1797.67c0,.41-.47.74-1,.74s-1.05-.33-1.05-.74.47-.74,1.05-.74S1946.18,1797.27,1946.18,1797.67Z"/></g><g class="cls-75"><path class="cls-79" d="M1944.68,1792.17a2.29,2.29,0,1,1-2.27-1.94A2.12,2.12,0,0,1,1944.68,1792.17Z"/></g><g class="cls-75"><path class="cls-79" d="M1958.54,1787a1.7,1.7,0,1,1-1.66-1.34A1.52,1.52,0,0,1,1958.54,1787Z"/></g><g class="cls-75"><path class="cls-78" d="M1920.44,1820.62a1.39,1.39,0,1,1-1.34-1A1.22,1.22,0,0,1,1920.44,1820.62Z"/></g><g class="cls-75"><path class="cls-78" d="M1884.35,1795.18c0,.34-.41.61-.91.61s-.91-.27-.91-.61.41-.61.91-.61S1884.35,1794.84,1884.35,1795.18Z"/></g><g class="cls-75"><ellipse class="cls-78" cx="1898.22" cy="1800.57" rx="2.03" ry="1.71"/></g><g class="cls-75"><path class="cls-78" d="M1948.1,1781.78c0,.34-.41.61-.91.61s-.91-.27-.91-.61.41-.61.91-.61S1948.1,1781.45,1948.1,1781.78Z"/></g><g class="cls-75"><path class="cls-78" d="M1947.33,1803.3a1.73,1.73,0,1,1-1.7-1.39A1.57,1.57,0,0,1,1947.33,1803.3Z"/></g><g class="cls-75"><path class="cls-78" d="M1912.52,1781.18a2.41,2.41,0,1,1-2.38-2A2.24,2.24,0,0,1,1912.52,1781.18Z"/></g><g class="cls-75"><path class="cls-78" d="M1947.29,1815.41c0,.49-.53.88-1.19.88s-1.18-.39-1.18-.88.53-.88,1.18-.88S1947.29,1814.92,1947.29,1815.41Z"/></g><g class="cls-77"><path class="cls-78" d="M1969.23,1818.09a2.29,2.29,0,1,1-2.27-1.94A2.13,2.13,0,0,1,1969.23,1818.09Z"/></g><g class="cls-75"><path class="cls-78" d="M1989.71,1815.23a1.82,1.82,0,1,1-1.79-1.47A1.65,1.65,0,0,1,1989.71,1815.23Z"/></g><g class="cls-77"><path class="cls-78" d="M1948.69,1786.65a1.45,1.45,0,1,1-1.41-1.1A1.28,1.28,0,0,1,1948.69,1786.65Z"/></g><g class="cls-75"><ellipse class="cls-76" cx="1867.33" cy="1817.08" rx="1.61" ry="1.3"/></g><g class="cls-75"><path class="cls-76" d="M1879.41,1822.17a1.55,1.55,0,1,1-1.51-1.2A1.38,1.38,0,0,1,1879.41,1822.17Z"/></g><g class="cls-75"><path class="cls-76" d="M1935.57,1822.21c0,.43-.48.78-1.08.78s-1.09-.35-1.09-.78.49-.79,1.09-.79S1935.57,1821.77,1935.57,1822.21Z"/></g><g class="cls-75"><path class="cls-76" d="M1922.77,1825.25a2.25,2.25,0,1,1-2.23-1.9A2.09,2.09,0,0,1,1922.77,1825.25Z"/></g><g class="cls-75"><path class="cls-76" d="M1898.62,1808.63a1.34,1.34,0,1,1-1.29-1A1.16,1.16,0,0,1,1898.62,1808.63Z"/></g><g class="cls-75"><path class="cls-76" d="M1936.75,1820.12a2.41,2.41,0,1,1-2.38-2A2.24,2.24,0,0,1,1936.75,1820.12Z"/></g><g class="cls-75"><path class="cls-76" d="M1941.7,1821.18c0,.36-.43.66-1,.66s-1-.3-1-.66.43-.66,1-.66S1941.7,1820.82,1941.7,1821.18Z"/></g><g class="cls-75"><path class="cls-76" d="M1947,1823.35c0,.33-.41.6-.91.6s-.9-.27-.9-.6.41-.6.9-.6S1947,1823,1947,1823.35Z"/></g><g class="cls-75"><path class="cls-76" d="M1983,1796.53a2,2,0,1,1-1.94-1.62A1.81,1.81,0,0,1,1983,1796.53Z"/></g><g class="cls-75"><path class="cls-76" d="M1951.73,1785c0,.42-.48.76-1.07.76s-1.06-.34-1.06-.76.48-.76,1.06-.76S1951.73,1784.57,1951.73,1785Z"/></g><g class="cls-75"><path class="cls-78" d="M1897.33,1793.81c0,.39-.45.71-1,.71s-1-.32-1-.71.45-.71,1-.71S1897.33,1793.42,1897.33,1793.81Z"/></g><g class="cls-75"><path class="cls-78" d="M1933.67,1798.94c0,.41-.47.75-1.06.75s-1-.34-1-.75.47-.76,1-.76S1933.67,1798.52,1933.67,1798.94Z"/></g><g class="cls-75"><ellipse class="cls-78" cx="1917.69" cy="1823.66" rx="1.35" ry="1.04"/></g><g class="cls-75"><path class="cls-78" d="M1904.36,1798.26a2.4,2.4,0,1,1-2.37-2A2.23,2.23,0,0,1,1904.36,1798.26Z"/></g><g class="cls-75"><ellipse class="cls-78" cx="1967.04" cy="1812.56" rx="1.05" ry="0.75"/></g><g class="cls-75"><path class="cls-78" d="M1934.53,1799.8c0,.45-.5.81-1.11.81s-1.11-.36-1.11-.81.49-.81,1.11-.81S1934.53,1799.36,1934.53,1799.8Z"/></g><g class="cls-77"><path class="cls-78" d="M1977.82,1823.91a2.08,2.08,0,1,1-2.06-1.74A1.92,1.92,0,0,1,1977.82,1823.91Z"/></g><g class="cls-75"><path class="cls-78" d="M1985.66,1819.64c0,.5-.54.9-1.21.9s-1.21-.4-1.21-.9.54-.9,1.21-.9S1985.66,1819.14,1985.66,1819.64Z"/></g><g class="cls-75"><path class="cls-78" d="M1954,1822.29c0,.45-.5.82-1.12.82s-1.12-.37-1.12-.82.5-.82,1.12-.82S1954,1821.84,1954,1822.29Z"/></g><g class="cls-75"><ellipse class="cls-78" cx="1999.85" cy="1816.15" rx="2.3" ry="1.97"/></g><g class="cls-80"><path class="cls-81" d="M1887.88,1779.13a1.27,1.27,0,1,1-1.23-1A1.12,1.12,0,0,1,1887.88,1779.13Z"/></g><g class="cls-80"><path class="cls-81" d="M1902.08,1762.74c0,.24-.28.44-.63.44s-.62-.2-.62-.44.28-.43.62-.43S1902.08,1762.5,1902.08,1762.74Z"/></g><g class="cls-80"><ellipse class="cls-81" cx="1907.24" cy="1794.45" rx="0.7" ry="0.53"/></g><g class="cls-80"><path class="cls-81" d="M1905.5,1759.44a1.17,1.17,0,1,1-1.15-.94A1.06,1.06,0,0,1,1905.5,1759.44Z"/></g><g class="cls-80"><path class="cls-81" d="M1931.5,1810.45a1.19,1.19,0,1,1-1.16-1A1.07,1.07,0,0,1,1931.5,1810.45Z"/></g><g class="cls-80"><path class="cls-82" d="M1948.64,1804a1.15,1.15,0,1,1-1.13-.92A1,1,0,0,1,1948.64,1804Z"/></g><g class="cls-80"><ellipse class="cls-82" cx="1880.96" cy="1788.14" rx="1.15" ry="0.91"/></g><g class="cls-80"><path class="cls-82" d="M1920.74,1737.36a1,1,0,1,1-1-.75A.89.89,0,0,1,1920.74,1737.36Z"/></g><g class="cls-80"><ellipse class="cls-82" cx="1916.36" cy="1756.22" rx="0.84" ry="0.64"/></g><g class="cls-80"><ellipse class="cls-82" cx="1930.51" cy="1742.88" rx="1.62" ry="1.35"/></g><g class="cls-80"><path class="cls-82" d="M1942.86,1754.25c0,.15-.19.28-.43.28s-.43-.13-.43-.28.19-.28.43-.28S1942.86,1754.09,1942.86,1754.25Z"/></g><g class="cls-80"><path class="cls-82" d="M1933.91,1810a1.14,1.14,0,1,1-1.12-.91A1,1,0,0,1,1933.91,1810Z"/></g><g class="cls-80"><path class="cls-82" d="M1930.38,1791.4c0,.41-.45.74-1,.74s-1-.33-1-.74.44-.75,1-.75S1930.38,1791,1930.38,1791.4Z"/></g><g class="cls-80"><path class="cls-81" d="M1885.67,1793.31a1.39,1.39,0,1,1-1.37-1.14A1.27,1.27,0,0,1,1885.67,1793.31Z"/></g><g class="cls-80"><path class="cls-81" d="M1896.94,1791.36c0,.22-.25.4-.57.4s-.57-.18-.57-.4.25-.41.57-.41S1896.94,1791.14,1896.94,1791.36Z"/></g><g class="cls-80"><path class="cls-81" d="M1905.33,1796.64a1.69,1.69,0,1,1-1.66-1.41A1.55,1.55,0,0,1,1905.33,1796.64Z"/></g><g class="cls-80"><path class="cls-81" d="M1922.69,1790c0,.22-.26.39-.58.39s-.59-.17-.59-.39.26-.4.59-.4S1922.69,1789.8,1922.69,1790Z"/></g><g class="cls-80"><path class="cls-81" d="M1966.53,1810.94a1.63,1.63,0,1,1-1.6-1.33A1.48,1.48,0,0,1,1966.53,1810.94Z"/></g><g class="cls-80"><path class="cls-81" d="M1940.24,1760.87a1.72,1.72,0,1,1-1.69-1.44A1.58,1.58,0,0,1,1940.24,1760.87Z"/></g><g class="cls-80"><path class="cls-81" d="M1946.76,1770.64a1.24,1.24,0,1,1-1.21-1A1.12,1.12,0,0,1,1946.76,1770.64Z"/></g><g class="cls-80"><path class="cls-83" d="M1934.62,1784.48a1.11,1.11,0,1,1-1.08-.87A1,1,0,0,1,1934.62,1784.48Z"/></g><g class="cls-80"><path class="cls-83" d="M1931.91,1767.46a1.17,1.17,0,1,1-1.15-.94A1.06,1.06,0,0,1,1931.91,1767.46Z"/></g><g class="cls-80"><path class="cls-83" d="M1940.4,1797a1.49,1.49,0,1,1-1.46-1.2A1.34,1.34,0,0,1,1940.4,1797Z"/></g><g class="cls-80"><path class="cls-83" d="M1895.69,1777.08c0,.16-.2.29-.44.29s-.44-.13-.44-.29.2-.28.44-.28S1895.69,1776.92,1895.69,1777.08Z"/></g><g class="cls-80"><ellipse class="cls-83" cx="1945.16" cy="1809.02" rx="0.86" ry="0.61"/></g><g class="cls-80"><path class="cls-83" d="M1922.24,1774.43a1,1,0,1,1-.93-.74A.85.85,0,0,1,1922.24,1774.43Z"/></g><g class="cls-80"><path class="cls-83" d="M1906.33,1771.79a.94.94,0,1,1-.92-.73A.84.84,0,0,1,1906.33,1771.79Z"/></g><g class="cls-80"><path class="cls-83" d="M1939.54,1781.93c0,.29-.31.52-.69.52s-.7-.23-.7-.52.31-.52.7-.52S1939.54,1781.64,1939.54,1781.93Z"/></g><g class="cls-80"><path class="cls-83" d="M1902.65,1793.78a1.3,1.3,0,1,1-1.27-1A1.18,1.18,0,0,1,1902.65,1793.78Z"/></g><g class="cls-80"><ellipse class="cls-81" cx="1905.14" cy="1806.26" rx="1.25" ry="1.03"/></g><g class="cls-80"><ellipse class="cls-81" cx="1897.05" cy="1813.49" rx="1.81" ry="1.54"/></g><g class="cls-80"><ellipse class="cls-81" cx="1897.24" cy="1805.1" rx="0.96" ry="0.72"/></g><g class="cls-80"><path class="cls-81" d="M1938.36,1792.11a1,1,0,1,1-1-.76A.88.88,0,0,1,1938.36,1792.11Z"/></g><g class="cls-80"><path class="cls-81" d="M1910.06,1814.64a1,1,0,1,1-1-.73A.86.86,0,0,1,1910.06,1814.64Z"/></g><g class="cls-80"><ellipse class="cls-81" cx="1900.76" cy="1777.13" rx="0.65" ry="0.47"/></g><g class="cls-80"><path class="cls-81" d="M1961.58,1802.42a1.07,1.07,0,1,1-1-.83A1,1,0,0,1,1961.58,1802.42Z"/></g><g class="cls-80"><path class="cls-81" d="M1942.28,1800.23c0,.21-.26.39-.58.39s-.58-.18-.58-.39.26-.38.58-.38S1942.28,1800,1942.28,1800.23Z"/></g><g class="cls-80"><path class="cls-81" d="M1914.63,1801.35a.85.85,0,1,1-.82-.65A.75.75,0,0,1,1914.63,1801.35Z"/></g><g class="cls-80"><ellipse class="cls-83" cx="1875.94" cy="1792.18" rx="0.99" ry="0.78"/></g><g class="cls-80"><path class="cls-83" d="M1883.14,1813.11a1,1,0,1,1-.93-.71A.84.84,0,0,1,1883.14,1813.11Z"/></g><g class="cls-80"><path class="cls-83" d="M1959.32,1796.67c0,.31-.34.56-.75.56s-.75-.25-.75-.56.33-.56.75-.56S1959.32,1796.36,1959.32,1796.67Z"/></g><g class="cls-80"><path class="cls-83" d="M1919.38,1744.67a1.27,1.27,0,1,1-1.25-1A1.15,1.15,0,0,1,1919.38,1744.67Z"/></g><g class="cls-80"><path class="cls-83" d="M1924.66,1817.1c0,.17-.22.31-.5.31s-.51-.14-.51-.31.23-.31.51-.31S1924.66,1816.93,1924.66,1817.1Z"/></g><g class="cls-80"><path class="cls-83" d="M1943.51,1781a.89.89,0,0,1-1.72,0,.88.88,0,0,1,1.72,0Z"/></g><g class="cls-80"><ellipse class="cls-83" cx="1881.86" cy="1808.28" rx="1.2" ry="0.96"/></g><g class="cls-80"><path class="cls-83" d="M1900,1787.18c0,.22-.26.4-.59.4s-.59-.18-.59-.4.26-.41.59-.41S1900,1787,1900,1787.18Z"/></g><g class="cls-80"><path class="cls-83" d="M1918,1745.21a1.05,1.05,0,1,1-1-.83A.94.94,0,0,1,1918,1745.21Z"/></g><g class="cls-80"><path class="cls-83" d="M1957.64,1814a.72.72,0,0,1-.8.62c-.45,0-.8-.27-.8-.62s.35-.61.8-.61A.72.72,0,0,1,1957.64,1814Z"/></g><g class="cls-80"><path class="cls-82" d="M1887.75,1806.18c0,.35-.38.63-.84.63s-.83-.28-.83-.63.37-.62.83-.62S1887.75,1805.84,1887.75,1806.18Z"/></g><g class="cls-80"><path class="cls-82" d="M1872.8,1814.32c0,.19-.24.35-.54.35s-.54-.16-.54-.35.24-.36.54-.36S1872.8,1814.12,1872.8,1814.32Z"/></g><g class="cls-80"><ellipse class="cls-82" cx="1923.51" cy="1752.33" rx="1.01" ry="0.81"/></g><g class="cls-80"><ellipse class="cls-82" cx="1899.77" cy="1814.27" rx="0.66" ry="0.44"/></g><g class="cls-80"><path class="cls-82" d="M1916.33,1813.48a1.17,1.17,0,1,1-1.14-.92A1,1,0,0,1,1916.33,1813.48Z"/></g><g class="cls-80"><path class="cls-82" d="M1894.78,1797a2,2,0,1,1-2-1.69A1.85,1.85,0,0,1,1894.78,1797Z"/></g><g class="cls-80"><ellipse class="cls-82" cx="1926.45" cy="1762.96" rx="0.78" ry="0.57"/></g><g class="cls-80"><ellipse class="cls-82" cx="1945.51" cy="1798.13" rx="1.87" ry="1.6"/></g><g class="cls-80"><path class="cls-82" d="M1953.89,1807.19a1.13,1.13,0,1,1-1.09-.84A1,1,0,0,1,1953.89,1807.19Z"/></g><g class="cls-80"><path class="cls-81" d="M1905.66,1787a1.28,1.28,0,1,1-1.25-1A1.14,1.14,0,0,1,1905.66,1787Z"/></g><g class="cls-80"><path class="cls-81" d="M1888.29,1807.12c0,.27-.31.49-.7.49s-.7-.22-.7-.49.32-.5.7-.5S1888.29,1806.84,1888.29,1807.12Z"/></g><g class="cls-80"><path class="cls-81" d="M1957.84,1796.56a1.19,1.19,0,1,1-1.17-1A1.08,1.08,0,0,1,1957.84,1796.56Z"/></g><g class="cls-80"><path class="cls-81" d="M1895.78,1803.34c0,.42-.44.75-1,.75s-1-.33-1-.75.44-.74,1-.74S1895.78,1802.93,1895.78,1803.34Z"/></g><g class="cls-80"><path class="cls-81" d="M1906.54,1815.63a2,2,0,1,1-2-1.73A1.87,1.87,0,0,1,1906.54,1815.63Z"/></g><g class="cls-80"><path class="cls-81" d="M1933,1820.17c0,.25-.3.45-.68.45s-.67-.2-.67-.45.3-.46.67-.46S1933,1819.92,1933,1820.17Z"/></g><g class="cls-80"><path class="cls-81" d="M1900.48,1769.75c0,.19-.25.35-.55.35s-.55-.16-.55-.35.25-.36.55-.36S1900.48,1769.55,1900.48,1769.75Z"/></g><g class="cls-80"><path class="cls-81" d="M1970,1792.65a1.53,1.53,0,1,1-1.5-1.25A1.39,1.39,0,0,1,1970,1792.65Z"/></g><g class="cls-80"><path class="cls-81" d="M1925,1792.54c0,.32-.37.59-.82.59s-.83-.27-.83-.59.37-.59.83-.59S1925,1792.22,1925,1792.54Z"/></g><g class="cls-80"><path class="cls-82" d="M1919,1795.82c0,.25-.3.46-.66.46s-.66-.21-.66-.46.29-.45.66-.45S1919,1795.57,1919,1795.82Z"/></g><g class="cls-80"><ellipse class="cls-82" cx="1904.81" cy="1790.42" rx="0.63" ry="0.43"/></g><g class="cls-80"><path class="cls-82" d="M1943.87,1773.24c0,.26-.29.47-.65.47s-.65-.21-.65-.47.29-.48.65-.48S1943.87,1773,1943.87,1773.24Z"/></g><g class="cls-80"><ellipse class="cls-82" cx="1915.05" cy="1801.35" rx="1.86" ry="1.59"/></g><g class="cls-80"><ellipse class="cls-82" cx="1926.54" cy="1818.2" rx="0.8" ry="0.56"/></g><g class="cls-80"><path class="cls-82" d="M1922.1,1755.52c0,.32-.36.58-.8.58s-.8-.26-.8-.58.36-.57.8-.57S1922.1,1755.21,1922.1,1755.52Z"/></g><g class="cls-80"><path class="cls-82" d="M1931.14,1798.34c0,.35-.39.63-.87.63s-.88-.28-.88-.63.39-.64.88-.64S1931.14,1798,1931.14,1798.34Z"/></g><g class="cls-80"><path class="cls-82" d="M1923.22,1767.81a1.76,1.76,0,1,1-1.74-1.48A1.63,1.63,0,0,1,1923.22,1767.81Z"/></g><path class="cls-84" d="M1869.31,1795.81c26.16-46.21,58.19-67,63.58-67,3.07,0,15.78,7.16,31.61,23.67C1945.38,1778.94,1909.15,1795.45,1869.31,1795.81Z"/><g class="cls-33"><path class="cls-34" d="M2304.11,1728.24c0,11.37-105,14.88-174.74,11.08-41.36-2.25-55-6.9-55-11.08s13.65-8.83,55-11.09C2199.07,1713.36,2304.11,1716.86,2304.11,1728.24Z"/><path class="cls-35" d="M2299.81,1728.24c0,10.88-100.56,14.25-167.59,10.63-40-2.14-53.56-6.6-53.56-10.63s13.53-8.5,53.56-10.64C2199.25,1714,2299.81,1717.35,2299.81,1728.24Z"/><path class="cls-36" d="M2295.51,1728.24c0,10.38-96.08,13.62-160.44,10.19-38.71-2-52.11-6.32-52.11-10.19s13.4-8.16,52.11-10.2C2199.43,1714.61,2295.51,1717.85,2295.51,1728.24Z"/><path class="cls-37" d="M2291.21,1728.24c0,9.89-91.6,13-153.29,9.74-37.38-1.93-50.66-6-50.66-9.74s13.28-7.82,50.66-9.75C2199.61,1715.23,2291.21,1718.35,2291.21,1728.24Z"/><path class="cls-38" d="M2286.91,1728.24c0,9.39-87.13,12.37-146.14,9.3-36.06-1.83-49.21-5.73-49.21-9.3s13.15-7.48,49.21-9.31C2199.78,1715.86,2286.91,1718.84,2286.91,1728.24Z"/><path class="cls-39" d="M2282.61,1728.24c0,8.89-82.65,11.75-139,8.85-34.74-1.71-47.76-5.44-47.76-8.85s13-7.14,47.76-8.86C2200,1716.49,2282.61,1719.34,2282.61,1728.24Z"/><path class="cls-40" d="M2278.31,1728.24c0,8.4-78.17,11.12-131.83,8.41-33.42-1.61-46.32-5.15-46.32-8.41s12.9-6.81,46.32-8.42C2200.14,1717.11,2278.31,1719.84,2278.31,1728.24Z"/><path class="cls-41" d="M2274,1728.24c0,7.9-73.69,10.49-124.68,8-32.1-1.5-44.87-4.85-44.87-8s12.77-6.47,44.87-8C2200.32,1717.74,2274,1720.33,2274,1728.24Z"/><path class="cls-42" d="M2269.71,1728.24c0,7.4-69.22,9.87-117.53,7.52-30.78-1.4-43.42-4.57-43.42-7.52s12.64-6.13,43.42-7.52C2200.49,1718.36,2269.71,1720.83,2269.71,1728.24Z"/><path class="cls-43" d="M2265.41,1728.24c0,6.91-64.74,9.24-110.38,7.07-29.45-1.29-42-4.27-42-7.07s12.52-5.79,42-7.08C2200.67,1719,2265.41,1721.32,2265.41,1728.24Z"/><path class="cls-44" d="M2261.11,1728.24c0,6.41-60.26,8.52-103.23,6.63-28.13-1.24-40.52-4-40.52-6.63s12.39-5.45,40.52-6.63C2200.85,1719.62,2261.11,1721.82,2261.11,1728.24Z"/><path class="cls-45" d="M2256.81,1728.24c0,5.92-55.78,7.89-96.08,6.18-26.8-1.14-39.07-3.69-39.07-6.18s12.27-5.12,39.07-6.19C2201,1720.24,2256.81,1722.32,2256.81,1728.24Z"/><path class="cls-46" d="M2252.51,1728.24c0,5.42-51.3,7.26-88.93,5.74-25.48-1-37.62-3.4-37.62-5.74s12.14-4.78,37.62-5.74C2201.21,1720.87,2252.51,1722.81,2252.51,1728.24Z"/><path class="cls-47" d="M2248.21,1728.24c0,4.92-46.82,6.64-81.78,5.29-24.15-.93-36.17-3.11-36.17-5.29s12-4.44,36.17-5.3C2201.38,1721.49,2248.21,1723.31,2248.21,1728.24Z"/><path class="cls-48" d="M2243.91,1728.24c0,4.43-42.35,6-74.63,4.85-22.83-.83-34.72-2.82-34.72-4.85s11.89-4.1,34.72-4.85C2201.56,1722.12,2243.91,1723.81,2243.91,1728.24Z"/><path class="cls-49" d="M2239.61,1728.24c0,3.93-37.87,5.39-67.48,4.4-21.51-.72-33.27-2.52-33.27-4.4s11.76-3.76,33.27-4.41C2201.74,1722.75,2239.61,1724.3,2239.61,1728.24Z"/><path class="cls-50" d="M2235.31,1728.24c0,3.43-33.39,4.77-60.33,4-20.18-.6-31.82-2.23-31.82-4s11.63-3.43,31.82-4C2201.92,1723.37,2235.31,1724.8,2235.31,1728.24Z"/><path class="cls-51" d="M2231,1728.24c0,2.94-28.91,4.15-53.18,3.51-18.86-.5-30.37-1.94-30.37-3.51s11.51-3.09,30.37-3.52C2202.09,1724,2231,1725.29,2231,1728.24Z"/><path class="cls-52" d="M2226.71,1728.24c0,2.44-24.44,3.53-46,3.06-17.54-.38-28.92-1.65-28.92-3.06s11.38-2.75,28.92-3.07C2202.27,1724.62,2226.71,1725.79,2226.71,1728.24Z"/><path class="cls-53" d="M2222.41,1728.24c0,2-20,2.93-38.88,2.62-16.21-.26-27.47-1.36-27.47-2.62s11.26-2.41,27.47-2.63C2202.45,1725.25,2222.41,1726.29,2222.41,1728.24Z"/><path class="cls-54" d="M2218.11,1728.24c0,1.45-15.48,2.35-31.73,2.17-14.89-.1-26-1.06-26-2.17s11.13-2.07,26-2.18C2202.63,1725.88,2218.11,1726.78,2218.11,1728.24Z"/><ellipse class="cls-55" cx="2189.23" cy="1728.24" rx="24.57" ry="1.73"/></g><path class="cls-85" d="M2227.81,1605.46c-.61,6.8-.74,10.27-6.2,11.81,5.46,1.54,5.59,5,6.2,11.81.6-6.79.74-10.27,6.2-11.81C2228.55,1615.73,2228.41,1612.26,2227.81,1605.46Z"/><path class="cls-86" d="M2178.14,1606.61c-.32,3.54-.39,5.35-3.23,6.15,2.84.8,2.91,2.61,3.23,6.15.31-3.54.38-5.35,3.23-6.15C2178.52,1612,2178.45,1610.15,2178.14,1606.61Z"/><path class="cls-87" d="M2243.4,1632.91c-.31,3.54-.39,5.35-3.23,6.15,2.84.8,2.92,2.61,3.23,6.15.31-3.54.39-5.35,3.23-6.15C2243.79,1638.26,2243.71,1636.45,2243.4,1632.91Z"/><path class="cls-88" d="M2158.31,1614.17c-.47,5.27-.57,8-4.81,9.16,4.24,1.19,4.34,3.88,4.81,9.16.47-5.28.58-8,4.81-9.16C2158.89,1622.13,2158.78,1619.44,2158.31,1614.17Z"/><path class="cls-89" d="M2187.6,1687.54a.75.75,0,0,0,.41-.85l-5.31-22.93a1.51,1.51,0,0,0-1.17-1.15l-23.61-5.06a1.4,1.4,0,0,0-.88.11l-41.17,21c-.15,0-.3.09-.37.29l-7.53,23,0,.49.29.27,35.79,6.62a1.93,1.93,0,0,0,1.22-.2Z"/><polygon class="cls-90" points="2140.82 1683.92 2182.1 1663.6 2187.5 1686.98 2145.11 1708.6 2140.82 1683.92"/><polygon class="cls-91" points="2108.54 1702.17 2108.51 1702.15 2108.51 1702.02 2115.95 1679.22 2140.11 1684.16 2144.56 1708.85 2108.54 1702.17"/><path class="cls-92" d="M2112.15,1690.89l3.77-11.55,24.16,4.93,2.77,15.2C2127.63,1701.11,2123.72,1690.05,2112.15,1690.89Z"/><polygon class="cls-93" points="2117.54 1678.37 2157.53 1658.04 2180.75 1663.01 2140.16 1683 2117.54 1678.37"/><path class="cls-94" d="M2182.1,1663.6l-41.28,20.32,2.65,15.33c17.67-5.69,22.24-22.11,39.72-30.87Z"/><path class="cls-95" d="M2227.91,1694.76a.68.68,0,0,0,.4-.82l-6.07-22.19a1.58,1.58,0,0,0-1.23-1.11l-24.6-4.91a1.49,1.49,0,0,0-.91.1l-42.19,20.39c-.16,0-.31.09-.38.29l-7.31,22.47,0,.47.31.27,37.28,6.3a2.07,2.07,0,0,0,1.25-.19Z"/><polygon class="cls-96" points="2179.29 1691.34 2221.62 1671.6 2227.8 1694.21 2184.3 1715.3 2179.29 1691.34"/><polygon class="cls-97" points="2146.21 1709.18 2146.18 1709.16 2146.17 1709.04 2153.4 1686.81 2178.56 1691.57 2183.73 1715.54 2146.21 1709.18"/><path class="cls-98" d="M2149.71,1698.18l3.66-11.26,25.16,4.76,3.22,14.76C2166,1708.09,2161.69,1697.34,2149.71,1698.18Z"/><polygon class="cls-99" points="2155.03 1685.98 2196.02 1666.2 2220.21 1671.03 2178.58 1690.45 2155.03 1685.98"/><path class="cls-100" d="M2221.62,1671.6l-42.33,19.73,3.09,14.89c18.21-5.57,22.56-21.5,40.49-30Z"/><path class="cls-101" d="M2270.07,1701.86a.64.64,0,0,0,.39-.79l-6.88-21.36a1.64,1.64,0,0,0-1.31-1.07l-25.65-4.74a1.67,1.67,0,0,0-.94.1l-43.29,19.79a.37.37,0,0,0-.39.28l-7.07,21.84,0,.46.33.26,38.87,5.94a2.3,2.3,0,0,0,1.3-.2Z"/><polygon class="cls-102" points="2219.47 1698.69 2262.93 1679.57 2269.93 1701.33 2225.26 1721.87 2219.47 1698.69"/><polygon class="cls-103" points="2185.54 1716.11 2185.52 1716.08 2185.51 1715.96 2192.5 1694.37 2218.72 1698.92 2224.68 1722.1 2185.54 1716.11"/><path class="cls-104" d="M2188.93,1705.41l3.54-10.94,26.22,4.55,3.7,14.28C2206.06,1715,2201.35,1704.55,2188.93,1705.41Z"/><polygon class="cls-105" points="2194.16 1693.55 2236.23 1674.36 2261.45 1679.01 2218.72 1697.83 2194.16 1693.55"/><path class="cls-106" d="M2262.93,1679.57l-43.45,19.12,3.57,14.4c18.78-5.46,22.9-20.86,41.3-29.07Z"/><path class="cls-107" d="M2209.17,1667.86a.71.71,0,0,0,.4-.83l-5.67-22.56a1.59,1.59,0,0,0-1.19-1.14l-23.79-5.46a1.36,1.36,0,0,0-.89.09l-41.1,19.78c-.15,0-.3.08-.36.28l-7.29,22.54,0,.48.29.27,36.1,7.11a1.91,1.91,0,0,0,1.22-.17Z"/><polygon class="cls-108" points="2162.09 1663.4 2203.3 1644.31 2209.06 1667.3 2166.73 1687.72 2162.09 1663.4"/><polygon class="cls-109" points="2129.84 1680.78 2129.82 1680.75 2129.81 1680.63 2137.02 1658.34 2161.38 1663.63 2166.17 1687.94 2129.84 1680.78"/><path class="cls-110" d="M2133.34,1669.74l3.65-11.29,24.36,5.28,3,15C2149,1680.06,2145,1669.12,2133.34,1669.74Z"/><polygon class="cls-111" points="2138.6 1657.53 2178.54 1638.34 2201.93 1643.7 2161.4 1662.49 2138.6 1657.53"/><path class="cls-112" d="M2203.3,1644.31l-41.21,19.09,2.86,15.1c17.7-5.26,22.06-21.27,39.51-29.49Z"/><path class="cls-113" d="M2249.81,1675.72a.66.66,0,0,0,.39-.79l-6.45-21.78a1.66,1.66,0,0,0-1.26-1.11l-24.78-5.34a1.51,1.51,0,0,0-.92.08l-42.12,19.12a.35.35,0,0,0-.38.27l-7.05,21.92,0,.46.31.27,37.6,6.84a2.18,2.18,0,0,0,1.26-.17Z"/><polygon class="cls-114" points="2200.87 1671.41 2243.12 1652.99 2249.68 1675.18 2206.25 1694.97 2200.87 1671.41"/><polygon class="cls-115" points="2167.83 1688.3 2167.81 1688.28 2167.8 1688.16 2174.77 1666.48 2200.13 1671.62 2205.68 1695.19 2167.83 1688.3"/><path class="cls-116" d="M2171.21,1677.57l3.53-11,25.37,5.14,3.45,14.52C2187.72,1687.57,2183.26,1677,2171.21,1677.57Z"/><polygon class="cls-117" points="2176.39 1665.69 2217.32 1647.15 2241.69 1652.39 2200.14 1670.52 2176.39 1665.69"/><path class="cls-118" d="M2243.12,1653l-42.25,18.42,3.32,14.63c18.23-5.11,22.37-20.6,40.26-28.51Z"/><path class="cls-119" d="M2230.41,1649a.65.65,0,0,0,.38-.8l-6-22.18a1.66,1.66,0,0,0-1.21-1.15l-21.17-2.31a1.35,1.35,0,0,0-.89.06l-43.79,14.94c-.15,0-.3.08-.36.28l-7,22,0,.46.3.28,36.38,7.65a1.89,1.89,0,0,0,1.22-.14Z"/><polygon class="cls-120" points="2183.05 1643.67 2224.16 1625.89 2230.29 1648.49 2188.04 1667.6 2183.05 1643.67"/><polygon class="cls-121" points="2150.87 1660.1 2150.84 1660.08 2150.84 1659.95 2157.8 1638.19 2182.33 1643.88 2187.49 1667.81 2150.87 1660.1"/><path class="cls-122" d="M2154.24,1649.32l3.53-11,24.54,5.68,3.2,14.75C2170.16,1659.75,2165.93,1648.94,2154.24,1649.32Z"/><polygon class="cls-123" points="2159.38 1637.43 2202 1623.05 2222.78 1625.26 2182.35 1642.77 2159.38 1637.43"/><path class="cls-124" d="M2224.16,1625.89l-41.11,17.78,3.08,14.87c17.71-4.8,21.87-20.38,39.26-28Z"/><g class="cls-33"><path class="cls-34" d="M2109.07,1484.09c0,10.59-97.75,13.85-162.61,10.31-38.49-2.09-51.19-6.41-51.19-10.31s12.7-8.21,51.19-10.31C2011.32,1470.25,2109.07,1473.5,2109.07,1484.09Z"/><path class="cls-35" d="M2105.06,1484.09c0,10.13-93.57,13.27-156,9.9-37.25-2-49.84-6.15-49.84-9.9s12.59-7.9,49.84-9.9C2011.49,1470.83,2105.06,1474,2105.06,1484.09Z"/><path class="cls-36" d="M2101.06,1484.09c0,9.67-89.41,12.68-149.29,9.49-36-1.9-48.5-5.88-48.5-9.49s12.47-7.59,48.5-9.48C2011.65,1471.41,2101.06,1474.43,2101.06,1484.09Z"/><path class="cls-37" d="M2097.06,1484.09c0,9.2-85.24,12.1-142.64,9.07-34.79-1.8-47.15-5.6-47.15-9.07s12.36-7.27,47.15-9.07C2011.82,1472,2097.06,1474.89,2097.06,1484.09Z"/><path class="cls-38" d="M2093.06,1484.09c0,8.74-81.08,11.52-136,8.66-33.56-1.7-45.8-5.33-45.8-8.66s12.24-7,45.8-8.65C2012,1472.58,2093.06,1475.35,2093.06,1484.09Z"/><path class="cls-39" d="M2089.06,1484.09c0,8.28-76.91,10.94-129.34,8.24-32.33-1.59-44.44-5.06-44.44-8.24s12.11-6.64,44.44-8.24C2012.15,1473.16,2089.06,1475.81,2089.06,1484.09Z"/><path class="cls-40" d="M2085.06,1484.09c0,7.82-72.75,10.35-122.68,7.83-31.1-1.5-43.1-4.79-43.1-7.83s12-6.33,43.1-7.83C2012.31,1473.74,2085.06,1476.27,2085.06,1484.09Z"/><path class="cls-41" d="M2081.05,1484.09c0,7.36-68.57,9.77-116,7.41-29.87-1.39-41.75-4.51-41.75-7.41s11.88-6,41.75-7.41C2012.48,1474.32,2081.05,1476.74,2081.05,1484.09Z"/><path class="cls-42" d="M2077.05,1484.09c0,6.9-64.41,9.19-109.37,7-28.63-1.3-40.4-4.25-40.4-7s11.77-5.7,40.4-7C2012.64,1474.91,2077.05,1477.2,2077.05,1484.09Z"/><path class="cls-43" d="M2073.05,1484.09c0,6.43-60.24,8.61-102.71,6.59-27.41-1.2-39.06-4-39.06-6.59s11.65-5.38,39.06-6.58C2012.81,1475.49,2073.05,1477.66,2073.05,1484.09Z"/><path class="cls-44" d="M2069.05,1484.09c0,6-56.07,7.94-96.06,6.17-26.17-1.15-37.71-3.7-37.71-6.17s11.53-5.07,37.71-6.17C2013,1476.07,2069.05,1478.12,2069.05,1484.09Z"/><path class="cls-45" d="M2065.05,1484.09c0,5.51-51.9,7.35-89.41,5.76-24.94-1.06-36.35-3.44-36.35-5.76s11.41-4.76,36.35-5.75C2013.14,1476.65,2065.05,1478.58,2065.05,1484.09Z"/><path class="cls-46" d="M2061.05,1484.09c0,5.05-47.74,6.76-82.76,5.34-23.7-1-35-3.16-35-5.34s11.29-4.44,35-5.34C2013.31,1477.24,2061.05,1479.05,2061.05,1484.09Z"/><path class="cls-47" d="M2057.05,1484.09c0,4.59-43.57,6.18-76.1,4.93-22.48-.87-33.66-2.89-33.66-4.93s11.18-4.13,33.66-4.93C2013.47,1477.82,2057.05,1479.51,2057.05,1484.09Z"/><path class="cls-48" d="M2053,1484.09c0,4.13-39.4,5.6-69.44,4.51-21.25-.76-32.31-2.62-32.31-4.51s11.06-3.81,32.31-4.51C2013.64,1478.4,2053,1480,2053,1484.09Z"/><path class="cls-49" d="M2049,1484.09c0,3.66-35.23,5-62.79,4.1-20-.67-31-2.35-31-4.1s10.94-3.5,31-4.1C2013.8,1479,2049,1480.43,2049,1484.09Z"/><path class="cls-50" d="M2045,1484.09c0,3.2-31.07,4.44-56.14,3.69-18.78-.57-29.61-2.08-29.61-3.69s10.83-3.18,29.61-3.68C2014,1479.57,2045,1480.89,2045,1484.09Z"/><path class="cls-51" d="M2041,1484.09c0,2.74-26.9,3.87-49.48,3.27-17.56-.46-28.27-1.8-28.27-3.27s10.71-2.87,28.27-3.27C2014.13,1480.15,2041,1481.35,2041,1484.09Z"/><path class="cls-52" d="M2037,1484.09c0,2.28-22.74,3.29-42.83,2.86-16.32-.36-26.91-1.54-26.91-2.86s10.59-2.55,26.91-2.85C2014.3,1480.73,2037,1481.82,2037,1484.09Z"/><path class="cls-53" d="M2033,1484.09c0,1.82-18.57,2.73-36.18,2.44-15.09-.24-25.56-1.26-25.56-2.44s10.47-2.24,25.56-2.44C2014.46,1481.31,2033,1482.28,2033,1484.09Z"/><path class="cls-54" d="M2029,1484.09c0,1.35-14.4,2.2-29.52,2-13.86-.1-24.21-1-24.21-2s10.35-1.93,24.21-2C2014.63,1481.9,2029,1482.74,2029,1484.09Z"/><ellipse class="cls-55" cx="2002.17" cy="1484.09" rx="22.87" ry="1.61"/></g><polygon class="cls-125" points="2055.69 1417.68 2046.34 1396.9 2028.93 1376.12 2002.17 1356.34 1975.4 1376.12 1957.99 1396.9 1948.64 1417.68 1943.78 1441.22 1947.59 1457.74 1959.34 1471.01 1978.84 1480.03 2002.17 1484.78 2025.5 1480.03 2045 1471.01 2056.75 1457.74 2060.56 1441.22 2055.69 1417.68"/><polygon class="cls-126" points="2028.89 1406.25 2002.17 1381.71 1975.45 1406.25 1966.85 1433.06 1976.26 1451.08 2002.17 1459.41 2028.08 1451.08 2037.49 1433.06 2028.89 1406.25"/><polygon class="cls-127" points="2002.17 1356.34 1984.65 1377.71 2002.17 1381.71 2019.69 1377.71 2002.17 1356.34"/><polygon class="cls-128" points="2002.17 1356.34 1997.91 1377.71 2002.17 1381.71 2006.43 1377.71 2002.17 1356.34"/><polygon class="cls-129" points="2002.17 1426.45 1997.91 1385.72 2002.17 1381.71 2006.43 1385.72 2002.17 1426.45"/><polygon class="cls-130" points="2019.69 1377.71 2046.34 1396.9 2028.89 1406.25 2002.17 1381.71 2019.69 1377.71"/><polygon class="cls-131" points="2046.34 1396.9 2028.89 1406.25 2037.49 1433.06 2060.56 1441.22 2055.69 1417.68 2046.34 1396.9"/><polygon class="cls-132" points="2002.17 1459.41 2022.5 1466.17 2028.08 1451.08 2002.17 1459.41"/><polygon class="cls-133" points="2022.5 1466.17 2002.17 1459.41 1981.84 1466.17 1978.84 1480.03 2002.17 1484.78 2025.5 1480.03 2022.5 1466.17"/><polygon class="cls-134" points="2002.17 1459.41 1990.92 1480.03 2002.17 1484.78 2013.41 1480.03 2002.17 1459.41"/><polygon class="cls-135" points="2025.5 1480.03 2022.5 1466.17 2028.08 1451.08 2049.18 1437.19 2060.56 1441.22 2056.75 1457.74 2045 1471.01 2025.5 1480.03"/><polygon class="cls-136" points="2019.69 1377.71 2028.93 1376.12 2046.34 1396.9 2019.69 1377.71"/><polygon class="cls-137" points="2002.17 1356.34 2019.69 1377.71 2028.93 1376.12 2002.17 1356.34"/><polygon class="cls-134" points="2028.08 1451.08 2045 1471.01 2056.75 1457.74 2028.08 1451.08"/><polygon class="cls-138" points="2037.49 1433.06 2049.18 1437.19 2028.08 1451.08 2037.49 1433.06"/><polygon class="cls-139" points="1984.65 1377.71 1957.99 1396.9 1975.45 1406.25 2002.17 1381.71 1984.65 1377.71"/><polygon class="cls-140" points="1957.99 1396.9 1975.45 1406.25 1966.85 1433.06 1943.78 1441.22 1948.64 1417.68 1957.99 1396.9"/><polygon class="cls-141" points="2002.17 1459.41 1981.84 1466.17 1976.26 1451.08 2002.17 1459.41"/><polygon class="cls-142" points="1978.84 1480.03 1981.84 1466.17 1976.26 1451.08 1955.16 1437.19 1943.78 1441.22 1947.59 1457.74 1959.34 1471.01 1978.84 1480.03"/><polygon class="cls-143" points="1984.65 1377.71 1975.4 1376.12 1957.99 1396.9 1984.65 1377.71"/><polygon class="cls-144" points="2002.17 1356.34 1984.65 1377.71 1975.4 1376.12 2002.17 1356.34"/><polygon class="cls-134" points="1976.26 1451.08 1959.34 1471.01 1947.59 1457.74 1976.26 1451.08"/><polygon class="cls-134" points="1948.64 1417.68 1975.45 1406.25 1966.85 1433.06 1948.64 1417.68"/><polygon class="cls-134" points="2055.69 1417.68 2028.89 1406.25 2037.49 1433.06 2055.69 1417.68"/><polygon class="cls-145" points="1966.85 1433.06 1955.16 1437.19 1976.26 1451.08 1966.85 1433.06"/><polygon class="cls-146" points="2052.57 1417.85 2043.76 1398.28 2027.37 1378.71 2002.17 1360.09 1976.97 1378.71 1960.57 1398.28 1951.77 1417.85 1947.19 1440.01 1950.77 1455.57 1961.84 1468.07 1980.2 1476.56 2002.17 1481.04 2024.14 1476.56 2042.5 1468.07 2053.56 1455.57 2057.15 1440.01 2052.57 1417.85"/><g class="cls-33"><path class="cls-34" d="M2139.14,1109.73c0,16-147.55,20.9-245.46,15.57-58.1-3.17-77.28-9.69-77.28-15.57s19.18-12.4,77.28-15.57C1991.59,1088.83,2139.14,1093.75,2139.14,1109.73Z"/><path class="cls-35" d="M2133.1,1109.73c0,15.29-141.26,20-235.41,14.94-56.24-3-75.25-9.27-75.25-14.94s19-11.93,75.25-14.94C1991.84,1089.71,2133.1,1094.45,2133.1,1109.73Z"/><path class="cls-36" d="M2127.06,1109.73c0,14.59-135,19.15-225.37,14.32-54.38-2.86-73.21-8.87-73.21-14.32s18.83-11.45,73.21-14.32C1992.09,1090.59,2127.06,1095.14,2127.06,1109.73Z"/><path class="cls-37" d="M2121,1109.73c0,13.89-128.68,18.27-215.33,13.69-52.52-2.71-71.17-8.46-71.17-13.69s18.65-11,71.17-13.69C1992.34,1091.47,2121,1095.84,2121,1109.73Z"/><path class="cls-38" d="M2115,1109.73c0,13.2-122.39,17.39-205.28,13.07-50.66-2.56-69.14-8-69.14-13.07s18.48-10.5,69.14-13.06C1992.59,1092.35,2115,1096.54,2115,1109.73Z"/><path class="cls-39" d="M2108.94,1109.73c0,12.5-116.1,16.51-195.24,12.44-48.8-2.41-67.1-7.64-67.1-12.44s18.3-10,67.1-12.44C1992.84,1093.23,2108.94,1097.23,2108.94,1109.73Z"/><path class="cls-40" d="M2102.9,1109.73c0,11.8-109.81,15.63-185.19,11.82-47-2.26-65.06-7.23-65.06-11.82s18.11-9.55,65.06-11.81C1993.09,1094.11,2102.9,1097.93,2102.9,1109.73Z"/><path class="cls-41" d="M2096.86,1109.73c0,11.11-103.52,14.75-175.15,11.19-45.08-2.11-63-6.82-63-11.19s17.94-9.08,63-11.19C1993.34,1095,2096.86,1098.63,2096.86,1109.73Z"/><path class="cls-42" d="M2090.82,1109.73c0,10.41-97.23,13.87-165.1,10.57-43.23-2-61-6.42-61-10.57s17.76-8.6,61-10.56C1993.59,1095.86,2090.82,1099.33,2090.82,1109.73Z"/><path class="cls-43" d="M2084.78,1109.73c0,9.71-90.94,13-155.06,9.94-41.37-1.81-59-6-59-9.94s17.58-8.13,59-9.94C1993.84,1096.74,2084.78,1100,2084.78,1109.73Z"/><path class="cls-44" d="M2078.74,1109.73c0,9-84.64,12-145,9.32-39.51-1.75-56.92-5.6-56.92-9.32s17.4-7.65,56.92-9.31C1994.09,1097.62,2078.74,1100.72,2078.74,1109.73Z"/><path class="cls-45" d="M2072.7,1109.73c0,8.32-78.35,11.09-135,8.69-37.65-1.6-54.88-5.18-54.88-8.69s17.23-7.18,54.88-8.69C1994.34,1098.5,2072.7,1101.42,2072.7,1109.73Z"/><path class="cls-46" d="M2066.66,1109.73c0,7.62-72.06,10.21-124.93,8.06-35.79-1.45-52.84-4.77-52.84-8.06s17-6.7,52.84-8.06C1994.59,1099.38,2066.66,1102.11,2066.66,1109.73Z"/><path class="cls-47" d="M2060.62,1109.73c0,6.92-65.78,9.33-114.88,7.44-33.93-1.31-50.81-4.37-50.81-7.44s16.87-6.23,50.81-7.44C1994.84,1100.26,2060.62,1102.81,2060.62,1109.73Z"/><path class="cls-48" d="M2054.58,1109.73c0,6.23-59.49,8.45-104.84,6.81-32.07-1.15-48.77-4-48.77-6.81s16.7-5.76,48.77-6.81C1995.09,1101.14,2054.58,1103.51,2054.58,1109.73Z"/><path class="cls-49" d="M2048.53,1109.73c0,5.53-53.19,7.57-94.78,6.19-30.22-1-46.74-3.55-46.74-6.19s16.52-5.28,46.74-6.18C1995.34,1102,2048.53,1104.2,2048.53,1109.73Z"/><path class="cls-50" d="M2042.49,1109.73c0,4.83-46.9,6.7-84.74,5.56-28.35-.85-44.7-3.13-44.7-5.56s16.34-4.81,44.7-5.56C1995.59,1102.9,2042.49,1104.9,2042.49,1109.73Z"/><path class="cls-51" d="M2036.45,1109.73c0,4.13-40.61,5.83-74.69,4.94-26.5-.7-42.67-2.73-42.67-4.94s16.17-4.33,42.67-4.93C1995.84,1103.78,2036.45,1105.6,2036.45,1109.73Z"/><path class="cls-52" d="M2030.41,1109.73c0,3.44-34.32,5-64.65,4.31-24.64-.53-40.63-2.32-40.63-4.31s16-3.86,40.63-4.31C1996.09,1104.66,2030.41,1106.3,2030.41,1109.73Z"/><path class="cls-53" d="M2024.37,1109.73c0,2.74-28,4.12-54.61,3.69-22.78-.37-38.59-1.91-38.59-3.69s15.81-3.38,38.59-3.68C1996.34,1105.54,2024.37,1107,2024.37,1109.73Z"/><path class="cls-54" d="M2018.33,1109.73c0,2-21.74,3.32-44.56,3.06-20.92-.15-36.56-1.5-36.56-3.06s15.64-2.91,36.56-3.06C1996.59,1106.42,2018.33,1107.69,2018.33,1109.73Z"/><ellipse class="cls-55" cx="1977.77" cy="1109.73" rx="34.52" ry="2.43"/></g><g class="cls-80"><path class="cls-81" d="M1914.79,942.71c0,.43-.47.77-1,.77s-1.06-.34-1.06-.77.48-.76,1.06-.76S1914.79,942.29,1914.79,942.71Z"/></g><polygon class="cls-147" points="1977.77 985.69 2035.44 985.69 1977.77 940.78 1920.1 985.69 1977.77 985.69"/><polygon class="cls-148" points="1977.77 985.69 1920.1 985.69 1977.77 1108.88 2035.44 985.69 1977.77 985.69"/><polygon class="cls-149" points="1977.77 1108.88 2094.47 985.69 2035.44 985.69 1977.77 1108.88"/><polygon class="cls-150" points="1977.77 1108.88 1861.08 985.69 1920.1 985.69 1977.77 1108.88"/><polygon class="cls-151" points="2035.44 985.69 2055.46 940.78 2094.47 985.69 2035.44 985.69"/><polygon class="cls-152" points="2055.46 940.78 2035.44 985.69 1977.77 940.78 2055.46 940.78"/><polygon class="cls-153" points="1920.1 985.69 1900.09 940.78 1861.08 985.69 1920.1 985.69"/><polygon class="cls-154" points="1900.09 940.78 1920.1 985.69 1977.77 940.78 1900.09 940.78"/><polygon class="cls-155" points="2052.09 945.99 1903.45 945.99 1866.13 988.96 1866.13 988.96 1977.77 1106.82 2089.41 988.96 2052.09 945.99"/></g></g></g></svg>