<svg id="Layer_1" data-name="Layer 1" xmlns="http://www.w3.org/2000/svg" viewBox="0 0 65 65"><defs><style>.cls-1,.cls-2,.cls-3,.cls-5{fill:none;stroke:#fff;stroke-miterlimit:10;}.cls-1,.cls-5{stroke-linecap:round;}.cls-1,.cls-2{stroke-width:2px;}.cls-3{stroke-width:0.4px;}.cls-4{font-size:5.5px;fill:#fff;font-family:OpenSans, Open Sans;}</style></defs><title>widraw</title><path class="cls-1" d="M53,46.76h5.5a4,4,0,0,0,4-4V13.12a4,4,0,0,0-4-4H6.47a4,4,0,0,0-4,4V42.8a4,4,0,0,0,4,4h6.14"/><rect class="cls-2" x="8.13" y="16.57" width="24.37" height="16.76" rx="2.5"/><rect class="cls-2" x="38.96" y="16.57" width="17.27" height="5.12" rx="1.41"/><line class="cls-1" x1="9.19" y1="43.31" x2="57.3" y2="43.31"/><rect class="cls-2" x="15.14" y="43.31" width="34.39" height="11.19"/><polygon class="cls-3" points="51.64 45.62 51.64 56.81 16.11 56.81 16.11 55.46 50.16 55.46 50.16 45.62 51.64 45.62"/><text class="cls-4" transform="translate(19.83 50.95)">Rs 10,000</text><rect class="cls-5" x="39.47" y="24.95" width="3.01" height="3.01" rx="0.55"/><rect class="cls-5" x="46.09" y="24.95" width="3.01" height="3.01" rx="0.55"/><rect class="cls-5" x="52.71" y="24.95" width="3.01" height="3.01" rx="0.55"/><rect class="cls-5" x="39.47" y="29.27" width="3.01" height="3.01" rx="0.55"/><rect class="cls-5" x="46.09" y="29.27" width="3.01" height="3.01" rx="0.55"/><rect class="cls-5" x="52.71" y="29.27" width="3.01" height="3.01" rx="0.55"/><rect class="cls-5" x="39.47" y="33.59" width="3.01" height="3.01" rx="0.55"/><rect class="cls-5" x="46.09" y="33.59" width="3.01" height="3.01" rx="0.55"/><rect class="cls-5" x="52.71" y="33.59" width="3.01" height="3.01" rx="0.55"/></svg>