<svg id="Layer_1" data-name="Layer 1" xmlns="http://www.w3.org/2000/svg" viewBox="0 0 65 65"><defs><style>.cls-1,.cls-2{fill:none;stroke:#fff;stroke-width:2px;}.cls-1{stroke-miterlimit:10;}.cls-2{stroke-linecap:round;stroke-linejoin:round;}</style></defs><title>win</title><path class="cls-1" d="M35.65,37.34V51.09h-6.3V37.34h.74c1,.52,1.83.89,2.42,1.13.56-.24,1.38-.61,2.37-1.13Z"/><rect class="cls-1" x="26.36" y="46.98" width="11.41" height="19.63" transform="translate(88.86 24.73) rotate(90)"/><path class="cls-1" d="M47.39,25.45A31.51,31.51,0,0,1,34.88,37.34c-1,.52-1.81.89-2.37,1.13-.59-.24-1.43-.61-2.42-1.13A31.42,31.42,0,0,1,17.93,26.07,31.76,31.76,0,0,1,13.59,5.29a31.06,31.06,0,0,0,7.13.31A31.41,31.41,0,0,0,32.2,2.5,28,28,0,0,0,44.29,5.91a27.06,27.06,0,0,0,7.13-.62A31.76,31.76,0,0,1,47.39,25.45Z"/><path class="cls-2" d="M26.16,8.5s-1.63,1.67-9.3,1c0,0-.13,8.56,3.77,13.09"/><circle class="cls-2" cx="29.35" cy="7.63" r="0.25"/></svg>