<svg xmlns="http://www.w3.org/2000/svg" xmlns:xlink="http://www.w3.org/1999/xlink" viewBox="0 0 4208.82 2640.05"><defs><style>.cls-1{fill:none;}.cls-2{isolation:isolate;}.cls-3{clip-path:url(#clip-path);}.cls-4{fill:url(#linear-gradient);}.cls-5{fill:url(#linear-gradient-2);}.cls-6{fill:url(#linear-gradient-3);}.cls-7{fill:url(#linear-gradient-4);}.cls-8{fill:url(#linear-gradient-5);}.cls-9{fill:url(#linear-gradient-6);}.cls-10{fill:url(#linear-gradient-7);}.cls-11{fill:url(#linear-gradient-8);}.cls-12{fill:#446267;}.cls-13{fill:#f8ad9c;opacity:0.49;}.cls-14{fill:#b8d4ce;opacity:0.39;}.cls-15{fill:#f69faa;}.cls-16{fill:#f7b4c6;}.cls-17{fill:#f7acb6;}.cls-18{fill:#f15d74;}.cls-19{fill:#f9c2d1;}.cls-20{fill:#f48f9f;}.cls-21{fill:#f9c0c7;}.cls-22{fill:#c9386b;}.cls-23{fill:#47b599;}.cls-24{fill:#bee3db;}.cls-25{fill:#61c2a7;}.cls-26{fill:#9cd6c9;}.cls-27{fill:#7acbba;}.cls-28{fill:#4fa88f;}.cls-29{fill:#f7a08b;}.cls-30{fill:#a25763;}.cls-31{fill:#90424f;}.cls-32{fill:#60787c;}.cls-134,.cls-33,.cls-76,.cls-78,.cls-79,.cls-81,.cls-82,.cls-83{mix-blend-mode:multiply;}.cls-34,.cls-81,.cls-82,.cls-83{fill:#fff;}.cls-34{opacity:0;}.cls-35{fill:#fafafb;opacity:0.05;}.cls-36{fill:#f7f7f8;opacity:0.1;}.cls-37{fill:#f4f5f5;opacity:0.14;}.cls-38{fill:#f2f2f3;opacity:0.19;}.cls-39{fill:#eff0f0;opacity:0.24;}.cls-40{fill:#ecedee;opacity:0.29;}.cls-41{fill:#eaebeb;opacity:0.33;}.cls-42{fill:#e7e8e9;opacity:0.38;}.cls-43{fill:#e5e6e7;opacity:0.43;}.cls-44{fill:#e2e3e4;opacity:0.48;}.cls-45{fill:#e0e1e2;opacity:0.52;}.cls-46{fill:#dddee0;opacity:0.57;}.cls-47{fill:#dbdcdd;opacity:0.62;}.cls-48{fill:#d8d9db;opacity:0.67;}.cls-49{fill:#d6d7d8;opacity:0.71;}.cls-50{fill:#d3d4d6;opacity:0.76;}.cls-51{fill:#d1d2d4;opacity:0.81;}.cls-52{fill:#ced0d1;opacity:0.86;}.cls-53{fill:#cbcdcf;opacity:0.9;}.cls-54{fill:#c9cbcc;opacity:0.95;}.cls-55{fill:#bfbfbf;}.cls-56{fill:url(#linear-gradient-9);}.cls-57{fill:url(#linear-gradient-10);}.cls-58{fill:url(#linear-gradient-11);}.cls-59{fill:url(#linear-gradient-12);}.cls-60{fill:url(#linear-gradient-13);}.cls-61{fill:url(#linear-gradient-14);}.cls-62{fill:url(#linear-gradient-15);}.cls-63{fill:url(#linear-gradient-16);}.cls-64{fill:url(#linear-gradient-17);}.cls-146,.cls-155,.cls-65,.cls-66,.cls-67,.cls-68,.cls-69{mix-blend-mode:overlay;}.cls-65{fill:url(#linear-gradient-18);}.cls-66{fill:url(#linear-gradient-19);}.cls-67{fill:url(#linear-gradient-20);}.cls-68{fill:url(#linear-gradient-21);}.cls-146,.cls-155,.cls-69{opacity:0.3;}.cls-69{fill:url(#radial-gradient);}.cls-70{fill:url(#linear-gradient-22);}.cls-71{fill:url(#linear-gradient-23);}.cls-72{fill:url(#linear-gradient-24);}.cls-73{fill:url(#linear-gradient-25);}.cls-74{fill:url(#linear-gradient-26);}.cls-75,.cls-77{mix-blend-mode:color-burn;}.cls-76,.cls-78,.cls-79{fill:#aca497;}.cls-76,.cls-81{opacity:0.44;}.cls-77{opacity:0.19;}.cls-78,.cls-82{opacity:0.74;}.cls-79,.cls-83{opacity:0.16;}.cls-80{mix-blend-mode:screen;}.cls-100,.cls-104,.cls-106,.cls-110,.cls-112,.cls-116,.cls-118,.cls-122,.cls-124,.cls-84,.cls-92,.cls-94,.cls-98{opacity:0.79;mix-blend-mode:hard-light;}.cls-84{fill:url(#linear-gradient-27);}.cls-85{fill:url(#linear-gradient-28);}.cls-86{fill:url(#linear-gradient-29);}.cls-87{fill:url(#linear-gradient-30);}.cls-88{fill:url(#linear-gradient-31);}.cls-89{fill:url(#linear-gradient-32);}.cls-90{fill:url(#linear-gradient-33);}.cls-91{fill:url(#linear-gradient-34);}.cls-92{fill:url(#linear-gradient-35);}.cls-93{fill:url(#linear-gradient-36);}.cls-94{fill:url(#linear-gradient-37);}.cls-95{fill:url(#linear-gradient-38);}.cls-96{fill:url(#linear-gradient-39);}.cls-97{fill:url(#linear-gradient-40);}.cls-98{fill:url(#linear-gradient-41);}.cls-99{fill:url(#linear-gradient-42);}.cls-100{fill:url(#linear-gradient-43);}.cls-101{fill:url(#linear-gradient-44);}.cls-102{fill:url(#linear-gradient-45);}.cls-103{fill:url(#linear-gradient-46);}.cls-104{fill:url(#linear-gradient-47);}.cls-105{fill:url(#linear-gradient-48);}.cls-106{fill:url(#linear-gradient-49);}.cls-107{fill:url(#linear-gradient-50);}.cls-108{fill:url(#linear-gradient-51);}.cls-109{fill:url(#linear-gradient-52);}.cls-110{fill:url(#linear-gradient-53);}.cls-111{fill:url(#linear-gradient-54);}.cls-112{fill:url(#linear-gradient-55);}.cls-113{fill:url(#linear-gradient-56);}.cls-114{fill:url(#linear-gradient-57);}.cls-115{fill:url(#linear-gradient-58);}.cls-116{fill:url(#linear-gradient-59);}.cls-117{fill:url(#linear-gradient-60);}.cls-118{fill:url(#linear-gradient-61);}.cls-119{fill:url(#linear-gradient-62);}.cls-120{fill:url(#linear-gradient-63);}.cls-121{fill:url(#linear-gradient-64);}.cls-122{fill:url(#linear-gradient-65);}.cls-123{fill:url(#linear-gradient-66);}.cls-124{fill:url(#linear-gradient-67);}.cls-125{fill:url(#linear-gradient-68);}.cls-126{fill:#8bc8ed;}.cls-127{fill:url(#linear-gradient-69);}.cls-128,.cls-129{mix-blend-mode:soft-light;}.cls-128{fill:url(#linear-gradient-70);}.cls-129{fill:url(#linear-gradient-71);}.cls-130{fill:url(#linear-gradient-72);}.cls-131{fill:url(#linear-gradient-73);}.cls-132{fill:url(#linear-gradient-74);}.cls-133{fill:url(#linear-gradient-75);}.cls-134{fill:#204ba0;opacity:0.14;}.cls-135{fill:url(#linear-gradient-76);}.cls-136{fill:url(#linear-gradient-77);}.cls-137{fill:#a1cfef;}.cls-138{fill:url(#linear-gradient-78);}.cls-139{fill:url(#linear-gradient-79);}.cls-140{fill:url(#linear-gradient-80);}.cls-141{fill:url(#linear-gradient-81);}.cls-142{fill:url(#linear-gradient-82);}.cls-143{fill:url(#linear-gradient-83);}.cls-144{fill:#63a9dd;}.cls-145{fill:url(#linear-gradient-84);}.cls-146{fill:url(#radial-gradient-2);}.cls-147{fill:url(#linear-gradient-85);}.cls-148{fill:url(#linear-gradient-86);}.cls-149{fill:url(#linear-gradient-87);}.cls-150{fill:url(#linear-gradient-88);}.cls-151{fill:#f37a7c;}.cls-152{fill:url(#linear-gradient-89);}.cls-153{fill:#ed1c24;}.cls-154{fill:url(#linear-gradient-90);}.cls-155{fill:url(#radial-gradient-3);}</style><clipPath id="clip-path"><path class="cls-1" d="M1449.71,2510.93c-688-118.95-829-283.42-883.64-361.22-163.94-233.32-138.45-520.81-126.54-639C448.88,1417.93,489,1035.35,764.72,832c119.29-88,174-64.12,459.51-219.15C1410.06,512,1441,472.47,1554.56,408.5c87-49,483.7-276.86,892-177.2,215.46,52.6,367.69,180.87,672.16,437.41,124.9,105.23,223,187.92,306.93,289.4C3737.2,1335,3922.85,1991.8,3692.38,2212.24a197.85,197.85,0,0,1-34.37,26C2843.35,2751.88,1449.71,2510.93,1449.71,2510.93Z"/></clipPath><linearGradient id="linear-gradient" x1="2139.5" y1="2502.16" x2="2064.51" y2="95.73" gradientUnits="userSpaceOnUse"><stop offset="0" stop-color="#26848f"/><stop offset="1" stop-color="#431c5a"/></linearGradient><linearGradient id="linear-gradient-2" x1="1220.36" y1="1607.06" x2="1235.24" y2="1175.61" gradientUnits="userSpaceOnUse"><stop offset="0" stop-color="#41486e"/><stop offset="1" stop-color="#26848f"/></linearGradient><linearGradient id="linear-gradient-3" x1="2893.68" y1="1156.2" x2="2908.56" y2="724.75" xlink:href="#linear-gradient-2"/><linearGradient id="linear-gradient-4" x1="2891.65" y1="1156.2" x2="2906.53" y2="724.75" gradientTransform="matrix(-1, 0, 0, 1, 5792.35, 0)" xlink:href="#linear-gradient-2"/><linearGradient id="linear-gradient-5" x1="4137.05" y1="716.55" x2="4159.72" y2="59.23" gradientTransform="matrix(-1, 0, 0, 1, 5792.35, 0)" xlink:href="#linear-gradient-2"/><linearGradient id="linear-gradient-6" x1="780.53" y1="1909.37" x2="2264.6" y2="1909.37" gradientUnits="userSpaceOnUse"><stop offset="0" stop-color="#26848f"/><stop offset="0.08" stop-color="#431c5a"/><stop offset="0.76" stop-color="#e2827b"/></linearGradient><linearGradient id="linear-gradient-7" x1="2276.46" y1="2751.89" x2="2968.11" y2="1740.1" gradientUnits="userSpaceOnUse"><stop offset="0" stop-color="#26848f"/><stop offset="0.76" stop-color="#e2827b"/></linearGradient><linearGradient id="linear-gradient-8" x1="780.53" y1="1909.37" x2="2101.52" y2="1909.37" gradientUnits="userSpaceOnUse"><stop offset="0" stop-color="#695b67"/><stop offset="1" stop-color="#e2827b"/></linearGradient><linearGradient id="linear-gradient-9" x1="-925.19" y1="-2921.3" x2="-847.27" y2="-2921.3" gradientTransform="translate(5212.24 1330.42) rotate(-90)" gradientUnits="userSpaceOnUse"><stop offset="0" stop-color="#fcf8cc"/><stop offset="0.99" stop-color="#a1ce5a"/></linearGradient><linearGradient id="linear-gradient-10" x1="-886.23" y1="-2963.9" x2="-886.23" y2="-2995.04" gradientTransform="translate(5212.24 1330.42) rotate(-90)" gradientUnits="userSpaceOnUse"><stop offset="0" stop-color="#92c83e"/><stop offset="0.99" stop-color="#118642"/></linearGradient><linearGradient id="linear-gradient-11" x1="1195.94" y1="-5600.42" x2="1195.94" y2="-5632.28" gradientTransform="translate(7066.11 -871.68) rotate(-135)" xlink:href="#linear-gradient-9"/><linearGradient id="linear-gradient-12" x1="4528.93" y1="-5995.49" x2="4528.93" y2="-6023.97" gradientTransform="translate(6819.87 -3739.88) rotate(180)" xlink:href="#linear-gradient-10"/><linearGradient id="linear-gradient-13" x1="7165.03" y1="-3917.54" x2="7165.03" y2="-3949.4" gradientTransform="translate(4617.77 -5593.76) rotate(135)" gradientUnits="userSpaceOnUse"><stop offset="0" stop-color="#bad978"/><stop offset="0.99" stop-color="#44b249"/></linearGradient><linearGradient id="linear-gradient-14" x1="7564.16" y1="-583.98" x2="7564.16" y2="-615.11" gradientTransform="translate(1749.56 -5347.51) rotate(90)" xlink:href="#linear-gradient-10"/><linearGradient id="linear-gradient-15" x1="5488.45" y1="2057.84" x2="5488.45" y2="2025.98" gradientTransform="translate(-104.31 -3145.41) rotate(45)" xlink:href="#linear-gradient-13"/><linearGradient id="linear-gradient-16" x1="2149" y1="2454.89" x2="2149" y2="2426.42" gradientTransform="translate(141.94 -277.21)" xlink:href="#linear-gradient-9"/><linearGradient id="linear-gradient-17" x1="-493.23" y1="374.97" x2="-493.23" y2="343.1" gradientTransform="translate(2344.03 1576.67) rotate(-45)" xlink:href="#linear-gradient-13"/><linearGradient id="linear-gradient-18" x1="1060.48" y1="-5578.99" x2="1090.61" y2="-5609.12" gradientTransform="translate(6985.71 -978.39) rotate(-135)" xlink:href="#linear-gradient-9"/><linearGradient id="linear-gradient-19" x1="6974.07" y1="-4135.14" x2="7001.62" y2="-4162.69" gradientTransform="translate(4298.35 -5638.67) rotate(135)" xlink:href="#linear-gradient-9"/><linearGradient id="linear-gradient-20" x1="5530.22" y1="1778.45" x2="5560.34" y2="1748.32" gradientTransform="translate(-361.94 -2951.31) rotate(45)" xlink:href="#linear-gradient-9"/><linearGradient id="linear-gradient-21" x1="-383.37" y1="334.59" x2="-355.82" y2="307.04" gradientTransform="translate(2325.43 1708.98) rotate(-45)" xlink:href="#linear-gradient-9"/><radialGradient id="radial-gradient" cx="-695.87" cy="-2823.82" r="74.17" gradientTransform="translate(4971.3 1612.54) rotate(-90) scale(0.87 0.95)" gradientUnits="userSpaceOnUse"><stop offset="0" stop-color="#fff"/><stop offset="0.09" stop-color="#e7e7e7"/><stop offset="0.54" stop-color="#6d6d6d"/><stop offset="0.86" stop-color="#1f1f1f"/><stop offset="1" stop-color="#010101"/></radialGradient><linearGradient id="linear-gradient-22" x1="2023.27" y1="1897.84" x2="2035.04" y2="1886.07" gradientUnits="userSpaceOnUse"><stop offset="0" stop-color="#f47622"/><stop offset="1" stop-color="#fdf38e"/></linearGradient><linearGradient id="linear-gradient-23" x1="1995.45" y1="1996.48" x2="2103.42" y2="1934.15" gradientUnits="userSpaceOnUse"><stop offset="0.02" stop-color="#e4ae24"/><stop offset="0.39" stop-color="#fede40"/><stop offset="0.5" stop-color="#f6c635"/><stop offset="0.66" stop-color="#eda828"/><stop offset="0.76" stop-color="#e99c23"/><stop offset="0.86" stop-color="#f2ac38"/><stop offset="1" stop-color="#febf51"/></linearGradient><linearGradient id="linear-gradient-24" x1="2042.42" y1="1895.02" x2="2048.54" y2="1888.89" gradientUnits="userSpaceOnUse"><stop offset="0" stop-color="#fdb515"/><stop offset="0.51" stop-color="#ffd32d"/><stop offset="1" stop-color="#fdf38e"/></linearGradient><linearGradient id="linear-gradient-25" x1="2069.97" y1="1898.11" x2="2079.09" y2="1888.98" xlink:href="#linear-gradient-24"/><linearGradient id="linear-gradient-26" x1="2013.74" y1="1917.36" x2="2022.86" y2="1908.24" xlink:href="#linear-gradient-22"/><linearGradient id="linear-gradient-27" x1="1997.59" y1="1952.58" x2="2078.28" y2="1905.99" gradientUnits="userSpaceOnUse"><stop offset="0.01" stop-color="#f69581"/><stop offset="0.4" stop-color="#f9bdb0"/><stop offset="1" stop-color="#fff"/></linearGradient><linearGradient id="linear-gradient-28" x1="2311.84" y1="1795.92" x2="2322.91" y2="1784.85" xlink:href="#linear-gradient-24"/><linearGradient id="linear-gradient-29" x1="2270.6" y1="1789.04" x2="2276.37" y2="1783.28" xlink:href="#linear-gradient-24"/><linearGradient id="linear-gradient-30" x1="2328.28" y1="1813.69" x2="2334.04" y2="1807.92" xlink:href="#linear-gradient-24"/><linearGradient id="linear-gradient-31" x1="2251.67" y1="1800.35" x2="2260.25" y2="1791.77" xlink:href="#linear-gradient-24"/><linearGradient id="linear-gradient-32" x1="2506.34" y1="1911.47" x2="2575.62" y2="1911.47" gradientTransform="translate(-119.82 -270.16) rotate(4.92)" gradientUnits="userSpaceOnUse"><stop offset="0" stop-color="#c46128"/><stop offset="1" stop-color="#ef9921"/></linearGradient><linearGradient id="linear-gradient-33" x1="2536.15" y1="1916.86" x2="2576.87" y2="1908.08" gradientTransform="translate(-119.82 -270.16) rotate(4.92)" gradientUnits="userSpaceOnUse"><stop offset="0" stop-color="#febf51"/><stop offset="0.07" stop-color="#fab848"/><stop offset="0.19" stop-color="#efa630"/><stop offset="0.24" stop-color="#e99c23"/><stop offset="0.33" stop-color="#eeac2a"/><stop offset="0.61" stop-color="#fede40"/><stop offset="0.86" stop-color="#e4ae24"/><stop offset="1" stop-color="#e9da50"/></linearGradient><linearGradient id="linear-gradient-34" x1="3765.01" y1="1938.15" x2="3791.54" y2="1911.62" gradientTransform="matrix(-1, -0.09, -0.09, 1, 6157.95, 271)" xlink:href="#linear-gradient-33"/><linearGradient id="linear-gradient-35" x1="3764.28" y1="1918.39" x2="3792.01" y2="1918.39" gradientTransform="matrix(-1, -0.09, -0.09, 1, 6157.95, 271)" gradientUnits="userSpaceOnUse"><stop offset="0.01" stop-color="#ffd480"/><stop offset="0.22" stop-color="#ffdfa2"/><stop offset="0.58" stop-color="#fff0d4"/><stop offset="0.85" stop-color="#fffbf3"/><stop offset="1" stop-color="#fff"/></linearGradient><linearGradient id="linear-gradient-36" x1="2512.87" y1="1899.57" x2="2567.29" y2="1899.57" gradientTransform="translate(-119.82 -270.16) rotate(4.92)" gradientUnits="userSpaceOnUse"><stop offset="0" stop-color="#f9f17e"/><stop offset="0.14" stop-color="#fee01f"/><stop offset="0.39" stop-color="#f9f06d"/><stop offset="0.64" stop-color="#fdd83b"/><stop offset="0.76" stop-color="#fc2"/><stop offset="0.79" stop-color="#ffd435"/><stop offset="0.88" stop-color="#fee45c"/><stop offset="0.96" stop-color="#fdee75"/><stop offset="1" stop-color="#fdf27e"/></linearGradient><linearGradient id="linear-gradient-37" x1="2554.39" y1="1908.56" x2="2543.54" y2="1909.6" gradientTransform="translate(-119.82 -270.16) rotate(4.92)" gradientUnits="userSpaceOnUse"><stop offset="0.01" stop-color="#fdf59f"/><stop offset="0.38" stop-color="#e8c675"/><stop offset="1" stop-color="#c27029"/></linearGradient><linearGradient id="linear-gradient-38" x1="2540.05" y1="1915.47" x2="2611.69" y2="1915.47" xlink:href="#linear-gradient-32"/><linearGradient id="linear-gradient-39" x1="2570.67" y1="1920.89" x2="2613.02" y2="1911.76" xlink:href="#linear-gradient-33"/><linearGradient id="linear-gradient-40" x1="3730.74" y1="1942.18" x2="3757.51" y2="1915.41" gradientTransform="matrix(-1, -0.09, -0.09, 1, 6157.95, 271)" xlink:href="#linear-gradient-33"/><linearGradient id="linear-gradient-41" x1="3729.47" y1="1922.3" x2="3758.35" y2="1922.3" xlink:href="#linear-gradient-35"/><linearGradient id="linear-gradient-42" x1="2546.48" y1="1903.94" x2="2602.68" y2="1903.94" xlink:href="#linear-gradient-36"/><linearGradient id="linear-gradient-43" x1="2589.45" y1="1912.58" x2="2578.29" y2="1913.66" xlink:href="#linear-gradient-37"/><linearGradient id="linear-gradient-44" x1="2575.22" y1="1919.26" x2="2649.39" y2="1919.26" xlink:href="#linear-gradient-32"/><linearGradient id="linear-gradient-45" x1="2606.71" y1="1924.72" x2="2650.8" y2="1915.22" xlink:href="#linear-gradient-33"/><linearGradient id="linear-gradient-46" x1="3694.97" y1="1946.02" x2="3721.98" y2="1919.01" gradientTransform="matrix(-1, -0.09, -0.09, 1, 6157.95, 271)" xlink:href="#linear-gradient-33"/><linearGradient id="linear-gradient-47" x1="3693.13" y1="1926.03" x2="3723.23" y2="1926.03" xlink:href="#linear-gradient-35"/><linearGradient id="linear-gradient-48" x1="2581.56" y1="1908.15" x2="2639.63" y2="1908.15" xlink:href="#linear-gradient-36"/><linearGradient id="linear-gradient-49" x1="2626.06" y1="1916.4" x2="2614.57" y2="1917.51" gradientTransform="translate(-119.82 -270.16) rotate(4.92)" gradientUnits="userSpaceOnUse"><stop offset="0.01" stop-color="#fdf59f"/><stop offset="0.51" stop-color="#feface"/><stop offset="1" stop-color="#fff"/></linearGradient><linearGradient id="linear-gradient-50" x1="2523.38" y1="1890.9" x2="2593.02" y2="1890.9" xlink:href="#linear-gradient-32"/><linearGradient id="linear-gradient-51" x1="2553.31" y1="1896.49" x2="2594.19" y2="1887.67" xlink:href="#linear-gradient-33"/><linearGradient id="linear-gradient-52" x1="3747.79" y1="1917.12" x2="3774.54" y2="1890.38" gradientTransform="matrix(-1, -0.09, -0.09, 1, 6157.95, 271)" xlink:href="#linear-gradient-33"/><linearGradient id="linear-gradient-53" x1="3747.04" y1="1897.29" x2="3775.05" y2="1897.29" xlink:href="#linear-gradient-35"/><linearGradient id="linear-gradient-54" x1="2529.74" y1="1879.19" x2="2584.39" y2="1879.19" xlink:href="#linear-gradient-36"/><linearGradient id="linear-gradient-55" x1="2571.5" y1="1888.25" x2="2560.65" y2="1889.3" xlink:href="#linear-gradient-37"/><linearGradient id="linear-gradient-56" x1="2557.41" y1="1895.43" x2="2629.44" y2="1895.43" xlink:href="#linear-gradient-32"/><linearGradient id="linear-gradient-57" x1="2588.17" y1="1901.08" x2="2630.68" y2="1891.91" xlink:href="#linear-gradient-33"/><linearGradient id="linear-gradient-58" x1="3713.18" y1="1921.65" x2="3740.18" y2="1894.66" gradientTransform="matrix(-1, -0.09, -0.09, 1, 6157.95, 271)" xlink:href="#linear-gradient-33"/><linearGradient id="linear-gradient-59" x1="3711.9" y1="1901.7" x2="3741.07" y2="1901.7" xlink:href="#linear-gradient-35"/><linearGradient id="linear-gradient-60" x1="2563.67" y1="1884.12" x2="2620.09" y2="1884.12" xlink:href="#linear-gradient-36"/><linearGradient id="linear-gradient-61" x1="2606.88" y1="1892.83" x2="2595.73" y2="1893.91" xlink:href="#linear-gradient-49"/><linearGradient id="linear-gradient-62" x1="2540.22" y1="1872.66" x2="2610.2" y2="1872.66" xlink:href="#linear-gradient-32"/><linearGradient id="linear-gradient-63" x1="2570.28" y1="1876.91" x2="2611.29" y2="1868.07" xlink:href="#linear-gradient-33"/><linearGradient id="linear-gradient-64" x1="3730.76" y1="1896.82" x2="3757.73" y2="1869.86" gradientTransform="matrix(-1, -0.09, -0.09, 1, 6157.95, 271)" xlink:href="#linear-gradient-33"/><linearGradient id="linear-gradient-65" x1="3730" y1="1876.92" x2="3758.28" y2="1876.92" xlink:href="#linear-gradient-35"/><linearGradient id="linear-gradient-66" x1="2546.41" y1="1861.16" x2="2601.26" y2="1861.16" xlink:href="#linear-gradient-36"/><linearGradient id="linear-gradient-67" x1="2588.4" y1="1868.74" x2="2577.56" y2="1869.78" xlink:href="#linear-gradient-49"/><linearGradient id="linear-gradient-68" x1="2155.58" y1="1653.54" x2="2080.36" y2="1578.31" gradientUnits="userSpaceOnUse"><stop offset="0" stop-color="#2c60ad"/><stop offset="1" stop-color="#6bbfeb"/></linearGradient><linearGradient id="linear-gradient-69" x1="2117.97" y1="1569.6" x2="2117.97" y2="1545.81" xlink:href="#linear-gradient-68"/><linearGradient id="linear-gradient-70" x1="2117.97" y1="1569.6" x2="2117.97" y2="1545.81" gradientUnits="userSpaceOnUse"><stop offset="0" stop-color="#fff"/><stop offset="1" stop-color="#55a5db"/></linearGradient><linearGradient id="linear-gradient-71" x1="2117.97" y1="-4855.94" x2="2117.97" y2="-4897.87" gradientTransform="matrix(1, 0, 0, -1, 0, -3286.34)" xlink:href="#linear-gradient-70"/><linearGradient id="linear-gradient-72" x1="2128.73" y1="1584.63" x2="2143.87" y2="1570.95" xlink:href="#linear-gradient-70"/><linearGradient id="linear-gradient-73" x1="2144.71" y1="1611.07" x2="2165.42" y2="1603.86" xlink:href="#linear-gradient-68"/><linearGradient id="linear-gradient-74" x1="2128.82" y1="1637.08" x2="2135.28" y2="1652.53" xlink:href="#linear-gradient-70"/><linearGradient id="linear-gradient-75" x1="2117.97" y1="1666.2" x2="2117.97" y2="1642.42" xlink:href="#linear-gradient-68"/><linearGradient id="linear-gradient-76" x1="2145.93" y1="1629.44" x2="2158.73" y2="1651.62" xlink:href="#linear-gradient-68"/><linearGradient id="linear-gradient-77" x1="2142.1" y1="1577.4" x2="2149.86" y2="1571.04" xlink:href="#linear-gradient-68"/><linearGradient id="linear-gradient-78" x1="2142.65" y1="1624.28" x2="2154.72" y2="1630.4" gradientUnits="userSpaceOnUse"><stop offset="0" stop-color="#457abd"/><stop offset="1" stop-color="#81d1f5"/></linearGradient><linearGradient id="linear-gradient-79" x1="4750.39" y1="1584.63" x2="4765.53" y2="1570.95" gradientTransform="matrix(-1, 0, 0, 1, 6857.6, 0)" xlink:href="#linear-gradient-78"/><linearGradient id="linear-gradient-80" x1="4766.37" y1="1611.07" x2="4787.08" y2="1603.86" gradientTransform="matrix(-1, 0, 0, 1, 6857.6, 0)" xlink:href="#linear-gradient-70"/><linearGradient id="linear-gradient-81" x1="4750.47" y1="1637.08" x2="4756.94" y2="1652.53" gradientTransform="matrix(-1, 0, 0, 1, 6857.6, 0)" gradientUnits="userSpaceOnUse"><stop offset="0" stop-color="#5dade0"/><stop offset="1" stop-color="#1b449c"/></linearGradient><linearGradient id="linear-gradient-82" x1="4767.58" y1="1629.44" x2="4780.39" y2="1651.62" gradientTransform="matrix(-1, 0, 0, 1, 6857.6, 0)" xlink:href="#linear-gradient-70"/><linearGradient id="linear-gradient-83" x1="4763.76" y1="1577.4" x2="4771.51" y2="1571.04" gradientTransform="matrix(-1, 0, 0, 1, 6857.6, 0)" xlink:href="#linear-gradient-70"/><linearGradient id="linear-gradient-84" x1="4764.3" y1="1624.28" x2="4776.38" y2="1630.4" gradientTransform="matrix(-1, 0, 0, 1, 6857.6, 0)" gradientUnits="userSpaceOnUse"><stop offset="0" stop-color="#55a5db"/><stop offset="1" stop-color="#fff"/></linearGradient><radialGradient id="radial-gradient-2" cx="2208.13" cy="1497.75" r="74.18" gradientTransform="translate(23.86 359.07) scale(0.95 0.81)" gradientUnits="userSpaceOnUse"><stop offset="0" stop-color="#fff"/><stop offset="0.09" stop-color="#e4e6ea"/><stop offset="0.34" stop-color="#9da3b2"/><stop offset="0.56" stop-color="#646e85"/><stop offset="0.76" stop-color="#3b4765"/><stop offset="0.91" stop-color="#223051"/><stop offset="1" stop-color="#19274a"/></radialGradient><linearGradient id="linear-gradient-85" x1="2096.41" y1="1198.41" x2="2096.41" y2="1156.31" gradientUnits="userSpaceOnUse"><stop offset="0.01" stop-color="#a11d21"/><stop offset="1" stop-color="#ed2224"/></linearGradient><linearGradient id="linear-gradient-86" x1="2096.41" y1="1313.88" x2="2096.41" y2="1198.41" gradientUnits="userSpaceOnUse"><stop offset="0" stop-color="#ed1c24"/><stop offset="0.99" stop-color="#981b1e"/></linearGradient><linearGradient id="linear-gradient-87" x1="2096.41" y1="1256.14" x2="2199.54" y2="1256.14" gradientUnits="userSpaceOnUse"><stop offset="0" stop-color="#ed2224"/><stop offset="0.99" stop-color="#f69c9e"/></linearGradient><linearGradient id="linear-gradient-88" x1="1993.29" y1="1256.14" x2="2096.41" y2="1256.14" gradientUnits="userSpaceOnUse"><stop offset="0" stop-color="#ed2224"/><stop offset="0.99" stop-color="#fff"/></linearGradient><linearGradient id="linear-gradient-89" x1="2130.74" y1="1198.41" x2="2130.74" y2="1156.31" gradientUnits="userSpaceOnUse"><stop offset="0" stop-color="#ed2224"/><stop offset="0.99" stop-color="#fde2e2"/></linearGradient><linearGradient id="linear-gradient-90" x1="2062.09" y1="1198.41" x2="2062.09" y2="1156.31" xlink:href="#linear-gradient-87"/><radialGradient id="radial-gradient-3" cx="2187.91" cy="855.66" r="95.76" gradientTransform="translate(23.86 457.54) scale(0.95 0.87)" gradientUnits="userSpaceOnUse"><stop offset="0" stop-color="#fff"/><stop offset="0.07" stop-color="#f8ebec"/><stop offset="0.32" stop-color="#e0a4a5"/><stop offset="0.55" stop-color="#cd6b6e"/><stop offset="0.75" stop-color="#c04246"/><stop offset="0.91" stop-color="#b7292d"/><stop offset="1" stop-color="#b42024"/></radialGradient></defs><title>win</title><g class="cls-2"><g id="Layer_2" data-name="Layer 2"><g class="cls-3"><path class="cls-4" d="M1454,2510.93c-688-118.95-829-283.42-883.63-361.22-163.94-233.32-138.46-520.81-126.55-639C453.12,1417.93,493.25,1035.35,769,832c119.29-88,174-64.12,459.51-219.15C1414.3,512,1445.27,472.47,1558.8,408.5c87-49,483.7-276.86,892-177.2,215.46,52.6,367.7,180.87,672.16,437.41,124.9,105.23,223,187.92,306.93,289.4,311.55,376.87,497.2,1033.69,266.73,1254.13a197.89,197.89,0,0,1-34.36,26C2847.59,2751.88,1454,2510.93,1454,2510.93Z"/><path class="cls-5" d="M1752,1500.9c-4.66,37.22-240.41,38.08-306.78,38.08-69.23,0-133.1-2.85-184.43-7.65,6.63-1.28,12.66-2.61,18-4-8,1.19-16.37,2.31-24.94,3.33,2.27.22,4.57.45,6.9.66-54.57,10.54-149.84,17.52-258.26,17.52-133.53,0-306.38-17.23-306.78-38.08-.11-5.56,12-13.31,63.69-23.22a199.6,199.6,0,0,1,23.13-53.18c79.69-127.46,283.07-118.18,308.89-117,112.34,5.12,197.09,52.23,243.32,83.83a791.8,791.8,0,0,1,205.9,13.58C1626.68,1432,1755.48,1472.85,1752,1500.9Z"/><path class="cls-6" d="M3425.28,1050c-4.66,37.21-240.41,38.07-306.78,38.07-69.23,0-133.1-2.84-184.43-7.64,6.63-1.28,12.66-2.62,18-4q-12.08,1.79-25,3.32l6.91.67C2879.5,1091,2784.22,1098,2675.81,1098c-133.53,0-306.39-17.22-306.79-38.07-.1-5.57,12.06-13.32,63.7-23.23a198.77,198.77,0,0,1,23.13-53.17c79.69-127.47,283.07-118.19,308.89-117,112.34,5.13,197.09,52.23,243.32,83.83A791.44,791.44,0,0,1,3214,963.92C3300,981.12,3428.8,1022,3425.28,1050Z"/><path class="cls-7" d="M2369.09,1050c4.67,37.21,240.42,38.07,306.79,38.07,69.23,0,133.09-2.84,184.43-7.64-6.63-1.28-12.66-2.62-18-4,8,1.19,16.37,2.3,24.94,3.32l-6.9.67c54.56,10.53,149.84,17.51,258.26,17.51,133.53,0,306.38-17.22,306.78-38.07.11-5.57-12-13.32-63.69-23.23a199.43,199.43,0,0,0-23.13-53.17c-79.7-127.47-283.07-118.19-308.9-117-112.33,5.13-197.08,52.23-243.32,83.83a791.37,791.37,0,0,0-205.89,13.59C2494.38,981.12,2365.58,1022,2369.09,1050Z"/><path class="cls-8" d="M1144,460.33c-4.1,48.73,140.83,97.44,206.69,119.58,54.11,18.18,222.21,70.19,484.91,54.15,148.46-9.07,278.94-18.53,308.89-93.61,12.81-32.1,3.54-67-7.93-93.48a199.23,199.23,0,0,0-23.13-53.17c-79.69-127.46-283.07-118.18-308.89-117-112.34,5.12-197.09,52.22-243.32,83.82a792.32,792.32,0,0,0-205.9,13.59C1294.24,386.42,1148,412.47,1144,460.33Z"/><polygon class="cls-9" points="2264.6 2574.99 780.53 2574.99 1204.55 2183.44 1400.24 1870.21 1689.73 1653.93 1869.12 1385.45 2101.53 1243.75 2104.1 1264.74 2122.03 1411.1 2122.03 1411.11 2124.71 1433.03 2140.71 1563.64 2140.82 1564.5 2141.26 1568.07 2141.76 1572.19 2144.09 1591.17 2144.24 1592.49 2144.41 1593.87 2144.41 1593.88 2145.96 1606.51 2146.07 1607.43 2146.07 1607.45 2147.7 1620.73 2147.7 1620.74 2148.73 1629.12 2149.67 1636.78 2150.94 1647.2 2151.48 1651.58 2151.92 1655.2 2158.35 1707.64 2159.9 1720.23 2182.13 1901.75 2188.56 1954.28 2188.82 1956.4 2188.91 1957.11 2189.54 1962.21 2209.39 2124.33 2211.84 2144.33 2217.28 2188.65 2217.29 2188.74 2220.54 2215.28 2223.1 2236.22 2223.82 2242.08 2224.41 2246.85 2224.41 2246.86 2225 2251.72 2225.67 2257.17 2225.67 2257.18 2232.17 2310.19 2232.17 2310.2 2234.5 2329.26 2239.65 2371.33 2240.59 2379.01 2240.59 2379.02 2243 2398.69 2247.77 2437.63 2251.66 2469.35 2264.6 2574.99"/><path class="cls-10" d="M3640,2575H2264.6c-77.47-37.29-122.32-138-122.32-138s4.08-93.23-32.61-126.8-12.22-78.3-12.22-78.3l-81.55-253.57,101.93-48.48L2015.9,1717.33l28.53-37.29c-44.83-48.48-69.3-123-61.15-141.7s32.62-70.86,32.62-70.86v-70.85l-32.62-33.55,118.25-119.32C2158.6,1288.5,2395.07,1460,2395.07,1460s7.24,24.28,18,53.32c17.21,46.43,43.45,105,63.53,95.84,10.31-4.71,24.71-6.45,39.57-6.62,32.13-.35,66.44,6.62,66.44,6.62l47.47,92,21.83,42.29c58.8,34.57,137.33,96.42,215.08,162.72l.23.2,47.49,41.09,0,0,.11.1c130.6,114.56,246.7,228.41,246.7,228.41l81.54,126.79c101.93,37.29,167.15,97,191.62,134.25,24.28,37,202.39,136.4,205.18,137.95Z"/><path class="cls-11" d="M2101.52,1243.75l-8.65,7.79-178.41,160.62L1739.67,1675,1611.5,1834.89l93.22,100.86L1452.25,2077.1l9.57,305.84,6,190.85-461.5.81-225.76.39,424-391.55,195.7-313.23,289.48-216.28,179.39-268.48Z"/><polygon class="cls-12" points="1924.29 2574.99 2217.22 2454.62 2190.07 2394.68 2264.6 2284.94 2057.41 2041.75 2037.02 1978.36 2141.8 1941.96 2203.13 1958.11 2264.6 1849.57 2246.52 1773.65 2094.44 1659.79 2219.66 1530.29 2037.7 1308.16 2101.53 1243.76 2331.96 1514.66 2178.16 1650.86 2309.99 1755.79 2331.96 1838.4 2215.39 1965.62 2183.6 1955.4 2101.53 1985.76 2128.12 2032.64 2331.96 2262.61 2232.72 2414.43 2264.6 2463.55 2002.4 2580.89 1924.29 2574.99"/><polygon class="cls-13" points="2309.99 1755.79 2469.32 1826.67 2518.4 1935.75 2438.09 1845.77 2331.96 1838.4 2309.99 1755.79"/><path class="cls-13" d="M2332,1514.66l86.27,12.19,48.61,82,51.56,52.56v94.38l-104.21-106.63-236,1.7Z"/><polygon class="cls-14" points="2079.17 1659.79 2044.43 1680.04 2015.9 1717.33 2069.07 1828.19 2141.4 1881.76 2211.58 1916.22 2249.32 1849.57 2231.24 1773.65 2079.17 1659.79"/><path class="cls-13" d="M2365.59,2024.58h73.62l182.92,79.57,66.92,87.73-1.11,79.57L2579.49,2167.8h-99a156.79,156.79,0,0,0-77.72-49.66,163.7,163.7,0,0,0-51.81-5.53q-13.87-29.73-27.74-59.47Z"/><path class="cls-13" d="M2734.82,1799.65c5.34,4,188.64,154.29,243.32,204.3s93.49,112.44,93.49,112.44l-118.23-91.81-75.84-24.48s-4.47-36.83-11.16-41.88-113.77-22.47-113.77-22.47l-91.46-40.59-78.54-286,69.3,134.24Z"/><polygon class="cls-13" points="2744.44 2366.18 2882.02 2391.83 2951.17 2442.84 2995.79 2483.64 3071.63 2580.89 2986.86 2495.89 2908.04 2428.56 2853.02 2406.11 2762.03 2396.85 2744.44 2366.18"/><polygon class="cls-15" points="1668.28 2052.58 1657.91 2201.32 1697.56 2068.25 1668.28 2052.58"/><polygon class="cls-16" points="1687.63 2033.58 1668.28 2052.58 1697.56 2068.25 1687.63 2033.58"/><polygon class="cls-17" points="1691.04 1979.33 1687.63 2033.58 1697.56 2068.25 1731.32 2058.71 1691.04 1979.33"/><polygon class="cls-18" points="1668.28 2052.58 1644.05 2047.7 1691.04 1979.33 1687.63 2033.58 1668.28 2052.58"/><polygon class="cls-19" points="1644.05 2047.7 1619.6 2036.22 1691.04 1979.33 1644.05 2047.7"/><polygon class="cls-20" points="1619.6 2036.22 1593.88 2259.7 1607.99 2274.42 1644.05 2047.7 1619.6 2036.22"/><polygon class="cls-20" points="1731.32 2058.71 1674.42 2308.58 1645.47 2314.64 1660.82 2191.57 1697.56 2068.25 1731.32 2058.71"/><polygon class="cls-18" points="1607.99 2274.42 1645.47 2314.64 1660.82 2191.57 1668.28 2052.58 1644.05 2047.7 1607.99 2274.42"/><path class="cls-19" d="M1630,2147.71c-1.58-4.14-58.26-63.49-58.26-63.49l36.52,77.7Z"/><polygon class="cls-21" points="1608.22 2161.92 1571.7 2084.22 1545.21 2174.83 1608.22 2161.92"/><polygon class="cls-20" points="1608.22 2161.92 1545.21 2174.83 1581.7 2232.33 1608.22 2161.92"/><polygon class="cls-17" points="1545.21 2174.83 1522.56 2165.36 1581.7 2232.33 1545.21 2174.83"/><polygon class="cls-17" points="1608.22 2161.92 1629.96 2147.71 1581.7 2232.33 1608.22 2161.92"/><polygon class="cls-19" points="1571.7 2084.22 1522.56 2165.36 1545.21 2174.83 1571.7 2084.22"/><polygon class="cls-22" points="1692.64 2289.83 1717.7 2185.93 1772.73 2204.61 1692.64 2289.83"/><polygon class="cls-18" points="1717.7 2185.93 1697.77 2129.85 1692.64 2289.83 1717.7 2185.93"/><polygon class="cls-20" points="1772.73 2204.61 1802.83 2055.41 1717.7 2185.93 1772.73 2204.61"/><polygon class="cls-21" points="1802.83 2055.41 1697.77 2129.85 1717.7 2185.93 1802.83 2055.41"/><polygon class="cls-23" points="2843.22 2255.61 2764.68 2301.79 2789.92 2490.36 2823.59 2508.32 2882.49 2496.78 2911.95 2311 2843.22 2255.61"/><polygon class="cls-24" points="2843.22 2255.61 2764.68 2301.79 2823.59 2355.67 2853.04 2355.67 2911.95 2311 2843.22 2255.61"/><polygon class="cls-25" points="2823.59 2355.67 2823.59 2422.38 2853.04 2355.67 2823.59 2355.67"/><polygon class="cls-26" points="2911.95 2311 2876.88 2433.92 2853.04 2355.67 2911.95 2311"/><polygon class="cls-24" points="2911.95 2311 2882.49 2496.78 2876.88 2433.92 2911.95 2311"/><polygon class="cls-27" points="2823.59 2422.38 2823.59 2508.32 2882.49 2496.78 2876.88 2433.92 2853.04 2355.67 2823.59 2422.38"/><polygon class="cls-26" points="2764.68 2301.79 2789.92 2490.36 2823.59 2508.32 2823.59 2355.67 2764.68 2301.79"/><polygon class="cls-25" points="2782.66 2482.93 2794.04 2450.59 2854.53 2494.43 2782.66 2482.93"/><polygon class="cls-27" points="2794.04 2450.59 2746.24 2464.14 2782.66 2482.93 2794.04 2450.59"/><polygon class="cls-27" points="2746.24 2464.14 2715.86 2499.21 2748.23 2522.67 2746.24 2464.14"/><polygon class="cls-26" points="2782.66 2482.93 2748.23 2522.67 2746.24 2464.14 2782.66 2482.93"/><polygon class="cls-26" points="2854.53 2494.43 2806.02 2536.01 2782.66 2482.93 2854.53 2494.43"/><polygon class="cls-25" points="2854.53 2494.43 2829.87 2553.3 2806.02 2536.01 2854.53 2494.43"/><polygon class="cls-27" points="2806.02 2536.01 2755.14 2561.92 2829.87 2553.3 2806.02 2536.01"/><polygon class="cls-25" points="2748.23 2522.67 2755.14 2561.92 2715.86 2499.21 2748.23 2522.67"/><polygon class="cls-26" points="2748.23 2522.67 2806.02 2536.01 2755.14 2561.92 2748.23 2522.67"/><polygon class="cls-24" points="2782.66 2482.93 2806.02 2536.01 2748.23 2522.67 2782.66 2482.93"/><polygon class="cls-25" points="2836.02 2478.69 2927.96 2517.12 2934.14 2492.96 2836.02 2478.69"/><polygon class="cls-27" points="2934.14 2492.96 2927.96 2517.12 2987.87 2448.23 2934.14 2492.96"/><polygon class="cls-27" points="2910.67 2431.16 2892.47 2411.17 2987.87 2448.23 2910.67 2431.16"/><path class="cls-25" d="M2892.47,2411.17c-4,2.16-56.45,67.52-56.45,67.52l74.65-47.53Z"/><polygon class="cls-28" points="2910.67 2431.16 2836.02 2478.69 2934.14 2492.96 2910.67 2431.16"/><polygon class="cls-26" points="2910.67 2431.16 2934.14 2492.96 2987.87 2448.23 2910.67 2431.16"/><path class="cls-29" d="M3044.07,2575H1005.5l.79-.39,239.76-118.93,179.39-22.38,36.38-50.34h0l113.79-157.5.69-1,.32-.14,9.62-4.07,3.07-1.3,9.72-4.12,19.76-8.37,39.94-16.9,2.24-.95.82-.35h0l34.57-14.64,9.72-4.11,4.08-1.73.95-.4,25.79-10.92,49.78-21.08,9.78-4.14,199.78-236.1,39.94,12.84,1.13.37,4.61,1.48.74.24.9.28.7.23,12.44,4,3.11,1,7.92,2.55,1.3.42,11.73,3.77,16.63,5.34,14.94,4.81,29.46,9.47,41.81,13.44,4.89,1.58.41.13,14.68,4.72,11.8,3.79,74.41,23.93L2351,2112.61s20.68-5.16,51.81,5.53h0c14.71,5.06,31.77,13.66,50.08,28,57.08,44.73,110.1,138,110.1,138l181.46,82,17.59,30.68,20,35,5.12,8.92,36.38,19,19.49,10.19,3.67,1.91,22.21,11.61,13,6.77,1.49.78,45.2,23.62,1,.54Z"/><path class="cls-30" d="M2534.42,2575H1005.5l.79-.39,239.76-118.93,179.39-22.38,36.38-50.34h0l113.79-157.5.69-1,.32-.14,9.62-4.07,3.07-1.3,9.72-4.12,19.76-8.37,39.94-16.9,2.24-.95.82-.35h0l34.57-14.64,9.72-4.11,4.08-1.73.95-.4,25.79-10.92,49.78-21.08,9.78-4.14,199.78-236.1,22,9.24.13,0,14.92,6.27,1.12.47,8.79,3.68,3,1.26,1.46.61,1.57.65,15.84,6.66,3.14,1.32,7.17,3,4.07,1.71,3.68,1.54,11,4.62-13,9.61-3,2.18-.22.17-1.38,1-1.15.86-4.9,3.6-1.92,1.42-.13.09-1.93,1.44-3.1,2.28-1.42,1-11.35,8.37-8.62,6.36-.52.38-4.45,3.28,8.51,26.45,11.88,36.93,73.38,100.7-3-.14-60.11-2.9-14.36-.69v63.4l37.38,8.89L2192,2235.08c-4.39,4-47.54,45-36.36,101,4.37,21.85,15.48,38.39,25.4,49.47a116.94,116.94,0,0,0,9.09,9.13c2.35,2.14,4.4,3.83,5.94,5.05l36.7,70.85v-93.22a32.78,32.78,0,0,1,6.93-6,36.46,36.46,0,0,1,8.78-4.31,34.63,34.63,0,0,1,16.16-1.35c11.35,1.66,25.37,8.87,41.51,27.39,44.85,51.43,61.16,88.71,138.62,81.25Z"/><polygon class="cls-31" points="1937.76 2513.4 1689.67 2574.99 1005.5 2574.99 1006.29 2574.59 1246.05 2455.67 1425.44 2433.29 1461.82 2382.95 1461.82 2382.94 1575.61 2225.44 1576.3 2224.48 1576.62 2224.34 1586.24 2220.27 1589.31 2218.97 1599.03 2214.85 1618.79 2206.48 1658.73 2189.58 1660.97 2188.63 1661.79 2188.28 1661.8 2188.28 1696.37 2173.65 1696.37 2173.64 1706.09 2169.53 1706.09 2169.53 1710.17 2167.8 1703.91 2179.06 1695.72 2193.81 1650.35 2275.49 1646.45 2282.5 1649.34 2283.54 1677.78 2293.83 1813.47 2342.89 1769.96 2417.49 1937.76 2513.4"/><polygon class="cls-32" points="1909.01 2574.99 2201.95 2454.62 2174.8 2394.68 2249.32 2284.94 2042.13 2041.75 2021.75 1978.36 2126.52 1941.96 2187.86 1958.11 2249.32 1849.57 2231.24 1773.65 2079.17 1659.79 2204.39 1530.29 2029.34 1316.6 2092.88 1251.54 2316.68 1514.66 2162.89 1650.86 2294.71 1755.79 2316.68 1838.4 2200.11 1965.62 2168.33 1955.4 2086.25 1985.76 2112.85 2032.64 2316.68 2262.61 2217.45 2414.43 2249.32 2463.55 1987.13 2580.89 1909.01 2574.99"/><g class="cls-33"><path class="cls-34" d="M2399,2284.09c0,11.35-98.78,14.84-164.33,11-38.89-2.25-51.73-6.88-51.73-11s12.84-8.81,51.73-11.06C2300.19,2269.25,2399,2272.74,2399,2284.09Z"/><path class="cls-35" d="M2394.93,2284.09c0,10.85-94.57,14.22-157.61,10.61-37.65-2.14-50.37-6.59-50.37-10.61s12.72-8.47,50.37-10.61C2300.36,2269.87,2394.93,2273.23,2394.93,2284.09Z"/><path class="cls-36" d="M2390.89,2284.09c0,10.36-90.36,13.59-150.89,10.16-36.4-2-49-6.29-49-10.16s12.61-8.13,49-10.17C2300.53,2270.49,2390.89,2273.73,2390.89,2284.09Z"/><path class="cls-37" d="M2386.84,2284.09c0,9.86-86.15,13-144.16,9.72-35.16-1.93-47.64-6-47.64-9.72s12.48-7.8,47.64-9.72C2300.69,2271.12,2386.84,2274.22,2386.84,2284.09Z"/><path class="cls-38" d="M2382.8,2284.09c0,9.37-81.94,12.34-137.43,9.28-33.92-1.82-46.29-5.72-46.29-9.28s12.37-7.46,46.29-9.28C2300.86,2271.74,2382.8,2274.72,2382.8,2284.09Z"/><path class="cls-39" d="M2378.75,2284.09c0,8.87-77.72,11.72-130.7,8.83-32.68-1.71-44.92-5.42-44.92-8.83s12.24-7.12,44.92-8.84C2301,2272.37,2378.75,2275.21,2378.75,2284.09Z"/><path class="cls-40" d="M2374.71,2284.09c0,8.38-73.52,11.09-124,8.39-31.43-1.61-43.56-5.14-43.56-8.39s12.13-6.79,43.56-8.39C2301.19,2273,2374.71,2275.71,2374.71,2284.09Z"/><path class="cls-41" d="M2370.67,2284.09c0,7.88-69.31,10.47-117.26,7.94-30.19-1.49-42.2-4.84-42.2-7.94s12-6.45,42.2-8C2301.36,2273.62,2370.67,2276.2,2370.67,2284.09Z"/><path class="cls-42" d="M2366.62,2284.09c0,7.39-65.09,9.84-110.53,7.5-28.94-1.39-40.83-4.55-40.83-7.5s11.89-6.11,40.83-7.5C2301.53,2274.24,2366.62,2276.7,2366.62,2284.09Z"/><path class="cls-43" d="M2362.58,2284.09c0,6.89-60.88,9.13-103.81,7.06-27.69-1.34-39.47-4.27-39.47-7.06s11.77-5.78,39.47-7.06C2301.7,2274.87,2362.58,2277.19,2362.58,2284.09Z"/><path class="cls-44" d="M2358.53,2284.09c0,6.4-56.66,8.5-97.08,6.61-26.45-1.24-38.1-4-38.1-6.61s11.65-5.44,38.1-6.62C2301.86,2275.49,2358.53,2277.69,2358.53,2284.09Z"/><path class="cls-45" d="M2354.49,2284.09c0,5.9-52.46,7.87-90.36,6.17-25.2-1.14-36.74-3.68-36.74-6.17s11.53-5.1,36.74-6.17C2302,2276.11,2354.49,2278.18,2354.49,2284.09Z"/><path class="cls-46" d="M2350.45,2284.09c0,5.41-48.25,7.25-83.64,5.72-24-1-35.38-3.39-35.38-5.72s11.42-4.76,35.38-5.73C2302.2,2276.74,2350.45,2278.68,2350.45,2284.09Z"/><path class="cls-47" d="M2346.4,2284.09c0,4.91-44,6.62-76.91,5.28-22.71-.93-34-3.1-34-5.28s11.29-4.43,34-5.28C2302.36,2277.36,2346.4,2279.17,2346.4,2284.09Z"/><path class="cls-48" d="M2342.36,2284.09c0,4.42-39.82,6-70.19,4.83-21.47-.82-32.65-2.8-32.65-4.83s11.18-4.09,32.65-4.84C2302.53,2278,2342.36,2279.67,2342.36,2284.09Z"/><path class="cls-49" d="M2338.31,2284.09c0,3.92-35.61,5.37-63.46,4.39-20.22-.71-31.28-2.52-31.28-4.39s11.06-3.75,31.28-4.4C2302.7,2278.61,2338.31,2280.16,2338.31,2284.09Z"/><path class="cls-50" d="M2334.27,2284.09c0,3.43-31.4,4.75-56.73,3.95-19-.61-29.93-2.23-29.93-3.95s10.94-3.42,29.93-4C2302.87,2279.24,2334.27,2280.66,2334.27,2284.09Z"/><path class="cls-51" d="M2330.22,2284.09c0,2.93-27.18,4.14-50,3.5-17.74-.49-28.57-1.93-28.57-3.5s10.83-3.08,28.57-3.51C2303,2279.86,2330.22,2281.15,2330.22,2284.09Z"/><path class="cls-52" d="M2326.18,2284.09c0,2.44-23,3.53-43.28,3.06-16.5-.38-27.2-1.65-27.2-3.06s10.7-2.74,27.2-3.06C2303.2,2280.49,2326.18,2281.65,2326.18,2284.09Z"/><path class="cls-53" d="M2322.14,2284.09c0,1.94-18.77,2.92-36.56,2.61-15.25-.26-25.84-1.35-25.84-2.61s10.59-2.4,25.84-2.62C2303.37,2281.11,2322.14,2282.14,2322.14,2284.09Z"/><path class="cls-54" d="M2318.09,2284.09c0,1.45-14.55,2.32-29.83,2.17-14-.14-24.47-1.06-24.47-2.17s10.46-2.07,24.47-2.17C2303.53,2281.73,2318.09,2282.64,2318.09,2284.09Z"/><ellipse class="cls-55" cx="2290.94" cy="2284.09" rx="23.11" ry="1.73"/></g><polygon class="cls-56" points="2333.54 2232.79 2308.59 2255.61 2273.29 2255.61 2248.34 2232.79 2248.34 2200.51 2273.29 2177.69 2308.59 2177.69 2333.54 2200.51 2333.54 2232.79"/><polygon class="cls-57" points="2217.2 2244.58 2248.34 2232.79 2248.34 2200.51 2217.2 2188.72 2217.2 2244.58"/><polygon class="cls-58" points="2260.4 2284.09 2273.29 2255.61 2248.34 2232.79 2217.2 2244.58 2260.4 2284.09"/><polygon class="cls-59" points="2321.48 2284.09 2308.59 2255.61 2273.29 2255.61 2260.4 2284.09 2321.48 2284.09"/><polygon class="cls-60" points="2364.67 2244.58 2333.54 2232.79 2308.59 2255.61 2321.48 2284.09 2364.67 2244.58"/><polygon class="cls-61" points="2364.67 2188.72 2333.54 2200.51 2333.54 2232.79 2364.67 2244.58 2364.67 2188.72"/><polygon class="cls-62" points="2321.48 2149.21 2308.59 2177.69 2333.54 2200.51 2364.67 2188.72 2321.48 2149.21"/><polygon class="cls-63" points="2260.4 2149.21 2273.29 2177.69 2308.59 2177.69 2321.48 2149.21 2260.4 2149.21"/><polygon class="cls-64" points="2217.2 2188.72 2248.34 2200.51 2273.29 2177.69 2260.4 2149.21 2217.2 2188.72"/><polygon class="cls-65" points="2290.94 2216.65 2248.34 2232.79 2248.34 2200.51 2290.94 2216.65"/><polygon class="cls-66" points="2290.94 2216.65 2308.59 2255.61 2273.29 2255.61 2290.94 2216.65"/><polygon class="cls-67" points="2290.94 2216.65 2333.54 2200.51 2333.54 2232.79 2290.94 2216.65"/><polygon class="cls-68" points="2290.94 2216.65 2273.29 2177.69 2308.59 2177.69 2290.94 2216.65"/><polygon class="cls-69" points="2361.34 2243.32 2320.1 2281.04 2261.78 2281.04 2220.54 2243.32 2220.54 2189.98 2261.78 2152.26 2320.1 2152.26 2361.34 2189.98 2361.34 2243.32"/><g class="cls-33"><path class="cls-34" d="M2149.51,2006.28c0,9.66-84,12.63-139.8,9.41-33.09-1.92-44-5.86-44-9.41s10.92-7.49,44-9.4C2065.47,1993.66,2149.51,1996.63,2149.51,2006.28Z"/><path class="cls-35" d="M2146.07,2006.28c0,9.24-80.46,12.1-134.08,9-32-1.82-42.85-5.61-42.85-9s10.82-7.2,42.85-9C2065.61,1994.19,2146.07,1997.05,2146.07,2006.28Z"/><path class="cls-36" d="M2142.63,2006.28c0,8.81-76.87,11.57-128.36,8.65-31-1.73-41.69-5.36-41.69-8.65s10.72-6.92,41.69-8.65C2065.76,1994.72,2142.63,1997.47,2142.63,2006.28Z"/><path class="cls-37" d="M2139.19,2006.28c0,8.39-73.29,11-122.64,8.27-29.91-1.64-40.53-5.11-40.53-8.27s10.62-6.63,40.53-8.27C2065.9,1995.25,2139.19,1997.89,2139.19,2006.28Z"/><path class="cls-38" d="M2135.75,2006.28c0,8-69.71,10.5-116.92,7.89-28.85-1.54-39.37-4.86-39.37-7.89s10.52-6.34,39.37-7.89C2066,1995.78,2135.75,1998.31,2135.75,2006.28Z"/><path class="cls-39" d="M2132.31,2006.28c0,7.55-66.13,10-111.2,7.52-27.79-1.46-38.21-4.62-38.21-7.52s10.42-6.06,38.21-7.51C2066.18,1996.31,2132.31,1998.73,2132.31,2006.28Z"/><path class="cls-40" d="M2128.87,2006.28c0,7.13-62.54,9.44-105.48,7.14-26.73-1.37-37.05-4.37-37.05-7.14s10.32-5.77,37.05-7.14C2066.33,1996.84,2128.87,1999.15,2128.87,2006.28Z"/><path class="cls-41" d="M2125.43,2006.28c0,6.71-59,8.91-99.76,6.76-25.68-1.27-35.89-4.12-35.89-6.76s10.21-5.48,35.89-6.76C2066.47,1997.37,2125.43,1999.57,2125.43,2006.28Z"/><path class="cls-42" d="M2122,2006.28c0,6.29-55.38,8.38-94,6.38-24.62-1.18-34.73-3.87-34.73-6.38s10.11-5.2,34.73-6.38C2066.61,1997.91,2122,2000,2122,2006.28Z"/><path class="cls-43" d="M2118.55,2006.28c0,5.87-51.79,7.77-88.32,6-23.55-1.14-33.57-3.63-33.57-6s10-4.91,33.57-6C2066.75,1998.44,2118.55,2000.42,2118.55,2006.28Z"/><path class="cls-44" d="M2115.11,2006.28c0,5.45-48.21,7.24-82.59,5.63-22.51-1.05-32.42-3.38-32.42-5.63s9.91-4.62,32.42-5.62C2066.89,1999,2115.11,2000.84,2115.11,2006.28Z"/><path class="cls-45" d="M2111.67,2006.28c0,5-44.63,6.7-76.87,5.25-21.45-1-31.26-3.13-31.26-5.25s9.81-4.34,31.26-5.25C2067,1999.5,2111.67,2001.26,2111.67,2006.28Z"/><path class="cls-46" d="M2108.22,2006.28c0,4.6-41,6.17-71.14,4.87-20.39-.87-30.1-2.88-30.1-4.87s9.71-4,30.1-4.87C2067.18,2000,2108.22,2001.68,2108.22,2006.28Z"/><path class="cls-47" d="M2104.78,2006.28c0,4.18-37.45,5.64-65.42,4.49-19.33-.78-28.94-2.63-28.94-4.49s9.61-3.76,28.94-4.49C2067.32,2000.56,2104.78,2002.1,2104.78,2006.28Z"/><path class="cls-48" d="M2101.34,2006.28c0,3.76-33.87,5.1-59.7,4.12-18.27-.7-27.78-2.39-27.78-4.12s9.51-3.48,27.78-4.11C2067.46,2001.09,2101.34,2002.52,2101.34,2006.28Z"/><path class="cls-49" d="M2097.9,2006.28c0,3.34-30.29,4.58-54,3.74-17.21-.61-26.62-2.14-26.62-3.74s9.41-3.19,26.62-3.74C2067.61,2001.62,2097.9,2002.94,2097.9,2006.28Z"/><path class="cls-50" d="M2094.46,2006.28c0,2.92-26.71,4-48.26,3.36-16.15-.51-25.46-1.89-25.46-3.36s9.31-2.9,25.46-3.36C2067.75,2002.16,2094.46,2003.36,2094.46,2006.28Z"/><path class="cls-51" d="M2091,2006.28c0,2.5-23.13,3.52-42.54,3-15.09-.42-24.3-1.64-24.3-3s9.21-2.62,24.3-3C2067.89,2002.69,2091,2003.79,2091,2006.28Z"/><path class="cls-52" d="M2087.58,2006.28c0,2.08-19.55,3-36.82,2.61-14-.33-23.14-1.4-23.14-2.61s9.11-2.33,23.14-2.6C2068,2003.22,2087.58,2004.21,2087.58,2006.28Z"/><path class="cls-53" d="M2084.14,2006.28c0,1.66-16,2.49-31.1,2.23-13-.22-22-1.15-22-2.23s9-2,22-2.22C2068.18,2003.75,2084.14,2004.63,2084.14,2006.28Z"/><path class="cls-54" d="M2080.7,2006.28c0,1.24-12.38,2-25.38,1.85-11.91-.12-20.82-.91-20.82-1.85s8.91-1.76,20.82-1.85C2068.32,2004.28,2080.7,2005.05,2080.7,2006.28Z"/><ellipse class="cls-55" cx="2057.6" cy="2006.28" rx="19.66" ry="1.47"/></g><path class="cls-70" d="M2029.15,1880.19c-.56,6.77-.69,10.23-5.82,11.77,5.13,1.53,5.26,5,5.82,11.76.57-6.77.7-10.23,5.83-11.76C2029.85,1890.42,2029.72,1887,2029.15,1880.19Z"/><path class="cls-71" d="M2125.93,1982.13h0c0-.11-.07-.21-.09-.32s-.12-.45-.2-.67c-14.29-51.55-60.56-87.59-68.05-87.59s-53.75,36-68,87.59c-.07.22-.13.44-.19.67s-.07.21-.1.32h0a6.77,6.77,0,0,0-.16,1.41c0,11.94,30.66,21.62,68.48,21.62s68.49-9.68,68.49-21.62A7.52,7.52,0,0,0,2125.93,1982.13Z"/><path class="cls-72" d="M2045.48,1885.83c-.29,3.53-.36,5.33-3,6.13,2.67.79,2.74,2.6,3,6.12.3-3.52.37-5.33,3-6.12C2045.85,1891.16,2045.78,1889.36,2045.48,1885.83Z"/><ellipse class="cls-73" cx="2074.53" cy="1893.54" rx="4.51" ry="9.12"/><ellipse class="cls-74" cx="2018.3" cy="1912.8" rx="4.51" ry="9.12"/><g class="cls-75"><path class="cls-76" d="M2045.12,1934.31a1.32,1.32,0,1,1-1.29-1.08A1.21,1.21,0,0,1,2045.12,1934.31Z"/></g><g class="cls-75"><ellipse class="cls-76" cx="2043.42" cy="1918.13" rx="0.95" ry="0.72"/></g><g class="cls-75"><path class="cls-76" d="M2029.17,1933.08a1.35,1.35,0,1,1-1.33-1.12A1.24,1.24,0,0,1,2029.17,1933.08Z"/></g><g class="cls-75"><ellipse class="cls-76" cx="2049.26" cy="1909.23" rx="1.14" ry="0.92"/></g><g class="cls-75"><path class="cls-76" d="M2047.28,1904.81a1.21,1.21,0,1,1-1.18-1A1.09,1.09,0,0,1,2047.28,1904.81Z"/></g><g class="cls-75"><path class="cls-76" d="M2060.23,1897.56a2,2,0,1,1-2-1.85A1.95,1.95,0,0,1,2060.23,1897.56Z"/></g><g class="cls-75"><path class="cls-76" d="M2094.24,1939a1.32,1.32,0,1,1-1.3-1.09A1.22,1.22,0,0,1,2094.24,1939Z"/></g><g class="cls-75"><ellipse class="cls-76" cx="2098.57" cy="1952.48" rx="1.67" ry="1.48"/></g><g class="cls-75"><path class="cls-76" d="M2068.19,1925.18a1.84,1.84,0,1,1-1.83-1.64A1.74,1.74,0,0,1,2068.19,1925.18Z"/></g><g class="cls-75"><path class="cls-76" d="M2071.84,1910.82a1,1,0,0,1-2,0,1,1,0,0,1,2,0Z"/></g><g class="cls-77"><ellipse class="cls-78" cx="2049.15" cy="1923.37" rx="1.69" ry="1.5"/></g><g class="cls-75"><path class="cls-78" d="M2024.32,1942.81a1.43,1.43,0,1,1-1.41-1.2A1.32,1.32,0,0,1,2024.32,1942.81Z"/></g><g class="cls-75"><path class="cls-78" d="M2056.92,1927.2a1.26,1.26,0,1,1-1.23-1A1.14,1.14,0,0,1,2056.92,1927.2Z"/></g><g class="cls-75"><path class="cls-78" d="M2031.57,1944.92a1.27,1.27,0,1,1-1.25-1A1.16,1.16,0,0,1,2031.57,1944.92Z"/></g><g class="cls-77"><ellipse class="cls-78" cx="2044.91" cy="1915.07" rx="1.73" ry="1.54"/></g><g class="cls-75"><path class="cls-78" d="M2063,1905.4a1.84,1.84,0,1,1-1.83-1.64A1.74,1.74,0,0,1,2063,1905.4Z"/></g><g class="cls-75"><path class="cls-78" d="M2070.46,1933.83c0,.34-.38.61-.85.61s-.85-.27-.85-.61.38-.62.85-.62S2070.46,1933.48,2070.46,1933.83Z"/></g><g class="cls-77"><ellipse class="cls-78" cx="2068.73" cy="1953.69" rx="1.73" ry="1.54"/></g><g class="cls-75"><path class="cls-78" d="M2098.43,1948.23a1,1,0,0,1-1.06.83.85.85,0,1,1,0-1.66A1,1,0,0,1,2098.43,1948.23Z"/></g><g class="cls-75"><path class="cls-78" d="M2083.48,1930.56a2.07,2.07,0,1,1-2.06-1.88A2,2,0,0,1,2083.48,1930.56Z"/></g><g class="cls-75"><path class="cls-76" d="M2047.21,1946.56a2.11,2.11,0,1,1-2.1-1.92A2,2,0,0,1,2047.21,1946.56Z"/></g><g class="cls-75"><path class="cls-76" d="M2032.31,1947.68a1.07,1.07,0,1,1-1-.82A.95.95,0,0,1,2032.31,1947.68Z"/></g><g class="cls-75"><path class="cls-76" d="M2059.87,1916a1.94,1.94,0,1,1-1.94-1.75A1.86,1.86,0,0,1,2059.87,1916Z"/></g><g class="cls-75"><path class="cls-76" d="M2036,1949.33a1.64,1.64,0,1,1-1.63-1.43A1.54,1.54,0,0,1,2036,1949.33Z"/></g><g class="cls-75"><path class="cls-76" d="M2045.51,1940.31a2.1,2.1,0,1,1-2.09-1.91A2,2,0,0,1,2045.51,1940.31Z"/></g><g class="cls-75"><path class="cls-76" d="M2073.94,1922.07a1,1,0,1,1-.94-.71A.85.85,0,0,1,2073.94,1922.07Z"/></g><g class="cls-75"><path class="cls-76" d="M2087.81,1938.54c0,.36-.39.65-.88.65s-.89-.29-.89-.65.4-.66.89-.66S2087.81,1938.18,2087.81,1938.54Z"/></g><g class="cls-75"><ellipse class="cls-76" cx="2069.1" cy="1930.56" rx="1.74" ry="1.54"/></g><g class="cls-75"><path class="cls-76" d="M2081.42,1946.85a1.93,1.93,0,1,1-1.92-1.73A1.83,1.83,0,0,1,2081.42,1946.85Z"/></g><g class="cls-75"><path class="cls-76" d="M2113,1967.44a1.94,1.94,0,1,1-1.93-1.74A1.85,1.85,0,0,1,2113,1967.44Z"/></g><g class="cls-75"><path class="cls-79" d="M2040.12,1969.74a1.77,1.77,0,1,1-1.76-1.57A1.67,1.67,0,0,1,2040.12,1969.74Z"/></g><g class="cls-75"><path class="cls-79" d="M2034.77,1928.22a2,2,0,1,1-2-1.82A1.93,1.93,0,0,1,2034.77,1928.22Z"/></g><g class="cls-75"><path class="cls-79" d="M2069.44,1919.45a1.54,1.54,0,1,1-1.52-1.32A1.43,1.43,0,0,1,2069.44,1919.45Z"/></g><g class="cls-75"><ellipse class="cls-79" cx="2046.49" cy="1967.44" rx="0.88" ry="0.65"/></g><g class="cls-75"><path class="cls-79" d="M2057.44,1946.87c0,.38-.41.68-.91.68s-.91-.3-.91-.68a.95.95,0,0,1,1.82,0Z"/></g><g class="cls-75"><path class="cls-79" d="M2052.93,1924.34a1.82,1.82,0,1,1-1.81-1.61A1.72,1.72,0,0,1,2052.93,1924.34Z"/></g><g class="cls-75"><path class="cls-79" d="M2052.5,1938.15a1.83,1.83,0,1,1-1.82-1.62A1.73,1.73,0,0,1,2052.5,1938.15Z"/></g><g class="cls-75"><path class="cls-79" d="M2083.87,1948.19a1.41,1.41,0,1,1-1.39-1.18A1.3,1.3,0,0,1,2083.87,1948.19Z"/></g><g class="cls-75"><path class="cls-79" d="M2061.17,1950.59a1.59,1.59,0,1,1-1.58-1.37A1.49,1.49,0,0,1,2061.17,1950.59Z"/></g><g class="cls-75"><ellipse class="cls-79" cx="2078.15" cy="1953.13" rx="1.68" ry="1.49"/></g><g class="cls-75"><ellipse class="cls-76" cx="2009.89" cy="1971.01" rx="1.74" ry="1.54"/></g><g class="cls-75"><ellipse class="cls-76" cx="2061.07" cy="1972.73" rx="2.1" ry="1.92"/></g><g class="cls-75"><ellipse class="cls-76" cx="2034.79" cy="1976.73" rx="1.07" ry="0.85"/></g><g class="cls-75"><path class="cls-76" d="M2065.12,1967.17a1.44,1.44,0,1,1-1.43-1.22A1.33,1.33,0,0,1,2065.12,1967.17Z"/></g><g class="cls-75"><path class="cls-76" d="M2031.39,1953.73a1.27,1.27,0,1,1-1.25-1A1.16,1.16,0,0,1,2031.39,1953.73Z"/></g><g class="cls-75"><path class="cls-76" d="M2051,1965.55a1.78,1.78,0,1,1-1.76-1.57A1.67,1.67,0,0,1,2051,1965.55Z"/></g><g class="cls-75"><path class="cls-76" d="M2071.79,1938.08a1.16,1.16,0,1,1-1.13-.91A1,1,0,0,1,2071.79,1938.08Z"/></g><g class="cls-75"><path class="cls-76" d="M2069.23,1956.15a1.46,1.46,0,1,1-1.44-1.23A1.35,1.35,0,0,1,2069.23,1956.15Z"/></g><g class="cls-75"><path class="cls-76" d="M2063.15,1976.73c0,.31-.36.56-.8.56s-.79-.25-.79-.56.35-.56.79-.56S2063.15,1976.42,2063.15,1976.73Z"/></g><g class="cls-75"><path class="cls-76" d="M2077.39,1976.29a1.59,1.59,0,1,1-1.57-1.38A1.48,1.48,0,0,1,2077.39,1976.29Z"/></g><g class="cls-75"><path class="cls-79" d="M2018.82,1975.77a1.52,1.52,0,1,1-1.5-1.29A1.41,1.41,0,0,1,2018.82,1975.77Z"/></g><g class="cls-75"><ellipse class="cls-79" cx="2027.75" cy="1985.05" rx="1.21" ry="0.99"/></g><g class="cls-75"><ellipse class="cls-79" cx="2053.94" cy="1970.51" rx="1.18" ry="0.96"/></g><g class="cls-75"><path class="cls-79" d="M2052.56,1951.31A1.55,1.55,0,1,1,2051,1950,1.45,1.45,0,0,1,2052.56,1951.31Z"/></g><g class="cls-75"><path class="cls-79" d="M2076.63,1963.37c0,.27-.33.49-.73.49s-.72-.22-.72-.49.32-.49.72-.49S2076.63,1963.1,2076.63,1963.37Z"/></g><g class="cls-75"><path class="cls-79" d="M2080.38,1968.15a1.55,1.55,0,1,1-1.54-1.34A1.45,1.45,0,0,1,2080.38,1968.15Z"/></g><g class="cls-75"><path class="cls-79" d="M2063.46,1970a1.43,1.43,0,1,1-1.41-1.2A1.32,1.32,0,0,1,2063.46,1970Z"/></g><g class="cls-75"><path class="cls-79" d="M2068.49,1959.47c0,.39-.41.7-.92.7s-.92-.31-.92-.7.41-.69.92-.69S2068.49,1959.09,2068.49,1959.47Z"/></g><g class="cls-75"><path class="cls-79" d="M2067.17,1954.32a2,2,0,1,1-2-1.82A1.92,1.92,0,0,1,2067.17,1954.32Z"/></g><g class="cls-75"><path class="cls-79" d="M2079.42,1949.46a1.49,1.49,0,1,1-1.47-1.26A1.38,1.38,0,0,1,2079.42,1949.46Z"/></g><g class="cls-75"><path class="cls-78" d="M2045.75,1981a1.21,1.21,0,1,1-1.19-1A1.09,1.09,0,0,1,2045.75,1981Z"/></g><g class="cls-75"><path class="cls-78" d="M2013.85,1957.14c0,.31-.36.57-.8.57s-.81-.26-.81-.57.36-.57.81-.57S2013.85,1956.82,2013.85,1957.14Z"/></g><g class="cls-75"><ellipse class="cls-78" cx="2026.11" cy="1962.18" rx="1.79" ry="1.6"/></g><g class="cls-75"><path class="cls-78" d="M2070.19,1944.58c0,.32-.36.57-.8.57s-.8-.25-.8-.57.35-.57.8-.57S2070.19,1944.26,2070.19,1944.58Z"/></g><g class="cls-75"><path class="cls-78" d="M2069.51,1964.75a1.52,1.52,0,1,1-1.5-1.3A1.42,1.42,0,0,1,2069.51,1964.75Z"/></g><g class="cls-75"><path class="cls-78" d="M2038.74,1944a2.11,2.11,0,1,1-2.1-1.92A2,2,0,0,1,2038.74,1944Z"/></g><g class="cls-75"><path class="cls-78" d="M2069.47,1976.1a1,1,0,0,1-1,.82.85.85,0,1,1,0-1.65A1,1,0,0,1,2069.47,1976.1Z"/></g><g class="cls-77"><path class="cls-78" d="M2088.86,1978.61a2,2,0,1,1-2-1.81A1.92,1.92,0,0,1,2088.86,1978.61Z"/></g><g class="cls-75"><path class="cls-78" d="M2107,1975.93a1.59,1.59,0,1,1-1.58-1.38A1.49,1.49,0,0,1,2107,1975.93Z"/></g><g class="cls-77"><path class="cls-78" d="M2070.71,1949.14a1.27,1.27,0,1,1-1.24-1A1.15,1.15,0,0,1,2070.71,1949.14Z"/></g><g class="cls-75"><ellipse class="cls-76" cx="1998.81" cy="1977.66" rx="1.43" ry="1.22"/></g><g class="cls-75"><path class="cls-76" d="M2009.48,1982.43a1.35,1.35,0,1,1-1.33-1.12A1.23,1.23,0,0,1,2009.48,1982.43Z"/></g><g class="cls-75"><path class="cls-76" d="M2059.12,1982.47a1,1,0,1,1-1-.74A.87.87,0,0,1,2059.12,1982.47Z"/></g><g class="cls-75"><path class="cls-76" d="M2047.8,1985.32a2,2,0,1,1-2-1.78A1.88,1.88,0,0,1,2047.8,1985.32Z"/></g><g class="cls-75"><path class="cls-76" d="M2026.47,1969.74a1.17,1.17,0,0,1-2.29,0,1.17,1.17,0,0,1,2.29,0Z"/></g><g class="cls-75"><path class="cls-76" d="M2060.16,1980.51a2.11,2.11,0,1,1-2.11-1.92A2,2,0,0,1,2060.16,1980.51Z"/></g><g class="cls-75"><path class="cls-76" d="M2064.54,1981.51c0,.34-.38.61-.85.61s-.84-.27-.84-.61.37-.62.84-.62S2064.54,1981.17,2064.54,1981.51Z"/></g><g class="cls-75"><path class="cls-76" d="M2069.22,1983.54c0,.31-.35.57-.79.57s-.8-.26-.8-.57.36-.56.8-.56S2069.22,1983.23,2069.22,1983.54Z"/></g><g class="cls-75"><path class="cls-76" d="M2101.06,1958.41a1.73,1.73,0,1,1-1.72-1.52A1.64,1.64,0,0,1,2101.06,1958.41Z"/></g><g class="cls-75"><path class="cls-76" d="M2073.39,1947.58a1,1,0,1,1-.93-.71A.85.85,0,0,1,2073.39,1947.58Z"/></g><g class="cls-75"><path class="cls-78" d="M2025.32,1955.85c0,.37-.4.67-.89.67s-.89-.3-.89-.67.4-.66.89-.66S2025.32,1955.49,2025.32,1955.85Z"/></g><g class="cls-75"><path class="cls-78" d="M2057.44,1960.66c0,.39-.42.7-.93.7s-.94-.31-.94-.7a1,1,0,0,1,1.87,0Z"/></g><g class="cls-75"><ellipse class="cls-78" cx="2043.31" cy="1983.83" rx="1.19" ry="0.97"/></g><g class="cls-75"><path class="cls-78" d="M2031.54,1960a2.1,2.1,0,1,1-2.1-1.91A2,2,0,0,1,2031.54,1960Z"/></g><g class="cls-75"><ellipse class="cls-78" cx="2086.93" cy="1973.43" rx="0.93" ry="0.7"/></g><g class="cls-75"><path class="cls-78" d="M2058.2,1961.47a1,1,0,1,1-1-.76A.89.89,0,0,1,2058.2,1961.47Z"/></g><g class="cls-77"><path class="cls-78" d="M2096.46,1984.06a1.83,1.83,0,1,1-1.82-1.62A1.74,1.74,0,0,1,2096.46,1984.06Z"/></g><g class="cls-75"><path class="cls-78" d="M2103.38,1980.06a1.1,1.1,0,1,1-1.06-.84A1,1,0,0,1,2103.38,1980.06Z"/></g><g class="cls-75"><path class="cls-78" d="M2075.37,1982.55a1,1,0,1,1-1-.77A.9.9,0,0,1,2075.37,1982.55Z"/></g><g class="cls-75"><ellipse class="cls-78" cx="2115.92" cy="1976.8" rx="2.03" ry="1.85"/></g><g class="cls-80"><path class="cls-81" d="M2017,1942.1a1.1,1.1,0,0,1-2.17,0,1.1,1.1,0,0,1,2.17,0Z"/></g><g class="cls-80"><path class="cls-81" d="M2029.52,1926.73c0,.23-.25.41-.55.41s-.56-.18-.56-.41.25-.41.56-.41S2029.52,1926.51,2029.52,1926.73Z"/></g><g class="cls-80"><ellipse class="cls-81" cx="2034.08" cy="1956.45" rx="0.62" ry="0.49"/></g><g class="cls-80"><path class="cls-81" d="M2032.54,1923.64a1,1,0,1,1-1-.88A.95.95,0,0,1,2032.54,1923.64Z"/></g><g class="cls-80"><path class="cls-81" d="M2055.52,1971.44a1,1,0,1,1-1-.88A1,1,0,0,1,2055.52,1971.44Z"/></g><g class="cls-80"><path class="cls-82" d="M2070.67,1965.36a.94.94,0,0,1-1,.85.86.86,0,1,1,0-1.71A.94.94,0,0,1,2070.67,1965.36Z"/></g><g class="cls-80"><ellipse class="cls-82" cx="2010.85" cy="1950.54" rx="1.01" ry="0.85"/></g><g class="cls-80"><path class="cls-82" d="M2046,1902.94a.89.89,0,1,1-.87-.7A.8.8,0,0,1,2046,1902.94Z"/></g><g class="cls-80"><ellipse class="cls-82" cx="2042.14" cy="1920.62" rx="0.74" ry="0.6"/></g><g class="cls-80"><ellipse class="cls-82" cx="2054.64" cy="1908.12" rx="1.43" ry="1.27"/></g><g class="cls-80"><path class="cls-82" d="M2065.56,1918.77c0,.14-.17.26-.38.26s-.38-.12-.38-.26.17-.26.38-.26S2065.56,1918.62,2065.56,1918.77Z"/></g><g class="cls-80"><path class="cls-82" d="M2057.65,1971a1,1,0,0,1-2,0,1,1,0,0,1,2,0Z"/></g><g class="cls-80"><path class="cls-82" d="M2054.53,1953.59a.91.91,0,0,1-1.77,0,.91.91,0,0,1,1.77,0Z"/></g><g class="cls-80"><path class="cls-81" d="M2015,1955.38a1.22,1.22,0,1,1-1.21-1.07A1.15,1.15,0,0,1,2015,1955.38Z"/></g><g class="cls-80"><path class="cls-81" d="M2025,1953.56c0,.2-.23.37-.51.37s-.5-.17-.5-.37.23-.38.5-.38S2025,1953.35,2025,1953.56Z"/></g><g class="cls-80"><path class="cls-81" d="M2032.39,1958.5a1.48,1.48,0,1,1-1.47-1.32A1.4,1.4,0,0,1,2032.39,1958.5Z"/></g><g class="cls-80"><path class="cls-81" d="M2047.74,1952.3c0,.21-.23.38-.52.38s-.52-.17-.52-.38.23-.37.52-.37S2047.74,1952.1,2047.74,1952.3Z"/></g><g class="cls-80"><path class="cls-81" d="M2086.48,1971.91a1.43,1.43,0,1,1-1.42-1.25A1.35,1.35,0,0,1,2086.48,1971.91Z"/></g><g class="cls-80"><path class="cls-81" d="M2063.24,1925a1.5,1.5,0,1,1-1.49-1.34A1.42,1.42,0,0,1,2063.24,1925Z"/></g><g class="cls-80"><path class="cls-81" d="M2069,1934.13a1.08,1.08,0,1,1-1.07-.93A1,1,0,0,1,2069,1934.13Z"/></g><g class="cls-80"><path class="cls-83" d="M2058.27,1947.11a1,1,0,1,1-.95-.82A.89.89,0,0,1,2058.27,1947.11Z"/></g><g class="cls-80"><path class="cls-83" d="M2055.88,1931.16a1,1,0,1,1-1-.88A.95.95,0,0,1,2055.88,1931.16Z"/></g><g class="cls-80"><path class="cls-83" d="M2063.39,1958.86a1.31,1.31,0,1,1-1.29-1.12A1.21,1.21,0,0,1,2063.39,1958.86Z"/></g><g class="cls-80"><path class="cls-83" d="M2023.87,1940.17c0,.15-.17.27-.38.27s-.39-.12-.39-.27.17-.27.39-.27S2023.87,1940,2023.87,1940.17Z"/></g><g class="cls-80"><ellipse class="cls-83" cx="2067.59" cy="1970.11" rx="0.76" ry="0.57"/></g><g class="cls-80"><path class="cls-83" d="M2047.34,1937.69a.84.84,0,1,1-.82-.7A.77.77,0,0,1,2047.34,1937.69Z"/></g><g class="cls-80"><path class="cls-83" d="M2033.27,1935.21a.82.82,0,1,1-.8-.68A.75.75,0,0,1,2033.27,1935.21Z"/></g><g class="cls-80"><path class="cls-83" d="M2062.62,1944.72a.62.62,0,1,1-.61-.49A.56.56,0,0,1,2062.62,1944.72Z"/></g><g class="cls-80"><path class="cls-83" d="M2030,1955.82a1.14,1.14,0,1,1-1.13-1A1.07,1.07,0,0,1,2030,1955.82Z"/></g><g class="cls-80"><ellipse class="cls-81" cx="2032.23" cy="1967.52" rx="1.11" ry="0.96"/></g><g class="cls-80"><ellipse class="cls-81" cx="2025.07" cy="1974.3" rx="1.6" ry="1.45"/></g><g class="cls-80"><ellipse class="cls-81" cx="2025.24" cy="1966.43" rx="0.85" ry="0.67"/></g><g class="cls-80"><path class="cls-81" d="M2061.59,1954.26a.8.8,0,0,1-.87.72.73.73,0,1,1,0-1.44A.8.8,0,0,1,2061.59,1954.26Z"/></g><g class="cls-80"><path class="cls-81" d="M2036.58,1975.38a.86.86,0,1,1-.84-.69A.78.78,0,0,1,2036.58,1975.38Z"/></g><g class="cls-80"><ellipse class="cls-81" cx="2028.35" cy="1940.22" rx="0.57" ry="0.44"/></g><g class="cls-80"><path class="cls-81" d="M2082.1,1963.92a.93.93,0,1,1-.92-.77A.85.85,0,0,1,2082.1,1963.92Z"/></g><g class="cls-80"><path class="cls-81" d="M2065.05,1961.87c0,.2-.23.36-.51.36s-.52-.16-.52-.36.23-.35.52-.35S2065.05,1961.68,2065.05,1961.87Z"/></g><g class="cls-80"><path class="cls-81" d="M2040.61,1962.92a.74.74,0,0,1-1.46,0,.74.74,0,0,1,1.46,0Z"/></g><g class="cls-80"><ellipse class="cls-83" cx="2006.42" cy="1954.32" rx="0.87" ry="0.73"/></g><g class="cls-80"><path class="cls-83" d="M2012.79,1973.94a.85.85,0,1,1-.83-.66A.76.76,0,0,1,2012.79,1973.94Z"/></g><g class="cls-80"><path class="cls-83" d="M2080.11,1958.53a.61.61,0,0,1-.67.53.6.6,0,0,1-.66-.53.6.6,0,0,1,.66-.52A.61.61,0,0,1,2080.11,1958.53Z"/></g><g class="cls-80"><path class="cls-83" d="M2044.81,1909.79a1.11,1.11,0,1,1-1.1-.94A1,1,0,0,1,2044.81,1909.79Z"/></g><g class="cls-80"><path class="cls-83" d="M2049.48,1977.68c0,.16-.2.3-.45.3s-.44-.14-.44-.3.2-.29.44-.29S2049.48,1977.52,2049.48,1977.68Z"/></g><g class="cls-80"><path class="cls-83" d="M2066.14,1943.86a.77.77,0,1,1-.76-.63A.7.7,0,0,1,2066.14,1943.86Z"/></g><g class="cls-80"><ellipse class="cls-83" cx="2011.65" cy="1969.41" rx="1.06" ry="0.9"/></g><g class="cls-80"><path class="cls-83" d="M2027.67,1949.63c0,.22-.24.39-.53.39s-.52-.17-.52-.39.24-.38.52-.38S2027.67,1949.42,2027.67,1949.63Z"/></g><g class="cls-80"><path class="cls-83" d="M2043.58,1910.3a.92.92,0,1,1-.91-.78A.85.85,0,0,1,2043.58,1910.3Z"/></g><g class="cls-80"><path class="cls-83" d="M2078.62,1974.75a.72.72,0,1,1-.71-.58A.66.66,0,0,1,2078.62,1974.75Z"/></g><g class="cls-80"><path class="cls-82" d="M2016.85,1967.45a.75.75,0,0,1-1.47,0,.75.75,0,0,1,1.47,0Z"/></g><g class="cls-80"><path class="cls-82" d="M2003.65,1975.07c0,.18-.22.33-.48.33s-.48-.15-.48-.33.22-.33.48-.33S2003.65,1974.89,2003.65,1975.07Z"/></g><g class="cls-80"><ellipse class="cls-82" cx="2048.46" cy="1916.98" rx="0.89" ry="0.76"/></g><g class="cls-80"><ellipse class="cls-82" cx="2027.48" cy="1975.03" rx="0.59" ry="0.41"/></g><g class="cls-80"><path class="cls-82" d="M2042.12,1974.28a.94.94,0,0,1-1,.86.87.87,0,1,1,1-.86Z"/></g><g class="cls-80"><path class="cls-82" d="M2023.07,1958.81a1.75,1.75,0,1,1-1.74-1.58A1.67,1.67,0,0,1,2023.07,1958.81Z"/></g><g class="cls-80"><ellipse class="cls-82" cx="2051.06" cy="1926.94" rx="0.69" ry="0.53"/></g><g class="cls-80"><ellipse class="cls-82" cx="2067.9" cy="1959.9" rx="1.65" ry="1.5"/></g><g class="cls-80"><path class="cls-82" d="M2075.31,1968.4a1,1,0,1,1-1-.8A.89.89,0,0,1,2075.31,1968.4Z"/></g><g class="cls-80"><path class="cls-81" d="M2032.69,1949.42a1.12,1.12,0,1,1-1.11-.93A1,1,0,0,1,2032.69,1949.42Z"/></g><g class="cls-80"><path class="cls-81" d="M2017.34,1968.32a.64.64,0,0,1-1.24,0c0-.25.28-.46.62-.46S2017.34,1968.07,2017.34,1968.32Z"/></g><g class="cls-80"><path class="cls-81" d="M2078.79,1958.43a1,1,0,1,1-1-.9A1,1,0,0,1,2078.79,1958.43Z"/></g><g class="cls-80"><path class="cls-81" d="M2024,1964.79a.89.89,0,1,1-.87-.7A.8.8,0,0,1,2024,1964.79Z"/></g><g class="cls-80"><path class="cls-81" d="M2033.47,1976.3a1.78,1.78,0,1,1-1.77-1.61A1.7,1.7,0,0,1,2033.47,1976.3Z"/></g><g class="cls-80"><path class="cls-81" d="M2056.8,1980.56c0,.23-.27.42-.6.42s-.59-.19-.59-.42.27-.43.59-.43S2056.8,1980.32,2056.8,1980.56Z"/></g><g class="cls-80"><path class="cls-81" d="M2028.11,1933.3c0,.18-.22.33-.49.33s-.48-.15-.48-.33.21-.34.48-.34S2028.11,1933.11,2028.11,1933.3Z"/></g><g class="cls-80"><path class="cls-81" d="M2089.5,1954.76a1.34,1.34,0,1,1-1.33-1.17A1.25,1.25,0,0,1,2089.5,1954.76Z"/></g><g class="cls-80"><path class="cls-81" d="M2049.75,1954.66c0,.3-.33.55-.73.55s-.73-.25-.73-.55.33-.55.73-.55S2049.75,1954.36,2049.75,1954.66Z"/></g><g class="cls-80"><path class="cls-82" d="M2044.44,1957.74c0,.23-.26.42-.59.42s-.58-.19-.58-.42.26-.43.58-.43S2044.44,1957.5,2044.44,1957.74Z"/></g><g class="cls-80"><ellipse class="cls-82" cx="2031.93" cy="1952.67" rx="0.55" ry="0.41"/></g><g class="cls-80"><path class="cls-82" d="M2066.45,1936.57a.59.59,0,1,1-.57-.45A.52.52,0,0,1,2066.45,1936.57Z"/></g><g class="cls-80"><ellipse class="cls-82" cx="2040.98" cy="1962.92" rx="1.64" ry="1.49"/></g><g class="cls-80"><ellipse class="cls-82" cx="2051.13" cy="1978.71" rx="0.7" ry="0.53"/></g><g class="cls-80"><path class="cls-82" d="M2047.21,1920a.63.63,0,0,1-.7.53c-.39,0-.71-.24-.71-.53a.64.64,0,0,1,.71-.54A.63.63,0,0,1,2047.21,1920Z"/></g><g class="cls-80"><path class="cls-82" d="M2055.2,1960.1c0,.33-.34.59-.77.59s-.77-.26-.77-.59a.79.79,0,0,1,1.54,0Z"/></g><g class="cls-80"><path class="cls-82" d="M2048.2,1931.48a1.54,1.54,0,1,1-1.53-1.39A1.46,1.46,0,0,1,2048.2,1931.48Z"/></g><path class="cls-84" d="M2000.56,1957.73c23.12-43.32,51.43-62.82,56.19-62.82,2.71,0,13.94,6.71,27.94,22.19C2067.79,1941.92,2035.77,1957.39,2000.56,1957.73Z"/><g class="cls-33"><path class="cls-34" d="M2384.81,1894.39c0,10.67-92.83,13.95-154.42,10.39-36.55-2.11-48.62-6.47-48.62-10.39s12.07-8.28,48.62-10.39C2292,1880.44,2384.81,1883.73,2384.81,1894.39Z"/><path class="cls-35" d="M2381,1894.39c0,10.2-88.87,13.36-148.1,10-35.38-2-47.34-6.19-47.34-10s12-8,47.34-10C2292.14,1881,2381,1884.19,2381,1894.39Z"/><path class="cls-36" d="M2377.21,1894.39c0,9.73-84.91,12.77-141.78,9.55-34.22-1.91-46.06-5.91-46.06-9.55s11.84-7.64,46.06-9.55C2292.3,1881.62,2377.21,1884.66,2377.21,1894.39Z"/><path class="cls-37" d="M2373.41,1894.39c0,9.27-81,12.19-135.47,9.14-33-1.81-44.77-5.65-44.77-9.14s11.73-7.33,44.77-9.14C2292.45,1882.2,2373.41,1885.12,2373.41,1894.39Z"/><path class="cls-38" d="M2369.61,1894.39c0,8.8-77,11.6-129.15,8.72-31.87-1.71-43.49-5.37-43.49-8.72s11.62-7,43.49-8.72C2292.61,1882.79,2369.61,1885.59,2369.61,1894.39Z"/><path class="cls-39" d="M2365.81,1894.39c0,8.34-73,11-122.83,8.3-30.7-1.61-42.21-5.1-42.21-8.3s11.51-6.69,42.21-8.3C2292.77,1883.38,2365.81,1886.05,2365.81,1894.39Z"/><path class="cls-40" d="M2362,1894.39c0,7.87-69.08,10.43-116.51,7.88-29.53-1.5-40.93-4.82-40.93-7.88s11.4-6.38,40.93-7.88C2292.93,1884,2362,1886.52,2362,1894.39Z"/><path class="cls-41" d="M2358.21,1894.39c0,7.41-65.13,9.84-110.19,7.47-28.36-1.41-39.65-4.55-39.65-7.47s11.29-6.06,39.65-7.47C2293.08,1884.55,2358.21,1887,2358.21,1894.39Z"/><path class="cls-42" d="M2354.41,1894.39c0,6.94-61.17,9.25-103.87,7-27.19-1.31-38.37-4.28-38.37-7s11.18-5.74,38.37-7.05C2293.24,1885.14,2354.41,1887.45,2354.41,1894.39Z"/><path class="cls-43" d="M2350.61,1894.39c0,6.48-57.21,8.58-97.55,6.63-26-1.26-37.09-4-37.09-6.63s11.06-5.42,37.09-6.63C2293.4,1885.72,2350.61,1887.91,2350.61,1894.39Z"/><path class="cls-44" d="M2346.81,1894.39c0,6-53.25,8-91.23,6.21-24.85-1.16-35.81-3.73-35.81-6.21s10.95-5.11,35.81-6.21C2293.55,1886.31,2346.81,1888.38,2346.81,1894.39Z"/><path class="cls-45" d="M2343,1894.39c0,5.55-49.29,7.4-84.91,5.8-23.69-1.07-34.53-3.46-34.53-5.8s10.84-4.79,34.53-5.8C2293.71,1886.9,2343,1888.84,2343,1894.39Z"/><path class="cls-46" d="M2339.21,1894.39c0,5.08-45.34,6.81-78.59,5.38-22.52-1-33.25-3.19-33.25-5.38s10.73-4.47,33.25-5.38C2293.87,1887.48,2339.21,1889.31,2339.21,1894.39Z"/><path class="cls-47" d="M2335.41,1894.39c0,4.62-41.38,6.22-72.27,5-21.35-.87-32-2.91-32-5s10.62-4.16,32-5C2294,1888.07,2335.41,1889.77,2335.41,1894.39Z"/><path class="cls-48" d="M2331.61,1894.39c0,4.15-37.42,5.64-66,4.55-20.18-.78-30.69-2.64-30.69-4.55s10.51-3.84,30.69-4.55C2294.18,1888.66,2331.61,1890.24,2331.61,1894.39Z"/><path class="cls-49" d="M2327.81,1894.39c0,3.69-33.47,5-59.64,4.13-19-.67-29.4-2.37-29.4-4.13s10.4-3.52,29.4-4.13C2294.34,1889.25,2327.81,1890.7,2327.81,1894.39Z"/><path class="cls-50" d="M2324,1894.39c0,3.22-29.51,4.47-53.32,3.71-17.83-.57-28.12-2.09-28.12-3.71s10.28-3.21,28.12-3.71C2294.5,1889.83,2324,1891.17,2324,1894.39Z"/><path class="cls-51" d="M2320.21,1894.39c0,2.76-25.55,3.89-47,3.29-16.67-.46-26.84-1.82-26.84-3.29s10.17-2.89,26.84-3.29C2294.65,1890.42,2320.21,1891.63,2320.21,1894.39Z"/><path class="cls-52" d="M2316.41,1894.39c0,2.29-21.6,3.32-40.68,2.88-15.5-.36-25.56-1.55-25.56-2.88s10.06-2.57,25.56-2.88C2294.81,1891,2316.41,1892.1,2316.41,1894.39Z"/><path class="cls-53" d="M2312.61,1894.39c0,1.83-17.64,2.75-34.36,2.46-14.33-.25-24.28-1.27-24.28-2.46s10-2.26,24.28-2.46C2295,1891.59,2312.61,1892.56,2312.61,1894.39Z"/><path class="cls-54" d="M2308.8,1894.39c0,1.36-13.67,2.18-28,2-13.16-.13-23-1-23-2s9.84-1.94,23-2C2295.13,1892.18,2308.8,1893,2308.8,1894.39Z"/><ellipse class="cls-55" cx="2283.29" cy="1894.39" rx="21.72" ry="1.62"/></g><path class="cls-85" d="M2317.38,1779.31c-.53,6.37-.66,9.63-5.48,11.07,4.82,1.45,4.95,4.7,5.48,11.08.53-6.38.65-9.63,5.48-11.08C2318,1788.94,2317.91,1785.68,2317.38,1779.31Z"/><path class="cls-86" d="M2273.48,1780.39c-.27,3.32-.34,5-2.85,5.77,2.51.75,2.58,2.44,2.85,5.76.28-3.32.34-5,2.86-5.76C2273.82,1785.41,2273.76,1783.71,2273.48,1780.39Z"/><path class="cls-87" d="M2331.16,1805c-.28,3.32-.34,5-2.85,5.76,2.51.76,2.57,2.45,2.85,5.77.28-3.32.34-5,2.85-5.77C2331.5,1810.05,2331.44,1808.36,2331.16,1805Z"/><path class="cls-88" d="M2256,1787.47c-.41,4.94-.51,7.47-4.25,8.59,3.74,1.12,3.84,3.64,4.25,8.58.42-4.94.51-7.46,4.25-8.58C2256.47,1794.94,2256.38,1792.41,2256,1787.47Z"/><path class="cls-89" d="M2281.85,1856.25a.73.73,0,0,0,.36-.8l-4.7-21.49a1.38,1.38,0,0,0-1-1.08l-20.86-4.74a1.14,1.14,0,0,0-.79.1l-36.37,19.64c-.13,0-.27.09-.33.28l-6.65,21.6v.46l.26.26,31.63,6.2a1.56,1.56,0,0,0,1.07-.19Z"/><polygon class="cls-90" points="2240.51 1852.85 2276.99 1833.81 2281.76 1855.72 2244.3 1875.99 2240.51 1852.85"/><polygon class="cls-91" points="2211.97 1869.96 2211.95 1869.94 2211.95 1869.82 2218.53 1848.45 2239.88 1853.08 2243.81 1876.21 2211.97 1869.96"/><path class="cls-92" d="M2215.17,1859.39l3.33-10.83,21.35,4.62,2.45,14.25C2228.85,1869,2225.4,1858.6,2215.17,1859.39Z"/><polygon class="cls-93" points="2219.93 1847.65 2255.27 1828.6 2275.79 1833.25 2239.92 1851.99 2219.93 1847.65"/><path class="cls-94" d="M2277,1833.81l-36.49,19,2.34,14.37c15.62-5.33,19.66-20.72,35.11-28.93Z"/><path class="cls-95" d="M2317.47,1863a.69.69,0,0,0,.36-.78l-5.37-20.79a1.43,1.43,0,0,0-1.09-1l-21.74-4.6a1.23,1.23,0,0,0-.8.09L2251.54,1855c-.14,0-.27.08-.33.27l-6.46,21.06,0,.44.27.25,32.95,5.91a1.71,1.71,0,0,0,1.11-.18Z"/><polygon class="cls-96" points="2274.5 1859.8 2311.91 1841.31 2317.37 1862.5 2278.93 1882.27 2274.5 1859.8"/><polygon class="cls-97" points="2245.26 1876.53 2245.24 1876.51 2245.23 1876.39 2251.62 1855.56 2273.85 1860.02 2278.43 1882.49 2245.26 1876.53"/><path class="cls-98" d="M2248.36,1866.22l3.24-10.55,22.23,4.45,2.84,13.85C2262.75,1875.5,2259,1865.43,2248.36,1866.22Z"/><polygon class="cls-99" points="2253.06 1854.78 2289.29 1836.25 2310.66 1840.77 2273.87 1858.97 2253.06 1854.78"/><path class="cls-100" d="M2311.91,1841.31l-37.41,18.49,2.73,14c16.1-5.23,19.94-20.16,35.78-28.12Z"/><path class="cls-101" d="M2354.72,1869.67a.61.61,0,0,0,.35-.75l-6.08-20a1.48,1.48,0,0,0-1.15-1l-22.67-4.44a1.34,1.34,0,0,0-.84.09l-38.25,18.55a.31.31,0,0,0-.34.26l-6.25,20.47,0,.43.29.24,34.36,5.57a1.92,1.92,0,0,0,1.15-.19Z"/><polygon class="cls-102" points="2310.01 1866.69 2348.42 1848.77 2354.61 1869.17 2315.13 1888.42 2310.01 1866.69"/><polygon class="cls-103" points="2280.03 1883.02 2280 1883 2279.99 1882.89 2286.17 1862.64 2309.35 1866.91 2314.61 1888.64 2280.03 1883.02"/><path class="cls-104" d="M2283,1873l3.13-10.25,23.17,4.26,3.27,13.39C2298.16,1882,2294,1872.19,2283,1873Z"/><polygon class="cls-105" points="2287.65 1861.88 2324.82 1843.89 2347.11 1848.25 2309.34 1865.89 2287.65 1861.88"/><path class="cls-106" d="M2348.42,1848.77,2310,1866.69l3.16,13.5c16.6-5.11,20.24-19.54,36.5-27.24Z"/><path class="cls-107" d="M2300.91,1837.8a.68.68,0,0,0,.35-.78l-5-21.14a1.48,1.48,0,0,0-1.05-1.08l-21-5.11a1.25,1.25,0,0,0-.79.08l-36.32,18.54c-.13,0-.27.08-.33.27l-6.44,21.12,0,.45.26.26,31.9,6.66a1.56,1.56,0,0,0,1.08-.16Z"/><polygon class="cls-108" points="2259.3 1833.62 2295.72 1815.72 2300.81 1837.28 2263.4 1856.41 2259.3 1833.62"/><polygon class="cls-109" points="2230.8 1849.91 2230.78 1849.88 2230.78 1849.77 2237.15 1828.88 2258.67 1833.83 2262.91 1856.62 2230.8 1849.91"/><path class="cls-110" d="M2233.89,1839.56l3.23-10.58,21.52,5,2.64,14C2247.77,1849.23,2244.17,1839,2233.89,1839.56Z"/><polygon class="cls-111" points="2238.55 1828.11 2273.84 1810.13 2294.51 1815.15 2258.7 1832.77 2238.55 1828.11"/><path class="cls-112" d="M2295.72,1815.72l-36.42,17.9,2.53,14.16c15.64-4.93,19.5-19.94,34.92-27.65Z"/><path class="cls-113" d="M2336.82,1845.17a.62.62,0,0,0,.34-.75l-5.7-20.41a1.49,1.49,0,0,0-1.11-1l-21.9-5a1.25,1.25,0,0,0-.81.07L2270.42,1836c-.14,0-.27.08-.33.26l-6.24,20.54,0,.44.27.25,33.23,6.4a1.74,1.74,0,0,0,1.12-.16Z"/><polygon class="cls-114" points="2293.57 1841.12 2330.91 1823.86 2336.71 1844.67 2298.33 1863.21 2293.57 1841.12"/><polygon class="cls-115" points="2264.38 1856.96 2264.35 1856.94 2264.35 1856.82 2270.51 1836.51 2292.92 1841.33 2297.82 1863.42 2264.38 1856.96"/><path class="cls-116" d="M2267.36,1846.9l3.12-10.29,22.42,4.81,3,13.62C2282,1856.28,2278,1846.33,2267.36,1846.9Z"/><polygon class="cls-117" points="2271.94 1835.77 2308.11 1818.39 2329.65 1823.31 2292.93 1840.3 2271.94 1835.77"/><path class="cls-118" d="M2330.91,1823.86l-37.34,17.26,2.94,13.72c16.11-4.79,19.77-19.3,35.57-26.72Z"/><path class="cls-119" d="M2319.68,1820.16a.64.64,0,0,0,.34-.75l-5.33-20.79a1.52,1.52,0,0,0-1.07-1.07l-18.71-2.17a1.19,1.19,0,0,0-.79.06l-38.7,14c-.13,0-.26.07-.32.26l-6.22,20.62,0,.44.26.26,32.15,7.17a1.61,1.61,0,0,0,1.08-.14Z"/><polygon class="cls-120" points="2277.82 1815.13 2314.15 1798.46 2319.57 1819.64 2282.24 1837.56 2277.82 1815.13"/><polygon class="cls-121" points="2249.39 1830.53 2249.36 1830.5 2249.36 1830.39 2255.51 1809.99 2277.19 1815.32 2281.75 1837.76 2249.39 1830.53"/><path class="cls-122" d="M2252.37,1820.43l3.11-10.33,21.69,5.32,2.83,13.82C2266.43,1830.2,2262.69,1820.06,2252.37,1820.43Z"/><polygon class="cls-123" points="2256.9 1809.28 2294.57 1795.8 2312.93 1797.87 2277.2 1814.28 2256.9 1809.28"/><path class="cls-124" d="M2314.15,1798.46l-36.33,16.67,2.73,13.93c15.65-4.5,19.32-19.1,34.7-26.27Z"/><g class="cls-33"><path class="cls-34" d="M2212.44,1665.56c0,9.92-86.38,13-143.7,9.66-34-2-45.24-6-45.24-9.66s11.23-7.71,45.24-9.67C2126.06,1652.58,2212.44,1655.63,2212.44,1665.56Z"/><path class="cls-35" d="M2208.91,1665.56c0,9.49-82.7,12.43-137.82,9.27-32.93-1.87-44.05-5.76-44.05-9.27s11.12-7.41,44.05-9.28C2126.21,1653.12,2208.91,1656.06,2208.91,1665.56Z"/><path class="cls-36" d="M2205.37,1665.56c0,9-79,11.88-131.94,8.89-31.83-1.78-42.86-5.51-42.86-8.89s11-7.12,42.86-8.89C2126.35,1653.67,2205.37,1656.5,2205.37,1665.56Z"/><path class="cls-37" d="M2201.83,1665.56c0,8.62-75.33,11.34-126,8.5-30.75-1.69-41.67-5.26-41.67-8.5s10.92-6.82,41.67-8.51C2126.5,1654.22,2201.83,1656.93,2201.83,1665.56Z"/><path class="cls-38" d="M2198.3,1665.56c0,8.19-71.65,10.79-120.18,8.11-29.66-1.59-40.47-5-40.47-8.11s10.81-6.53,40.47-8.12C2126.65,1654.76,2198.3,1657.36,2198.3,1665.56Z"/><path class="cls-39" d="M2194.76,1665.56c0,7.76-68,10.24-114.3,7.72-28.57-1.5-39.28-4.74-39.28-7.72s10.71-6.23,39.28-7.73C2126.79,1655.31,2194.76,1657.8,2194.76,1665.56Z"/><path class="cls-40" d="M2191.22,1665.56c0,7.32-64.28,9.7-108.41,7.33-27.49-1.4-38.09-4.49-38.09-7.33s10.6-5.94,38.09-7.34C2126.94,1655.85,2191.22,1658.23,2191.22,1665.56Z"/><path class="cls-41" d="M2187.69,1665.56c0,6.89-60.6,9.15-102.54,6.94-26.39-1.31-36.89-4.23-36.89-6.94s10.5-5.64,36.89-7C2127.09,1656.4,2187.69,1658.66,2187.69,1665.56Z"/><path class="cls-42" d="M2184.15,1665.56c0,6.46-56.92,8.61-96.65,6.56-25.31-1.22-35.71-4-35.71-6.56s10.4-5.35,35.71-6.56C2127.23,1657,2184.15,1659.09,2184.15,1665.56Z"/><path class="cls-43" d="M2180.61,1665.56c0,6-53.23,8-90.77,6.17-24.22-1.17-34.51-3.73-34.51-6.17s10.29-5,34.51-6.18C2127.38,1657.49,2180.61,1659.53,2180.61,1665.56Z"/><path class="cls-44" d="M2177.08,1665.56c0,5.59-49.55,7.43-84.9,5.78-23.12-1.08-33.32-3.47-33.32-5.78s10.19-4.76,33.32-5.79C2127.52,1658,2177.08,1660,2177.08,1665.56Z"/><path class="cls-45" d="M2173.54,1665.56c0,5.16-45.87,6.88-79,5.39-22-1-32.13-3.22-32.13-5.39s10.09-4.46,32.13-5.4C2127.67,1658.58,2173.54,1660.39,2173.54,1665.56Z"/><path class="cls-46" d="M2170,1665.56c0,4.73-42.19,6.33-73.14,5-20.95-.9-30.93-3-30.93-5s10-4.17,30.93-5C2127.82,1659.13,2170,1660.83,2170,1665.56Z"/><path class="cls-47" d="M2166.47,1665.56c0,4.29-38.5,5.79-67.25,4.61-19.87-.81-29.75-2.71-29.75-4.61s9.88-3.87,29.75-4.62C2128,1659.68,2166.47,1661.26,2166.47,1665.56Z"/><path class="cls-48" d="M2162.93,1665.56c0,3.86-34.82,5.24-61.37,4.23-18.77-.72-28.55-2.46-28.55-4.23s9.77-3.58,28.55-4.23C2128.11,1660.22,2162.93,1661.69,2162.93,1665.56Z"/><path class="cls-49" d="M2159.4,1665.56c0,3.43-31.14,4.7-55.49,3.84-17.69-.63-27.36-2.2-27.36-3.84s9.67-3.28,27.36-3.85C2128.25,1660.77,2159.4,1662.12,2159.4,1665.56Z"/><path class="cls-50" d="M2155.86,1665.56c0,3-27.46,4.16-49.61,3.45-16.6-.53-26.17-2-26.17-3.45s9.57-3,26.17-3.46C2128.4,1661.31,2155.86,1662.56,2155.86,1665.56Z"/><path class="cls-51" d="M2152.32,1665.56c0,2.56-23.77,3.62-43.73,3.06-15.51-.43-25-1.69-25-3.06s9.46-2.69,25-3.07C2128.55,1661.86,2152.32,1663,2152.32,1665.56Z"/><path class="cls-52" d="M2148.79,1665.56c0,2.13-20.1,3.08-37.85,2.67-14.42-.33-23.78-1.44-23.78-2.67s9.35-2.4,23.78-2.68C2128.69,1662.41,2148.79,1663.42,2148.79,1665.56Z"/><path class="cls-53" d="M2145.25,1665.56c0,1.7-16.41,2.55-32,2.28-13.33-.23-22.59-1.18-22.59-2.28s9.26-2.11,22.59-2.29C2128.84,1663,2145.25,1663.86,2145.25,1665.56Z"/><path class="cls-54" d="M2141.72,1665.56c0,1.26-12.73,2-26.09,1.9-12.25-.12-21.4-.94-21.4-1.9s9.15-1.81,21.4-1.9C2129,1663.5,2141.72,1664.29,2141.72,1665.56Z"/><ellipse class="cls-55" cx="2117.97" cy="1665.56" rx="20.21" ry="1.51"/></g><polygon class="cls-125" points="2165.27 1603.31 2157.01 1583.83 2141.62 1564.35 2117.97 1545.82 2094.32 1564.35 2078.93 1583.83 2070.67 1603.31 2066.37 1625.37 2069.74 1640.86 2080.12 1653.3 2097.35 1661.74 2117.97 1666.2 2138.59 1661.74 2155.82 1653.3 2166.21 1640.86 2169.57 1625.37 2165.27 1603.31"/><polygon class="cls-126" points="2141.59 1592.59 2117.97 1569.6 2094.36 1592.59 2086.76 1617.72 2095.07 1634.62 2117.97 1642.42 2140.87 1634.62 2149.19 1617.72 2141.59 1592.59"/><polygon class="cls-127" points="2117.97 1545.82 2102.49 1565.84 2117.97 1569.6 2133.46 1565.84 2117.97 1545.82"/><polygon class="cls-128" points="2117.97 1545.82 2114.21 1565.84 2117.97 1569.6 2121.74 1565.84 2117.97 1545.82"/><polygon class="cls-129" points="2117.97 1611.52 2114.21 1573.35 2117.97 1569.6 2121.74 1573.35 2117.97 1611.52"/><polygon class="cls-130" points="2133.46 1565.84 2157.01 1583.83 2141.59 1592.59 2117.97 1569.6 2133.46 1565.84"/><polygon class="cls-131" points="2157.01 1583.83 2141.59 1592.59 2149.19 1617.72 2169.57 1625.37 2165.27 1603.31 2157.01 1583.83"/><polygon class="cls-132" points="2117.97 1642.42 2135.94 1648.76 2140.87 1634.62 2117.97 1642.42"/><polygon class="cls-133" points="2135.94 1648.76 2117.97 1642.42 2100.01 1648.76 2097.35 1661.74 2117.97 1666.2 2138.59 1661.74 2135.94 1648.76"/><polygon class="cls-134" points="2117.97 1642.42 2108.03 1661.74 2117.97 1666.2 2127.91 1661.74 2117.97 1642.42"/><polygon class="cls-135" points="2138.59 1661.74 2135.94 1648.76 2140.87 1634.62 2159.51 1621.6 2169.57 1625.37 2166.21 1640.86 2155.82 1653.3 2138.59 1661.74"/><polygon class="cls-136" points="2133.46 1565.84 2141.62 1564.35 2157.01 1583.83 2133.46 1565.84"/><polygon class="cls-137" points="2117.97 1545.82 2133.46 1565.84 2141.62 1564.35 2117.97 1545.82"/><polygon class="cls-134" points="2140.87 1634.62 2155.82 1653.3 2166.21 1640.86 2140.87 1634.62"/><polygon class="cls-138" points="2149.19 1617.72 2159.51 1621.6 2140.87 1634.62 2149.19 1617.72"/><polygon class="cls-139" points="2102.49 1565.84 2078.93 1583.83 2094.36 1592.59 2117.97 1569.6 2102.49 1565.84"/><polygon class="cls-140" points="2078.93 1583.83 2094.36 1592.59 2086.76 1617.72 2066.37 1625.37 2070.67 1603.31 2078.93 1583.83"/><polygon class="cls-141" points="2117.97 1642.42 2100.01 1648.76 2095.07 1634.62 2117.97 1642.42"/><polygon class="cls-142" points="2097.35 1661.74 2100.01 1648.76 2095.07 1634.62 2076.43 1621.6 2066.37 1625.37 2069.74 1640.86 2080.12 1653.3 2097.35 1661.74"/><polygon class="cls-143" points="2102.49 1565.84 2094.32 1564.35 2078.93 1583.83 2102.49 1565.84"/><polygon class="cls-144" points="2117.97 1545.82 2102.49 1565.84 2094.32 1564.35 2117.97 1545.82"/><polygon class="cls-134" points="2095.07 1634.62 2080.12 1653.3 2069.74 1640.86 2095.07 1634.62"/><polygon class="cls-134" points="2070.67 1603.31 2094.36 1592.59 2086.76 1617.72 2070.67 1603.31"/><polygon class="cls-134" points="2165.27 1603.31 2141.59 1592.59 2149.19 1617.72 2165.27 1603.31"/><polygon class="cls-145" points="2086.76 1617.72 2076.43 1621.6 2095.07 1634.62 2086.76 1617.72"/><polygon class="cls-146" points="2162.51 1603.47 2154.73 1585.13 2140.24 1566.79 2117.97 1549.33 2095.7 1566.79 2081.21 1585.13 2073.43 1603.47 2069.38 1624.24 2072.55 1638.83 2082.33 1650.54 2098.56 1658.49 2117.97 1662.69 2137.39 1658.49 2153.61 1650.54 2163.39 1638.83 2166.56 1624.24 2162.51 1603.47"/><g class="cls-33"><path class="cls-34" d="M2239,1314.67c0,15-130.39,19.59-216.92,14.59-51.34-3-68.3-9.08-68.3-14.59s17-11.62,68.3-14.59C2108.63,1295.08,2239,1299.69,2239,1314.67Z"/><path class="cls-35" d="M2233.69,1314.67c0,14.33-124.84,18.77-208,14-49.7-2.83-66.5-8.7-66.5-14s16.8-11.18,66.5-14C2108.85,1295.9,2233.69,1300.34,2233.69,1314.67Z"/><path class="cls-36" d="M2228.35,1314.67c0,13.68-119.28,17.94-199.17,13.42-48.06-2.68-64.7-8.31-64.7-13.42s16.64-10.73,64.7-13.42C2109.07,1296.73,2228.35,1301,2228.35,1314.67Z"/><path class="cls-37" d="M2223,1314.67c0,13-113.72,17.12-190.29,12.83-46.42-2.54-62.9-7.92-62.9-12.83s16.48-10.29,62.9-12.83C2109.29,1297.55,2223,1301.65,2223,1314.67Z"/><path class="cls-38" d="M2217.67,1314.67c0,12.37-108.16,16.3-181.42,12.25-44.77-2.4-61.09-7.55-61.09-12.25s16.32-9.84,61.09-12.25C2109.51,1298.38,2217.67,1302.3,2217.67,1314.67Z"/><path class="cls-39" d="M2212.33,1314.67c0,11.72-102.6,15.47-172.54,11.66-43.13-2.26-59.29-7.16-59.29-11.66s16.16-9.4,59.29-11.66C2109.73,1299.2,2212.33,1303,2212.33,1314.67Z"/><path class="cls-40" d="M2207,1314.67c0,11.06-97,14.65-163.66,11.08-41.49-2.12-57.5-6.78-57.5-11.08s16-9,57.5-11.07C2110,1300,2207,1303.61,2207,1314.67Z"/><path class="cls-41" d="M2201.66,1314.67c0,10.41-91.49,13.82-154.79,10.49-39.84-2-55.7-6.39-55.7-10.49s15.86-8.51,55.7-10.49C2110.17,1300.85,2201.66,1304.26,2201.66,1314.67Z"/><path class="cls-42" d="M2196.32,1314.67c0,9.75-85.93,13-145.91,9.9-38.2-1.83-53.9-6-53.9-9.9s15.7-8.07,53.9-9.9C2110.39,1301.67,2196.32,1304.92,2196.32,1314.67Z"/><path class="cls-43" d="M2191,1314.67c0,9.1-80.36,12.06-137,9.32-36.56-1.77-52.1-5.63-52.1-9.32s15.54-7.62,52.1-9.32C2110.61,1302.5,2191,1305.57,2191,1314.67Z"/><path class="cls-44" d="M2185.64,1314.67c0,8.45-74.8,11.23-128.15,8.73-34.92-1.63-50.3-5.24-50.3-8.73s15.38-7.18,50.3-8.73C2110.83,1303.32,2185.64,1306.22,2185.64,1314.67Z"/><path class="cls-45" d="M2180.3,1314.67c0,7.79-69.24,10.4-119.27,8.14-33.27-1.49-48.5-4.85-48.5-8.14s15.22-6.73,48.5-8.14C2111.05,1304.15,2180.3,1306.88,2180.3,1314.67Z"/><path class="cls-46" d="M2175,1314.67c0,7.14-63.68,9.57-110.4,7.56-31.62-1.36-46.7-4.48-46.7-7.56s15.07-6.29,46.7-7.56C2111.27,1305,2175,1307.53,2175,1314.67Z"/><path class="cls-47" d="M2169.63,1314.67c0,6.49-58.13,8.74-101.53,7-30-1.22-44.9-4.09-44.9-7s14.91-5.84,44.9-7C2111.5,1305.79,2169.63,1308.18,2169.63,1314.67Z"/><path class="cls-48" d="M2164.29,1314.67c0,5.83-52.57,7.92-92.65,6.39-28.34-1.09-43.1-3.71-43.1-6.39s14.76-5.4,43.1-6.38C2111.72,1306.62,2164.29,1308.84,2164.29,1314.67Z"/><path class="cls-49" d="M2159,1314.67c0,5.18-47,7.1-83.77,5.8-26.7-.94-41.3-3.32-41.3-5.8s14.6-5,41.3-5.8C2111.94,1307.44,2159,1309.49,2159,1314.67Z"/><path class="cls-50" d="M2153.61,1314.67c0,4.53-41.45,6.28-74.89,5.21-25.06-.8-39.5-2.94-39.5-5.21s14.44-4.51,39.5-5.21C2112.16,1308.27,2153.61,1310.14,2153.61,1314.67Z"/><path class="cls-51" d="M2148.27,1314.67c0,3.87-35.89,5.47-66,4.63-23.42-.66-37.7-2.56-37.7-4.63s14.28-4.06,37.7-4.63C2112.38,1309.09,2148.27,1310.8,2148.27,1314.67Z"/><path class="cls-52" d="M2142.93,1314.67c0,3.22-30.33,4.66-57.13,4-21.78-.5-35.91-2.17-35.91-4s14.13-3.62,35.91-4C2112.6,1309.92,2142.93,1311.45,2142.93,1314.67Z"/><path class="cls-53" d="M2137.59,1314.67c0,2.57-24.77,3.86-48.25,3.45-20.14-.34-34.11-1.78-34.11-3.45s14-3.17,34.11-3.45C2112.82,1310.74,2137.59,1312.1,2137.59,1314.67Z"/><path class="cls-54" d="M2132.26,1314.67c0,1.91-19.22,3.06-39.39,2.87-18.48-.18-32.3-1.41-32.3-2.87s13.82-2.73,32.3-2.87C2113,1311.56,2132.26,1312.76,2132.26,1314.67Z"/><ellipse class="cls-55" cx="2096.41" cy="1314.67" rx="30.5" ry="2.28"/></g><g class="cls-80"><path class="cls-81" d="M2040.76,1158.13a1,1,0,1,1-.93-.72A.85.85,0,0,1,2040.76,1158.13Z"/></g><polygon class="cls-147" points="2096.41 1198.41 2147.38 1198.41 2096.41 1156.31 2045.45 1198.41 2096.41 1198.41"/><polygon class="cls-148" points="2096.41 1198.41 2045.45 1198.41 2096.41 1313.88 2147.38 1198.41 2096.41 1198.41"/><polygon class="cls-149" points="2096.41 1313.88 2199.54 1198.41 2147.38 1198.41 2096.41 1313.88"/><polygon class="cls-150" points="2096.41 1313.88 1993.29 1198.41 2045.45 1198.41 2096.41 1313.88"/><polygon class="cls-151" points="2147.38 1198.41 2165.07 1156.31 2199.54 1198.41 2147.38 1198.41"/><polygon class="cls-152" points="2165.07 1156.31 2147.38 1198.41 2096.41 1156.31 2165.07 1156.31"/><polygon class="cls-153" points="2045.45 1198.41 2027.76 1156.31 1993.29 1198.41 2045.45 1198.41"/><polygon class="cls-154" points="2027.76 1156.31 2045.45 1198.41 2096.41 1156.31 2027.76 1156.31"/><polygon class="cls-155" points="2162.09 1161.2 2030.73 1161.2 1997.75 1201.47 1997.75 1201.47 2096.41 1311.94 2195.08 1201.47 2162.09 1161.2"/></g></g></g></svg>